<svg version="1.1" viewBox="0.0 0.0 960.0 540.0" fill="none" stroke="none" stroke-linecap="square" stroke-miterlimit="10" xmlns:xlink="http://www.w3.org/1999/xlink" xmlns="http://www.w3.org/2000/svg"><clipPath id="gc6fa3c898_0_0.0"><path d="m0 0l960.0 0l0 540.0l-960.0 0l0 -540.0z" clip-rule="nonzero"/></clipPath><g clip-path="url(#gc6fa3c898_0_0.0)"><path fill="#37474f" d="m0 0l960.0 0l0 540.0l-960.0 0z" fill-rule="evenodd"/><path fill="#ffffff" d="m474.46158 305.3221l0 0c0 -3.0624084 2.4830627 -5.544983 5.5460815 -5.544983l0 0c1.4709167 0 2.8815918 0.584198 3.9216614 1.6240845c1.0401001 1.0398865 1.6244202 2.4502869 1.6244202 3.9208984l0 0c0 3.0624084 -2.4830627 5.5450134 -5.5460815 5.5450134l0 0c-3.0630188 0 -5.5460815 -2.482605 -5.5460815 -5.5450134z" fill-rule="evenodd"/><path fill="#ffffff" d="m492.201 305.3221l0 0c0 -3.0624084 2.4830627 -5.544983 5.5460815 -5.544983l0 0c1.4709167 0 2.8815918 0.584198 3.921692 1.6240845c1.0400696 1.0398865 1.6243896 2.4502869 1.6243896 3.9208984l0 0c0 3.0624084 -2.4830627 5.5450134 -5.5460815 5.5450134l0 0c-3.0630188 0 -5.5460815 -2.482605 -5.5460815 -5.5450134z" fill-rule="evenodd"/><path fill="#ffffff" d="m456.72217 305.3221l0 0c0 -3.0624084 2.4830627 -5.544983 5.5460815 -5.544983l0 0c1.4709167 0 2.8815918 0.584198 3.9216614 1.6240845c1.0401001 1.0398865 1.6244202 2.4502869 1.6244202 3.9208984l0 0c0 3.0624084 -2.4830627 5.5450134 -5.5460815 5.5450134l0 0c-3.0630188 0 -5.5460815 -2.482605 -5.5460815 -5.5450134z" fill-rule="evenodd"/><path fill="#000000" fill-opacity="0.0" d="m70.47324 104.020996l819.0551 0l0 181.63779l-819.0551 0z" fill-rule="evenodd"/><path fill="#ffffff" d="m326.73206 196.4188l0 -45.359375l11.25 0q4.09375 0 6.53125 1.484375q2.4375 1.484375 3.546875 4.28125q1.125 2.796875 1.125 6.78125q0 3.578125 -1.265625 6.21875q-1.25 2.625 -3.71875 4.0625q-2.46875 1.421875 -6.15625 1.421875l-4.984375 0l0 21.109375l-6.328125 0zm6.328125 -25.640625l2.90625 0q2.75 0 4.3125 -0.609375q1.5625 -0.625 2.234375 -2.15625q0.671875 -1.546875 0.671875 -4.359375q0 -3.25 -0.46875 -4.984375q-0.46875 -1.734375 -1.984375 -2.40625q-1.515625 -0.671875 -4.703125 -0.671875l-2.96875 0l0 15.1875zm20.20813 25.640625l0 -32.375l6.0 0l0 4.59375q1.78125 -2.96875 3.578125 -3.96875q1.796875 -1.015625 3.59375 -1.015625q0.21875 0 0.40625 0q0.203125 0 0.53125 0.0625l0 6.609375q-0.671875 -0.28125 -1.546875 -0.46875q-0.859375 -0.203125 -1.75 -0.203125q-1.40625 0 -2.5625 0.640625q-1.140625 0.640625 -2.25 2.5l0 23.625l-6.0 0zm26.710358 0.453125q-3.578125 0 -5.65625 -1.453125q-2.0625 -1.46875 -2.9375 -4.15625q-0.859375 -2.6875 -0.859375 -6.328125l0 -9.40625q0 -3.640625 0.859375 -6.328125q0.875 -2.6875 2.9375 -4.140625q2.078125 -1.453125 5.65625 -1.453125q3.59375 0 5.625 1.453125q2.046875 1.453125 2.921875 4.140625q0.875 2.6875 0.875 6.328125l0 9.40625q0 3.640625 -0.875 6.328125q-0.875 2.6875 -2.921875 4.15625q-2.03125 1.453125 -5.625 1.453125zm0 -4.421875q1.734375 0 2.4375 -1.0q0.703125 -1.015625 0.84375 -2.671875q0.140625 -1.65625 0.140625 -3.453125l0 -10.125q0 -1.859375 -0.140625 -3.46875q-0.140625 -1.625 -0.84375 -2.65625q-0.703125 -1.046875 -2.4375 -1.046875q-1.734375 0 -2.46875 1.046875q-0.71875 1.03125 -0.859375 2.65625q-0.140625 1.609375 -0.140625 3.46875l0 10.125q0 1.796875 0.140625 3.453125q0.140625 1.65625 0.859375 2.671875q0.734375 1.0 2.46875 1.0zm13.893768 12.140625q-0.734375 0 -1.609375 -0.078125q-0.859375 -0.078125 -1.46875 -0.3125l0 -4.3125q0.28125 0.0625 0.78125 0.109375q0.5 0.0625 0.78125 0.0625q1.296875 0 2.015625 -0.515625q0.734375 -0.5 1.03125 -1.390625q0.3125 -0.890625 0.3125 -2.015625l0 -32.09375l6.0 0l0 32.71875q0 3.796875 -2.109375 5.8125q-2.09375 2.015625 -5.734375 2.015625zm1.84375 -45.359375l0 -6.265625l6.046875 0l0 6.265625l-6.046875 0zm21.005005 37.640625q-3.8125 0 -5.890625 -1.484375q-2.0625 -1.484375 -2.875 -4.359375q-0.8125 -2.890625 -0.8125 -7.09375l0 -7.390625q0 -4.3125 0.84375 -7.171875q0.84375 -2.859375 2.9375 -4.3125q2.09375 -1.453125 5.796875 -1.453125q4.09375 0 6.015625 1.6875q1.9375 1.671875 2.546875 4.84375q0.625 3.15625 0.625 7.578125l0 2.625l-12.765625 0l0 6.5q0 1.96875 0.359375 3.203125q0.359375 1.21875 1.171875 1.8125q0.8125 0.59375 2.109375 0.59375q1.34375 0 2.03125 -0.640625q0.703125 -0.65625 0.953125 -1.859375q0.25 -1.203125 0.25 -2.828125l0 -1.953125l5.828125 0l0 1.21875q0 4.875 -2.078125 7.6875q-2.0625 2.796875 -7.046875 2.796875zm-3.578125 -19.765625l6.875 0l0 -2.921875q0 -2.015625 -0.21875 -3.375q-0.21875 -1.375 -0.921875 -2.078125q-0.703125 -0.703125 -2.21875 -0.703125q-1.453125 0 -2.21875 0.671875q-0.75 0.671875 -1.03125 2.265625q-0.265625 1.59375 -0.265625 4.390625l0 1.75zm27.04477 19.765625q-3.984375 0 -6.03125 -1.59375q-2.03125 -1.609375 -2.734375 -4.515625q-0.703125 -2.90625 -0.703125 -6.78125l0 -7.4375q0 -4.09375 0.71875 -6.96875q0.734375 -2.890625 2.78125 -4.421875q2.046875 -1.546875 5.96875 -1.546875q3.53125 0 5.453125 1.15625q1.9375 1.140625 2.65625 3.40625q0.734375 2.265625 0.734375 5.625l0 1.90625l-5.4375 0l0 -1.96875q0 -2.125 -0.28125 -3.34375q-0.265625 -1.234375 -1.0 -1.796875q-0.734375 -0.5625 -2.078125 -0.5625q-1.453125 0 -2.234375 0.671875q-0.78125 0.671875 -1.03125 2.265625q-0.25 1.59375 -0.25 4.34375l0 10.1875q0 4.140625 0.78125 5.546875q0.78125 1.40625 2.796875 1.40625q1.515625 0 2.203125 -0.703125q0.703125 -0.703125 0.890625 -1.984375q0.203125 -1.296875 0.203125 -2.921875l0 -2.625l5.4375 0l0 2.234375q0 3.25 -0.765625 5.609375q-0.75 2.34375 -2.6875 3.578125q-1.921875 1.234375 -5.390625 1.234375zm22.781616 0q-2.515625 0 -4.0625 -0.953125q-1.53125 -0.953125 -2.234375 -2.6875q-0.703125 -1.734375 -0.703125 -4.09375l0 -21.109375l-3.40625 0l0 -3.984375l3.40625 0l0 -9.453125l6.0 0l0 9.453125l5.203125 0l0 3.984375l-5.203125 0l0 20.71875q0 1.90625 0.609375 2.71875q0.625 0.8125 2.359375 0.8125q0.453125 0 1.03125 -0.046875q0.59375 -0.0625 1.15625 -0.125l0 4.421875q-1.125 0.171875 -2.078125 0.25q-0.953125 0.09375 -2.078125 0.09375zm33.66574 0.046875q-4.9375 0 -7.5625 -1.953125q-2.625 -1.96875 -3.578125 -5.515625q-0.953125 -3.5625 -0.953125 -8.3125l0 -30.078125l6.046875 0l0 30.34375q0 2.921875 0.390625 5.328125q0.390625 2.40625 1.703125 3.8125q1.3125 1.390625 3.953125 1.390625q2.6875 0 3.96875 -1.390625q1.296875 -1.40625 1.6875 -3.8125q0.390625 -2.40625 0.390625 -5.328125l0 -30.34375l5.984375 0l0 30.078125q0 4.75 -0.953125 8.3125q-0.9375 3.546875 -3.546875 5.515625q-2.609375 1.953125 -7.53125 1.953125zm18.204895 10.140625l0 -43.015625l5.984375 0l0 2.578125q1.0625 -1.234375 2.578125 -2.125q1.515625 -0.890625 3.578125 -0.890625q2.53125 0 4.0 1.3125q1.484375 1.3125 2.21875 3.3125q0.734375 1.984375 0.953125 4.03125q0.21875 2.03125 0.21875 3.5l0 7.828125q0 3.421875 -0.671875 6.484375q-0.671875 3.046875 -2.4375 4.921875q-1.75 1.875 -4.953125 1.875q-1.734375 0 -3.078125 -0.859375q-1.34375 -0.875 -2.40625 -2.0l0 13.046875l-5.984375 0zm10.296875 -14.890625q1.5625 0 2.234375 -1.140625q0.671875 -1.15625 0.84375 -3.109375q0.171875 -1.96875 0.171875 -4.328125l0 -7.828125q0 -2.03125 -0.234375 -3.734375q-0.21875 -1.703125 -0.953125 -2.703125q-0.71875 -1.015625 -2.28125 -1.015625q-1.1875 0 -2.25 0.5q-1.0625 0.5 -1.84375 1.171875l0 20.71875q0.84375 0.625 1.90625 1.046875q1.0625 0.421875 2.40625 0.421875zm22.179138 4.703125q-4.09375 0 -6.109375 -3.0q-2.015625 -3.0 -2.015625 -10.171875l0 -6.265625q0 -3.703125 0.609375 -6.859375q0.625 -3.171875 2.328125 -5.0625q1.71875 -1.90625 5.015625 -1.90625q1.625 0 2.96875 0.734375q1.34375 0.71875 2.40625 1.78125l0 -15.0625l6.0 0l0 45.359375l-6.0 0l0 -2.078125q-1.0625 1.125 -2.328125 1.828125q-1.25 0.703125 -2.875 0.703125zm1.515625 -4.703125q0.828125 0 1.78125 -0.3125q0.953125 -0.3125 1.90625 -0.921875l0 -21.234375q-0.78125 -0.546875 -1.734375 -0.96875q-0.953125 -0.421875 -2.078125 -0.421875q-2.0625 0 -2.796875 1.984375q-0.71875 1.984375 -0.71875 4.78125l0 9.140625q0 2.234375 0.25 4.0625q0.25 1.8125 1.03125 2.859375q0.78125 1.03125 2.359375 1.03125zm21.548828 4.703125q-1.90625 0 -3.359375 -1.09375q-1.453125 -1.09375 -2.296875 -2.796875q-0.828125 -1.71875 -0.828125 -3.625q0 -3.015625 1.0 -5.078125q1.015625 -2.078125 2.765625 -3.5q1.765625 -1.4375 4.09375 -2.5q2.328125 -1.0625 4.90625 -2.078125l0 -2.296875q0 -1.953125 -0.234375 -3.234375q-0.21875 -1.296875 -0.921875 -1.9375q-0.703125 -0.65625 -2.09375 -0.65625q-1.234375 0 -2.0 0.5625q-0.75 0.5625 -1.09375 1.609375q-0.328125 1.03125 -0.328125 2.421875l0 1.625l-5.9375 -0.21875q0.109375 -5.375 2.46875 -7.921875q2.359375 -2.546875 7.28125 -2.546875q4.8125 0 6.828125 2.640625q2.015686 2.625 2.015686 7.609375l0 14.78125q0 1.515625 0.078125 2.921875q0.09375 1.390625 0.234375 2.59375q0.140625 1.203125 0.25 2.265625l-5.484436 0q-0.171875 -0.890625 -0.421875 -2.265625q-0.25 -1.375 -0.359375 -2.5q-0.5625 1.90625 -2.171875 3.5625q-1.59375 1.65625 -4.390625 1.65625zm2.359375 -5.15625q0.890625 0 1.671875 -0.5q0.78125 -0.515625 1.390625 -1.15625q0.625 -0.640625 0.859375 -1.03125l0 -9.1875q-1.40625 0.78125 -2.640625 1.578125q-1.234375 0.78125 -2.15625 1.65625q-0.921875 0.859375 -1.453125 1.953125q-0.53125 1.09375 -0.53125 2.484375q0 1.96875 0.71875 3.09375q0.734375 1.109375 2.140625 1.109375zm23.84552 5.15625q-2.515625 0 -4.0625 -0.953125q-1.53125 -0.953125 -2.234375 -2.6875q-0.703125 -1.734375 -0.703125 -4.09375l0 -21.109375l-3.40625 0l0 -3.984375l3.40625 0l0 -9.453125l6.0 0l0 9.453125l5.203125 0l0 3.984375l-5.203125 0l0 20.71875q0 1.90625 0.609375 2.71875q0.625 0.8125 2.359375 0.8125q0.453125 0 1.03125 -0.046875q0.59375 -0.0625 1.15625 -0.125l0 4.421875q-1.125 0.171875 -2.078125 0.25q-0.953125 0.09375 -2.078125 0.09375zm17.591797 0q-3.8125 0 -5.890625 -1.484375q-2.0625 -1.484375 -2.875 -4.359375q-0.8125 -2.890625 -0.8125 -7.09375l0 -7.390625q0 -4.3125 0.84375 -7.171875q0.84375 -2.859375 2.9375 -4.3125q2.09375 -1.453125 5.796875 -1.453125q4.09375 0 6.015625 1.6875q1.9375 1.671875 2.546875 4.84375q0.625 3.15625 0.625 7.578125l0 2.625l-12.765625 0l0 6.5q0 1.96875 0.359375 3.203125q0.359375 1.21875 1.171875 1.8125q0.8125 0.59375 2.109375 0.59375q1.34375 0 2.03125 -0.640625q0.703125 -0.65625 0.953125 -1.859375q0.25 -1.203125 0.25 -2.828125l0 -1.953125l5.828125 0l0 1.21875q0 4.875 -2.078125 7.6875q-2.0625 2.796875 -7.046875 2.796875zm-3.578125 -19.765625l6.875 0l0 -2.921875q0 -2.015625 -0.21875 -3.375q-0.21875 -1.375 -0.921875 -2.078125q-0.703125 -0.703125 -2.21875 -0.703125q-1.453125 0 -2.21875 0.671875q-0.75 0.671875 -1.03125 2.265625q-0.265625 1.59375 -0.265625 4.390625l0 1.75zm18.529053 -3.921875l0 -6.390625l6.046875 0l0 6.390625l-6.046875 0zm0 17.859375l0 -6.390625l6.046875 0l0 6.390625l-6.046875 0z" fill-rule="nonzero"/><path fill="#ffffff" d="m253.11153 263.9188q-3.921875 0 -6.53125 -1.671875q-2.59375 -1.6875 -3.9375 -4.65625q-1.34375 -2.96875 -1.5625 -6.890625l5.59375 -1.5q0.171875 2.40625 0.75 4.640625q0.59375 2.234375 1.9375 3.671875q1.34375 1.421875 3.75 1.421875q2.46875 0 3.7187653 -1.359375q1.265625 -1.375 1.265625 -3.953125q0 -3.078125 -1.40625 -4.953125q-1.3906403 -1.875 -3.5156403 -3.78125l-7.625 -6.71875q-2.234375 -1.96875 -3.296875 -4.28125q-1.0625 -2.328125 -1.0625 -5.75q0 -4.984375 2.859375 -7.71875q2.859375 -2.75 7.78125 -2.75q2.6875 0 4.7343903 0.703125q2.046875 0.6875 3.40625 2.15625q1.375 1.453125 2.1875 3.671875q0.8125 2.203125 1.09375 5.171875l-5.375 1.453125q-0.171875 -2.234375 -0.671875 -4.109375q-0.5 -1.875 -1.7656403 -3.015625q-1.265625 -1.15625 -3.609375 -1.15625q-2.359375 0 -3.671875 1.265625q-1.3125 1.25 -1.3125 3.71875q0 2.0625 0.703125 3.40625q0.703125 1.34375 2.265625 2.75l7.6718903 6.71875q2.578125 2.234375 4.53125 5.34375q1.96875 3.109375 1.96875 7.375q0 3.359375 -1.40625 5.796875q-1.40625 2.421875 -3.84375 3.71875q-2.421875 1.28125 -5.6250153 1.28125zm24.253616 -0.046875q-3.8125 0 -5.890625 -1.484375q-2.0625 -1.484375 -2.875 -4.359375q-0.8125 -2.890625 -0.8125 -7.09375l0 -7.390625q0 -4.3125 0.84375 -7.171875q0.84375 -2.859375 2.9375 -4.3125q2.09375 -1.453125 5.796875 -1.453125q4.09375 0 6.015625 1.6875q1.9375 1.671875 2.546875 4.84375q0.625 3.15625 0.625 7.578125l0 2.625l-12.765625 0l0 6.5q0 1.96875 0.359375 3.203125q0.359375 1.21875 1.171875 1.8125q0.8125 0.59375 2.109375 0.59375q1.34375 0 2.03125 -0.640625q0.703125 -0.65625 0.953125 -1.859375q0.25 -1.203125 0.25 -2.828125l0 -1.953125l5.828125 0l0 1.21875q0 4.875 -2.078125 7.6875q-2.0625 2.796875 -7.046875 2.796875zm-3.578125 -19.765625l6.875 0l0 -2.921875q0 -2.015625 -0.21875 -3.375q-0.21875 -1.375 -0.921875 -2.078125q-0.703125 -0.703125 -2.21875 -0.703125q-1.453125 0 -2.21875 0.671875q-0.75 0.671875 -1.03125 2.265625q-0.265625 1.59375 -0.265625 4.390625l0 1.75zm18.20102 19.3125l0 -32.375l5.984375 0l0 3.203125q1.625 -1.515625 3.578125 -2.578125q1.96875 -1.0625 4.3125 -1.0625q1.96875 0 3.0 1.015625q1.03125 1.0 1.453125 2.515625q0.421875 1.5 0.421875 3.078125l0 26.203125l-5.984375 0l0 -24.46875q0 -1.734375 -0.515625 -2.6875q-0.5 -0.953125 -2.0625 -0.953125q-1.015625 0 -2.109375 0.59375q-1.078125 0.578125 -2.09375 1.421875l0 26.09375l-5.984375 0zm33.19336 0.453125q-2.515625 0 -4.0625 -0.953125q-1.53125 -0.953125 -2.234375 -2.6875q-0.703125 -1.734375 -0.703125 -4.09375l0 -21.109375l-3.40625 0l0 -3.984375l3.40625 0l0 -9.453125l6.0 0l0 9.453125l5.203125 0l0 3.984375l-5.203125 0l0 20.71875q0 1.90625 0.609375 2.71875q0.625 0.8125 2.359375 0.8125q0.453125 0 1.03125 -0.046875q0.59375 -0.0625 1.15625 -0.125l0 4.421875q-1.125 0.171875 -2.078125 0.25q-0.953125 0.09375 -2.078125 0.09375zm9.029266 -0.453125l0 -32.375l5.984375 0l0 32.375l-5.984375 0zm0 -37.1875l0 -6.265625l5.984375 0l0 6.265625l-5.984375 0zm12.43335 37.1875l0 -32.375l5.53125 0l0 3.09375q1.625 -1.859375 3.578125 -2.75q1.96875 -0.890625 4.046875 -0.890625q1.78125 0 3.203125 0.890625q1.4375 0.890625 2.0625 3.1875q1.734375 -2.125 3.765625 -3.09375q2.046875 -0.984375 4.296875 -0.984375q1.5625 0 2.84375 0.75q1.296875 0.75 2.078125 2.40625q0.78125 1.65625 0.78125 4.34375l0 25.421875l-5.484375 0l0 -25.03125q0 -2.359375 -0.765625 -3.171875q-0.75 -0.8125 -2.03125 -0.8125q-1.234375 0 -2.578125 0.703125q-1.34375 0.703125 -2.46875 1.9375q0 0.21875 0 0.453125q0 0.21875 0 0.5l0 25.421875l-5.484375 0l0 -25.03125q0 -2.359375 -0.765625 -3.171875q-0.75 -0.8125 -2.03125 -0.8125q-1.234375 0 -2.546875 0.703125q-1.3125 0.703125 -2.5 1.9375l0 26.375l-5.53125 0zm47.033142 0.453125q-3.8125 0 -5.890625 -1.484375q-2.0625 -1.484375 -2.875 -4.359375q-0.8125 -2.890625 -0.8125 -7.09375l0 -7.390625q0 -4.3125 0.84375 -7.171875q0.84375 -2.859375 2.9375 -4.3125q2.09375 -1.453125 5.796875 -1.453125q4.09375 0 6.015625 1.6875q1.9375 1.671875 2.546875 4.84375q0.625 3.15625 0.625 7.578125l0 2.625l-12.765625 0l0 6.5q0 1.96875 0.359375 3.203125q0.359375 1.21875 1.171875 1.8125q0.8125 0.59375 2.109375 0.59375q1.34375 0 2.03125 -0.640625q0.703125 -0.65625 0.953125 -1.859375q0.25 -1.203125 0.25 -2.828125l0 -1.953125l5.828125 0l0 1.21875q0 4.875 -2.078125 7.6875q-2.0625 2.796875 -7.046875 2.796875zm-3.578125 -19.765625l6.875 0l0 -2.921875q0 -2.015625 -0.21875 -3.375q-0.21875 -1.375 -0.921875 -2.078125q-0.703125 -0.703125 -2.21875 -0.703125q-1.453125 0 -2.21875 0.671875q-0.75 0.671875 -1.03125 2.265625q-0.265625 1.59375 -0.265625 4.390625l0 1.75zm18.200989 19.3125l0 -32.375l5.984375 0l0 3.203125q1.625 -1.515625 3.578125 -2.578125q1.96875 -1.0625 4.3125 -1.0625q1.96875 0 3.0 1.015625q1.03125 1.0 1.453125 2.515625q0.421875 1.5 0.421875 3.078125l0 26.203125l-5.984375 0l0 -24.46875q0 -1.734375 -0.515625 -2.6875q-0.5 -0.953125 -2.0625 -0.953125q-1.015625 0 -2.109375 0.59375q-1.078125 0.578125 -2.09375 1.421875l0 26.09375l-5.984375 0zm33.19339 0.453125q-2.515625 0 -4.0625 -0.953125q-1.53125 -0.953125 -2.234375 -2.6875q-0.703125 -1.734375 -0.703125 -4.09375l0 -21.109375l-3.40625 0l0 -3.984375l3.40625 0l0 -9.453125l6.0 0l0 9.453125l5.203125 0l0 3.984375l-5.203125 0l0 20.71875q0 1.90625 0.609375 2.71875q0.625 0.8125 2.359375 0.8125q0.453125 0 1.03125 -0.046875q0.59375 -0.0625 1.15625 -0.125l0 4.421875q-1.125 0.171875 -2.078125 0.25q-0.953125 0.09375 -2.078125 0.09375zm19.493866 -0.453125l9.640625 -45.359375l6.09375 0l9.6875 45.359375l-5.984375 0l-2.078125 -11.421875l-9.234375 0l-2.1875 11.421875l-5.9375 0zm8.96875 -15.953125l7.546875 0l-3.796875 -20.453125l-3.75 20.453125zm20.552002 15.953125l0 -32.375l5.984375 0l0 3.203125q1.625 -1.515625 3.578125 -2.578125q1.96875 -1.0625 4.3125 -1.0625q1.96875 0 3.0 1.015625q1.03125 1.0 1.453125 2.515625q0.421875 1.5 0.421875 3.078125l0 26.203125l-5.984375 0l0 -24.46875q0 -1.734375 -0.515625 -2.6875q-0.5 -0.953125 -2.0625 -0.953125q-1.015625 0 -2.109375 0.59375q-1.078125 0.578125 -2.09375 1.421875l0 26.09375l-5.984375 0zm30.396576 0.453125q-1.90625 0 -3.359375 -1.09375q-1.453125 -1.09375 -2.296875 -2.796875q-0.828125 -1.71875 -0.828125 -3.625q0 -3.015625 1.0 -5.078125q1.015625 -2.078125 2.765625 -3.5q1.765625 -1.4375 4.09375 -2.5q2.328125 -1.0625 4.90625 -2.078125l0 -2.296875q0 -1.953125 -0.234375 -3.234375q-0.21875 -1.296875 -0.921875 -1.9375q-0.703125 -0.65625 -2.09375 -0.65625q-1.234375 0 -2.0 0.5625q-0.75 0.5625 -1.09375 1.609375q-0.328125 1.03125 -0.328125 2.421875l0 1.625l-5.9375 -0.21875q0.109375 -5.375 2.46875 -7.921875q2.359375 -2.546875 7.28125 -2.546875q4.8125 0 6.828125 2.640625q2.015625 2.625 2.015625 7.609375l0 14.78125q0 1.515625 0.078125 2.921875q0.09375 1.390625 0.234375 2.59375q0.140625 1.203125 0.25 2.265625l-5.484375 0q-0.171875 -0.890625 -0.421875 -2.265625q-0.25 -1.375 -0.359375 -2.5q-0.5625 1.90625 -2.171875 3.5625q-1.59375 1.65625 -4.390625 1.65625zm2.359375 -5.15625q0.890625 0 1.671875 -0.5q0.78125 -0.515625 1.390625 -1.15625q0.625 -0.640625 0.859375 -1.03125l0 -9.1875q-1.40625 0.78125 -2.640625 1.578125q-1.234375 0.78125 -2.15625 1.65625q-0.921875 0.859375 -1.453125 1.953125q-0.53125 1.09375 -0.53125 2.484375q0 1.96875 0.71875 3.09375q0.734375 1.109375 2.140625 1.109375zm16.231018 4.703125l0 -45.359375l6.0 0l0 45.359375l-6.0 0zm11.761475 8.125l0 -4.59375q2.1875 0 3.46875 -0.203125q1.296875 -0.1875 1.859375 -0.71875q0.5625 -0.53125 0.5625 -1.484375q0 -0.515625 -0.40625 -2.25q-0.390625 -1.734375 -0.828125 -3.6875l-6.5 -27.5625l6.046875 0l4.375 24.203125l4.1875 -24.203125l6.0625 0l-7.734375 34.171875q-0.5 2.34375 -1.84375 3.71875q-1.34375 1.375 -3.453125 1.984375q-2.09375 0.625 -5.0625 0.625l-0.734375 0zm29.967651 -7.671875q-3.984375 0 -6.390625 -2.484375q-2.40625 -2.5 -2.734375 -6.59375l4.984375 -1.515625q0.4375 3.078125 1.5 4.625q1.0625 1.546875 3.140625 1.546875q1.625 0 2.46875 -0.921875q0.84375 -0.9375 0.84375 -2.5q0 -1.40625 -0.625 -2.515625q-0.609375 -1.125 -2.015625 -2.296875l-5.546875 -4.765625q-1.671875 -1.453125 -2.828125 -3.25q-1.140625 -1.796875 -1.140625 -4.640625q0 -2.578125 1.03125 -4.34375q1.03125 -1.765625 2.90625 -2.6875q1.890625 -0.921875 4.40625 -0.921875q3.859375 0 5.90625 2.5q2.046875 2.484375 2.328125 6.015625l-4.03125 1.5q-0.234375 -1.671875 -0.6875 -2.921875q-0.4375 -1.265625 -1.21875 -1.96875q-0.78125 -0.703125 -2.078125 -0.703125q-1.453125 0 -2.328125 0.984375q-0.859375 0.96875 -0.859375 2.3125q0 0.84375 0.359375 1.65625q0.359375 0.8125 1.265625 1.59375l5.703125 5.265625q1.1875 1.0625 2.21875 2.296875q1.03125 1.234375 1.703125 2.8125q0.671875 1.5625 0.671875 3.625q0 2.75 -1.125 4.59375q-1.109375 1.84375 -3.125 2.78125q-2.015625 0.921875 -4.703125 0.921875zm13.834595 -0.453125l0 -32.375l5.984375 0l0 32.375l-5.984375 0zm0 -37.1875l0 -6.265625l5.984375 0l0 6.265625l-5.984375 0zm19.93341 37.640625q-3.984375 0 -6.390625 -2.484375q-2.40625 -2.5 -2.734375 -6.59375l4.984375 -1.515625q0.4375 3.078125 1.5 4.625q1.0625 1.546875 3.140625 1.546875q1.625 0 2.46875 -0.921875q0.84375 -0.9375 0.84375 -2.5q0 -1.40625 -0.625 -2.515625q-0.609375 -1.125 -2.015625 -2.296875l-5.546875 -4.765625q-1.671875 -1.453125 -2.828125 -3.25q-1.140625 -1.796875 -1.140625 -4.640625q0 -2.578125 1.03125 -4.34375q1.03125 -1.765625 2.90625 -2.6875q1.890625 -0.921875 4.40625 -0.921875q3.859375 0 5.90625 2.5q2.046875 2.484375 2.328125 6.015625l-4.03125 1.5q-0.234375 -1.671875 -0.6875 -2.921875q-0.4375 -1.265625 -1.21875 -1.96875q-0.78125 -0.703125 -2.078125 -0.703125q-1.453125 0 -2.328125 0.984375q-0.859375 0.96875 -0.859375 2.3125q0 0.84375 0.359375 1.65625q0.359375 0.8125 1.265625 1.59375l5.703125 5.265625q1.1875 1.0625 2.21875 2.296875q1.03125 1.234375 1.703125 2.8125q0.671875 1.5625 0.671875 3.625q0 2.75 -1.125 4.59375q-1.109375 1.84375 -3.125 2.78125q-2.015625 0.921875 -4.703125 0.921875zm31.75238 -0.453125l0 -40.65625l-7.671875 0l0 -4.703125l21.4375 0l0 4.703125l-7.4375 0l0 40.65625l-6.328125 0zm25.862244 0.453125q-3.578125 0 -5.65625 -1.453125q-2.0625 -1.46875 -2.9375 -4.15625q-0.859375 -2.6875 -0.859375 -6.328125l0 -9.40625q0 -3.640625 0.859375 -6.328125q0.875 -2.6875 2.9375 -4.140625q2.078125 -1.453125 5.65625 -1.453125q3.59375 0 5.625 1.453125q2.046875 1.453125 2.921875 4.140625q0.875 2.6875 0.875 6.328125l0 9.40625q0 3.640625 -0.875 6.328125q-0.875 2.6875 -2.921875 4.15625q-2.03125 1.453125 -5.625 1.453125zm0 -4.421875q1.734375 0 2.4375 -1.0q0.703125 -1.015625 0.84375 -2.671875q0.140625 -1.65625 0.140625 -3.453125l0 -10.125q0 -1.859375 -0.140625 -3.46875q-0.140625 -1.625 -0.84375 -2.65625q-0.703125 -1.046875 -2.4375 -1.046875q-1.734375 0 -2.46875 1.046875q-0.71875 1.03125 -0.859375 2.65625q-0.140625 1.609375 -0.140625 3.46875l0 10.125q0 1.796875 0.140625 3.453125q0.140625 1.65625 0.859375 2.671875q0.734375 1.0 2.46875 1.0zm23.799988 4.421875q-3.578125 0 -5.65625 -1.453125q-2.0625 -1.46875 -2.9375 -4.15625q-0.859375 -2.6875 -0.859375 -6.328125l0 -9.40625q0 -3.640625 0.859375 -6.328125q0.875 -2.6875 2.9375 -4.140625q2.078125 -1.453125 5.65625 -1.453125q3.59375 0 5.625 1.453125q2.046875 1.453125 2.921875 4.140625q0.875 2.6875 0.875 6.328125l0 9.40625q0 3.640625 -0.875 6.328125q-0.875 2.6875 -2.921875 4.15625q-2.03125 1.453125 -5.625 1.453125zm0 -4.421875q1.734375 0 2.4375 -1.0q0.703125 -1.015625 0.84375 -2.671875q0.140625 -1.65625 0.140625 -3.453125l0 -10.125q0 -1.859375 -0.140625 -3.46875q-0.140625 -1.625 -0.84375 -2.65625q-0.703125 -1.046875 -2.4375 -1.046875q-1.734375 0 -2.46875 1.046875q-0.71875 1.03125 -0.859375 2.65625q-0.140625 1.609375 -0.140625 3.46875l0 10.125q0 1.796875 0.140625 3.453125q0.140625 1.65625 0.859375 2.671875q0.734375 1.0 2.46875 1.0zm15.456238 3.96875l0 -45.359375l6.0 0l0 45.359375l-6.0 0z" fill-rule="nonzero"/><path fill="#000000" fill-opacity="0.0" d="m70.47244 333.32028l819.0552 0l0 83.212616l-819.0552 0z" fill-rule="evenodd"/><path fill="#cacaca" d="m233.15884 363.23654q2.125 0 3.484375 -0.859375q1.359375 -0.875 1.8125 -2.375l0.625 0.265625q-0.25 0.828125 -0.53125 3.046875q-2.78125 1.03125 -5.453125 1.03125q-3.71875 0 -5.890625 -2.015625q-2.171875 -2.03125 -2.171875 -5.625q0 -3.609375 2.140625 -5.96875q2.15625 -2.375 5.890625 -2.375q1.046875 0 2.328125 0.171875q1.296875 0.15625 1.765625 0.15625q0.484375 0 1.03125 -0.125l0 0.34375q0 1.640625 0.265625 3.1875l-0.609375 0.265625q-0.90625 -2.96875 -4.796875 -2.96875q-2.265625 0 -3.90625 1.609375q-0.8125 0.796875 -1.28125 2.109375q-0.453125 1.3125 -0.453125 2.828125q0 1.5 0.3125 2.734375q0.3125 1.21875 0.96875 2.265625q0.671875 1.03125 1.8125 1.671875q1.15625 0.625 2.65625 0.625zm12.6874695 -8.46875q-0.921875 0 -1.609375 0.46875q-0.671875 0.46875 -1.0 1.15625q-0.609375 1.296875 -0.609375 2.484375q0 1.84375 0.75 3.078125q0.75 1.234375 2.359375 1.234375q0.859375 0 1.515625 -0.390625q0.65625 -0.390625 1.0 -1.03125q0.65625 -1.171875 0.703125 -2.359375q0 -4.640625 -3.109375 -4.640625zm0.109375 -1.109375q2.59375 0 3.765625 1.3125q1.171875 1.3125 1.171875 3.65625q0 2.34375 -1.34375 4.0q-1.34375 1.65625 -3.9375 1.65625q-2.578125 0 -3.75 -1.296875q-1.171875 -1.3125 -1.171875 -3.640625q0 -2.328125 1.34375 -4.0q1.34375 -1.6875 3.921875 -1.6875zm9.797638 -5.90625q-0.046875 2.828125 -0.046875 8.296875q0 5.453125 0.25 6.9375q0.015625 0.171875 0.578125 0.328125q0.578125 0.15625 1.0 0.171875l-0.0625 0.65625q-1.09375 -0.0625 -2.640625 -0.0625q-1.53125 0 -2.609375 0.0625l0.0625 -0.65625q0.46875 -0.046875 1.0 -0.1875q0.53125 -0.140625 0.5625 -0.3125q0.15625 -1.46875 0.15625 -5.65625q0 -6.828125 -0.140625 -7.96875l-0.046875 -0.390625l-1.4375 -0.4375l-0.046875 -0.578125q1.453125 0 2.984375 -0.40625l0.4375 0.203125zm9.849976 9.078125q0 -1.046875 -0.59375 -1.546875q-0.578125 -0.515625 -1.3125 -0.515625q-1.0625 0 -1.828125 0.84375q-0.765625 0.828125 -1.015625 2.0625l4.6875 -0.1875q0.0625 -0.34375 0.0625 -0.65625zm-1.96875 7.453125q-2.40625 0 -3.625 -1.359375q-1.21875 -1.375 -1.21875 -3.65625q0 -2.28125 1.34375 -3.9375q1.34375 -1.671875 4.0625 -1.671875q1.390625 0 2.421875 0.984375q1.03125 0.96875 1.03125 2.890625l-0.78125 0.921875q-0.125 -0.015625 -2.140625 -0.015625q-2.0 0 -4.015625 0.15625l0 0.203125q0 2.0625 0.859375 3.09375q0.859375 1.03125 2.34375 1.03125q1.5 0 3.15625 -0.71875l0.28125 0.671875q-1.75 1.40625 -3.71875 1.40625zm15.11795 -5.390625q0 2.921875 0.15625 3.8125l0.0625 0.28125q0.015625 0.171875 0.5 0.3125q0.5 0.140625 0.953125 0.1875l-0.078125 0.65625q-1.078125 -0.0625 -2.484375 -0.0625q-1.40625 0 -2.5 0.0625l0.078125 -0.65625q0.421875 -0.046875 0.90625 -0.1875q0.5 -0.140625 0.515625 -0.3125q0.1875 -0.78125 0.1875 -4.09375l0 -2.203125q0 -0.875 -0.53125 -1.21875q-0.515625 -0.34375 -1.25 -0.34375q-0.71875 0 -1.125 0.0625q-0.40625 0.0625 -0.71875 0.140625q-0.4375 0.125 -1.1875 0.4375l0 3.125q0 2.8125 0.1875 3.8125l0.0625 0.28125q0.03125 0.171875 0.515625 0.3125q0.484375 0.140625 0.9375 0.1875l-0.0625 0.65625q-1.09375 -0.0625 -2.5 -0.0625q-1.40625 0 -2.484375 0.0625l0.0625 -0.65625q0.4375 -0.046875 0.921875 -0.1875q0.484375 -0.140625 0.5 -0.3125q0.171875 -0.78125 0.171875 -3.171875q0 -3.84375 -0.1875 -4.703125l-1.453125 -0.4375l-0.046875 -0.578125q1.453125 0 3.0 -0.421875l0.421875 0.21875q-0.015625 0.5625 -0.015625 1.078125q2.515625 -1.3125 4.28125 -1.3125q1.765625 0 2.109375 1.34375q2.375 -1.34375 4.296875 -1.34375q1.140625 0 1.71875 0.453125q0.59375 0.453125 0.59375 1.703125l0 3.078125q0 2.921875 0.15625 3.8125l0.078125 0.28125q0.015625 0.171875 0.5 0.3125q0.484375 0.140625 0.9375 0.1875l-0.0625 0.65625q-1.09375 -0.0625 -2.5 -0.0625q-1.390625 0 -2.484375 0.0625l0.0625 -0.65625q0.4375 -0.046875 0.921875 -0.1875q0.484375 -0.140625 0.515625 -0.3125q0.171875 -0.78125 0.171875 -4.09375l0 -2.203125q0 -0.875 -0.515625 -1.21875q-0.515625 -0.34375 -1.84375 -0.34375q-1.328125 0 -2.453125 0.640625l0 3.125zm15.173401 0.4375q-1.859375 0.03125 -2.84375 0.703125q-0.96875 0.65625 -0.96875 1.421875q0 0.765625 0.390625 1.125q0.40625 0.34375 1.28125 0.34375q0.890625 0 2.140625 -0.75l0 -2.84375zm1.65625 4.953125q-1.359375 0 -1.59375 -1.46875q-1.984375 1.46875 -3.4375 1.46875q-0.96875 0 -1.65625 -0.59375q-0.671875 -0.609375 -0.671875 -1.875q0 -1.265625 1.34375 -2.28125q1.34375 -1.03125 4.359375 -1.234375l0 -2.109375q0 -0.625 -0.46875 -0.96875q-0.46875 -0.34375 -1.3125 -0.34375q-0.828125 0 -1.328125 0.46875q-0.5 0.46875 -0.5 1.1875q0 0.28125 0.078125 0.609375l-0.5 0.234375q-0.453125 -0.25 -0.859375 -0.671875q-0.390625 -0.4375 -0.390625 -0.625q0 -0.203125 0.296875 -0.578125q0.3125 -0.375 0.828125 -0.796875q0.53125 -0.4375 1.40625 -0.734375q0.875 -0.3125 1.953125 -0.3125q1.09375 0 1.765625 0.53125q0.6875 0.53125 0.6875 1.9375q0 1.390625 0.125 5.875q0.03125 1.078125 0.828125 1.078125q0.328125 0 0.703125 -0.171875l0.21875 0.578125q-0.859375 0.796875 -1.875 0.796875zm6.025757 -8.515625l-0.03125 3.125q0 2.921875 0.1875 3.8125l0.046875 0.28125q0.015625 0.171875 0.5 0.3125q0.5 0.140625 0.953125 0.1875l-0.078125 0.65625q-1.078125 -0.0625 -2.484375 -0.0625q-1.40625 0 -2.5 0.0625l0.078125 -0.65625q0.421875 -0.046875 0.90625 -0.1875q0.5 -0.140625 0.515625 -0.3125q0.1875 -0.78125 0.1875 -3.171875q0 -3.84375 -0.1875 -4.703125l-1.453125 -0.4375l-0.046875 -0.578125q1.453125 0 3.0 -0.421875l0.421875 0.21875l0 1.078125q2.515625 -1.3125 4.375 -1.3125q1.140625 0 1.71875 0.453125q0.59375 0.453125 0.59375 1.703125l0 3.078125q0 2.921875 0.15625 3.8125l0.078125 0.28125q0.015625 0.171875 0.5 0.3125q0.484375 0.140625 0.9375 0.1875l-0.0625 0.65625q-1.09375 -0.0625 -2.5 -0.0625q-1.390625 0 -2.484375 0.0625l0.0625 -0.65625q0.4375 -0.046875 0.921875 -0.1875q0.484375 -0.140625 0.515625 -0.3125q0.171875 -0.78125 0.171875 -4.09375l0 -2.203125q0 -0.875 -0.515625 -1.21875q-0.515625 -0.34375 -1.765625 -0.34375q-1.25 0 -2.71875 0.640625zm19.507782 6.75q0.015625 0.34375 0.703125 0.546875q0.703125 0.203125 1.609375 0.203125q0.921875 0 1.546875 -0.078125q0.625 -0.078125 1.328125 -0.375q1.3125 -0.53125 1.984375 -2.609375l0.625 0.265625q-0.421875 1.25 -0.546875 3.609375l-8.90625 0q-1.296875 0 -2.71875 0.0625l-0.0625 -0.65625q1.15625 -0.21875 1.5625 -0.390625q0.40625 -0.1875 0.453125 -0.578125q0.203125 -1.3125 0.203125 -4.828125q0 -5.703125 -0.140625 -7.109375l-0.046875 -0.453125q-0.046875 -0.40625 -0.40625 -0.578125q-0.359375 -0.171875 -1.453125 -0.40625l0.078125 -0.65625q1.421875 0.078125 2.984375 0.078125q1.5625 0 2.984375 -0.078125l0.078125 0.65625q-1.09375 0.234375 -1.453125 0.40625q-0.359375 0.171875 -0.40625 0.578125q-0.1875 1.328125 -0.1875 4.84375q0 5.6875 0.140625 7.078125l0.046875 0.46875zm11.726013 -8.109375q-0.671875 0.0625 -1.015625 0.265625q-0.34375 0.203125 -0.34375 0.328125q0 0.125 2.40625 7.53125q2.5 -7.109375 2.5 -7.46875q0 -0.5 -1.25 -0.65625l-0.078125 -0.65625q0.78125 0.0625 1.640625 0.0625l2.3125 -0.0625l0.0625 0.65625q-1.15625 0.15625 -1.421875 0.84375q-0.984375 3.03125 -3.28125 8.828125q-1.75 4.421875 -3.34375 5.53125q-0.453125 0.3125 -0.6875 0.359375q-0.234375 0.0625 -0.46875 0.0625q-0.21875 0 -0.640625 -0.53125q-0.421875 -0.53125 -0.546875 -1.046875l0.328125 -0.4375q0.4375 0.203125 1.03125 0.203125q1.625 0 3.25 -4.140625l-0.78125 -0.46875q-1.75 -5.40625 -2.703125 -7.546875l-0.34375 -0.734375q-0.296875 -0.75 -1.375 -0.921875l-0.0625 -0.65625q1.5625 0.0625 2.390625 0.0625l2.359375 -0.0625l0.0625 0.65625zm13.139038 -0.34375l0.328125 0.15625q0 1.484375 0.125 2.25l-0.578125 0.203125q-0.296875 -1.15625 -0.828125 -1.609375q-0.53125 -0.453125 -1.359375 -0.453125q-0.8125 0 -1.296875 0.4375q-0.46875 0.421875 -0.46875 1.015625q0 1.015625 1.1875 1.671875l2.3125 1.265625q1.484375 0.84375 1.484375 2.421875q0 1.15625 -0.921875 2.015625q-0.90625 0.84375 -2.609375 0.84375q-1.6875 0 -3.484375 -0.5625q0.265625 -1.59375 0.265625 -2.609375l0.59375 -0.203125q0.203125 0.8125 0.296875 1.109375q0.109375 0.296875 0.375 0.734375q0.265625 0.421875 0.671875 0.5625q0.40625 0.125 1.1875 0.125q0.796875 0 1.3125 -0.453125q0.53125 -0.453125 0.53125 -1.078125q0 -0.953125 -1.0625 -1.546875l-2.453125 -1.359375q-1.5 -0.796875 -1.5 -2.421875q0 -1.15625 0.890625 -2.03125q0.890625 -0.890625 2.46875 -0.890625q1.59375 0 2.53125 0.40625zm7.029663 10.078125q-1.09375 -0.0625 -2.5 -0.0625q-1.390625 0 -2.484375 0.0625l0.0625 -0.65625q0.4375 -0.046875 0.921875 -0.1875q0.484375 -0.140625 0.515625 -0.3125q0.203125 -1.46875 0.203125 -5.65625q0 -6.828125 -0.140625 -7.96875l-0.046875 -0.390625l-1.453125 -0.4375l-0.03125 -0.578125q1.4375 0 2.984375 -0.40625l0.421875 0.203125q-0.03125 2.828125 -0.03125 8.359375l0 1.8125l3.625 -2.71875q0.15625 -0.140625 0.15625 -0.28125q0 -0.5 -1.359375 -0.515625l0.0625 -0.65625q1.40625 0.0625 2.40625 0.0625q1.0 0 2.375 -0.0625l0.0625 0.65625q-1.375 0.203125 -2.390625 0.921875l-2.90625 2.15625l4.34375 5.625q0.234375 0.265625 0.875 0.328125q0.125 0 0.34375 0.03125q0.234375 0.015625 0.3125 0.015625l-0.078125 0.65625q-1.28125 0 -2.921875 0.140625l-4.1875 -5.84375l-0.703125 0.515625q0.0625 2.59375 0.1875 4.03125q0.015625 0.171875 0.5 0.3125q0.484375 0.140625 0.9375 0.1875l-0.0625 0.65625zm10.307007 -13.15625q-0.34375 0.34375 -0.84375 0.34375q-0.484375 0 -0.828125 -0.34375q-0.34375 -0.359375 -0.34375 -0.875q0 -0.515625 0.34375 -0.84375q0.34375 -0.34375 0.828125 -0.34375q0.5 0 0.84375 0.34375q0.34375 0.328125 0.34375 0.84375q0 0.515625 -0.34375 0.875zm0.09375 2.90625l-0.046875 5.0q0 2.921875 0.1875 3.8125l0.046875 0.28125q0.015625 0.171875 0.5625 0.3125q0.5625 0.140625 1.046875 0.1875l-0.078125 0.65625q-1.078125 -0.0625 -2.65625 -0.0625q-1.5625 0 -2.640625 0.0625l0.0625 -0.65625q0.484375 -0.046875 1.015625 -0.1875q0.546875 -0.140625 0.578125 -0.3125q0.171875 -0.78125 0.171875 -3.171875q0 -3.84375 -0.171875 -4.703125l-1.453125 -0.4375l-0.046875 -0.578125q1.453125 0 2.984375 -0.421875l0.4375 0.21875zm3.4492188 9.234375q0 -0.5 0.359375 -0.796875q0.375 -0.3125 0.96875 -0.3125q0.609375 0 1.078125 0.578125q0.484375 0.5625 0.484375 1.46875q0 0.90625 -0.8125 1.84375q-0.8125 0.953125 -2.484375 1.5l-0.21875 -0.5q2.453125 -1.109375 2.453125 -2.984375q-0.3125 0.34375 -0.765625 0.34375q-0.453125 0 -0.765625 -0.3125q-0.296875 -0.328125 -0.296875 -0.828125zm9.871826 4.984375q-0.203125 0 -0.734375 -0.5625q-0.53125 -0.546875 -0.671875 -1.09375l0.359375 -0.453125q0.65625 0.453125 1.40625 0.453125q0.75 0 1.09375 -0.28125q0.34375 -0.28125 0.65625 -1.1875q0.5625 -1.71875 0.5625 -7.6875q0 -4.3125 -0.140625 -6.453125l-0.03125 -0.71875q-0.046875 -0.40625 -0.421875 -0.578125q-0.359375 -0.171875 -1.4375 -0.40625l0.0625 -0.65625q1.421875 0.078125 2.984375 0.078125q1.5625 0 3.0 -0.078125l0.0625 0.65625q-1.109375 0.234375 -1.5 0.40625q-0.375 0.171875 -0.421875 0.578125q-0.109375 4.21875 -0.109375 9.078125q0 2.09375 -0.5 3.859375q-0.5 1.765625 -1.25 2.8125q-0.75 1.0625 -1.546875 1.640625q-0.78125 0.59375 -1.421875 0.59375zm14.975006 -11.28125q0 -1.046875 -0.59375 -1.546875q-0.578125 -0.515625 -1.3125 -0.515625q-1.0625 0 -1.828125 0.84375q-0.765625 0.828125 -1.015625 2.0625l4.6875 -0.1875q0.0625 -0.34375 0.0625 -0.65625zm-1.96875 7.453125q-2.40625 0 -3.625 -1.359375q-1.21875 -1.375 -1.21875 -3.65625q0 -2.28125 1.34375 -3.9375q1.34375 -1.671875 4.0625 -1.671875q1.390625 0 2.421875 0.984375q1.03125 0.96875 1.03125 2.890625l-0.78125 0.921875q-0.125 -0.015625 -2.140625 -0.015625q-2.0 0 -4.015625 0.15625l0 0.203125q0 2.0625 0.859375 3.09375q0.859375 1.03125 2.34375 1.03125q1.5 0 3.15625 -0.71875l0.28125 0.671875q-1.75 1.40625 -3.71875 1.40625zm12.36795 -7.453125q0 -1.046875 -0.59375 -1.546875q-0.578125 -0.515625 -1.3125 -0.515625q-1.0625 0 -1.828125 0.84375q-0.765625 0.828125 -1.015625 2.0625l4.6875 -0.1875q0.0625 -0.34375 0.0625 -0.65625zm-1.96875 7.453125q-2.40625 0 -3.625 -1.359375q-1.21875 -1.375 -1.21875 -3.65625q0 -2.28125 1.34375 -3.9375q1.34375 -1.671875 4.0625 -1.671875q1.390625 0 2.421875 0.984375q1.03125 0.96875 1.03125 2.890625l-0.78125 0.921875q-0.125 -0.015625 -2.140625 -0.015625q-2.0 0 -4.015625 0.15625l0 0.203125q0 2.0625 0.859375 3.09375q0.859375 1.03125 2.34375 1.03125q1.5 0 3.15625 -0.71875l0.28125 0.671875q-1.75 1.40625 -3.71875 1.40625zm9.133575 0q-2.359375 0 -2.359375 -2.265625q0.015625 -2.0 0.015625 -3.65625q0 -1.671875 -0.046875 -3.484375l-1.4375 0.03125l-0.078125 -0.25l0.53125 -0.890625q0.3125 0.078125 0.953125 0.09375l-0.09375 -2.078125l1.484375 -1.34375l0.4375 0.203125q-0.046875 1.671875 -0.046875 3.203125l3.328125 -0.03125l0.125 0.28125l-0.828125 0.90625q-0.765625 -0.09375 -2.625 -0.125l0 3.046875q0 2.828125 0.0625 4.046875q0.078125 1.015625 1.203125 1.015625q0.90625 0 2.0 -0.515625l0.265625 0.75q-1.609375 1.0625 -2.890625 1.0625zm18.072632 -11.921875q-0.453125 -1.640625 -1.265625 -2.25q-0.796875 -0.625 -2.09375 -0.625q-1.28125 0 -1.96875 0.625q-0.671875 0.625 -0.671875 1.53125q0 1.46875 1.515625 2.46875l3.578125 2.328125q2.359375 1.546875 2.359375 3.65625q0 1.703125 -1.359375 2.953125q-1.34375 1.25 -3.921875 1.25q-2.578125 0 -4.5 -0.8125q0.359375 -1.859375 0.359375 -3.328125l0.609375 -0.265625q0.34375 1.859375 1.0625 2.5625q0.71875 0.703125 2.25 0.703125q1.53125 0 2.328125 -0.75q0.8125 -0.75 0.8125 -1.765625q0 -1.390625 -1.46875 -2.34375l-3.625 -2.375q-2.078125 -1.359375 -2.078125 -3.484375q0 -1.65625 1.28125 -2.859375q1.296875 -1.21875 3.375 -1.21875q0.6875 0 1.515625 0.171875q0.828125 0.15625 1.25 0.15625q0.4375 0 1.0 -0.125l0 0.34375q0 1.640625 0.265625 3.1875l-0.609375 0.265625zm7.931244 11.78125q-1.09375 -0.0625 -2.5 -0.0625q-1.390625 0 -2.484375 0.0625l0.0625 -0.65625q0.4375 -0.046875 0.921875 -0.1875q0.484375 -0.140625 0.515625 -0.3125q0.15625 -1.46875 0.15625 -5.65625q0 -6.828125 -0.140625 -7.96875l-0.046875 -0.390625l-1.4375 -0.4375l-0.046875 -0.578125q1.4375 0 2.984375 -0.40625l0.4375 0.203125q-0.046875 2.640625 -0.046875 7.21875q2.515625 -1.3125 4.53125 -1.3125q1.125 0 1.71875 0.453125q0.59375 0.453125 0.59375 1.703125l0 3.078125q0 2.921875 0.171875 3.8125l0.046875 0.28125q0.03125 0.171875 0.515625 0.3125q0.484375 0.140625 0.9375 0.1875l-0.0625 0.65625q-1.09375 -0.0625 -2.5 -0.0625q-1.40625 0 -2.484375 0.0625l0.0625 -0.65625q0.421875 -0.046875 0.90625 -0.1875q0.5 -0.140625 0.515625 -0.3125q0.1875 -0.78125 0.1875 -4.09375l0 -2.203125q0 -0.875 -0.53125 -1.21875q-0.515625 -0.34375 -1.25 -0.34375q-0.71875 0 -1.15625 0.0625q-0.4375 0.0625 -0.796875 0.140625q-0.90625 0.25 -1.1875 0.375l-0.21875 0.0625q0 6.734375 0.25 7.21875q0.015625 0.171875 0.5 0.3125q0.484375 0.140625 0.9375 0.1875l-0.0625 0.65625zm13.845276 -4.8125q-1.859375 0.03125 -2.84375 0.703125q-0.96875 0.65625 -0.96875 1.421875q0 0.765625 0.390625 1.125q0.40625 0.34375 1.28125 0.34375q0.890625 0 2.140625 -0.75l0 -2.84375zm1.65625 4.953125q-1.359375 0 -1.59375 -1.46875q-1.984375 1.46875 -3.4375 1.46875q-0.96875 0 -1.65625 -0.59375q-0.671875 -0.609375 -0.671875 -1.875q0 -1.265625 1.34375 -2.28125q1.34375 -1.03125 4.359375 -1.234375l0 -2.109375q0 -0.625 -0.46875 -0.96875q-0.46875 -0.34375 -1.3125 -0.34375q-0.828125 0 -1.328125 0.46875q-0.5 0.46875 -0.5 1.1875q0 0.28125 0.078125 0.609375l-0.5 0.234375q-0.453125 -0.25 -0.859375 -0.671875q-0.390625 -0.4375 -0.390625 -0.625q0 -0.203125 0.296875 -0.578125q0.3125 -0.375 0.828125 -0.796875q0.53125 -0.4375 1.40625 -0.734375q0.875 -0.3125 1.953125 -0.3125q1.09375 0 1.765625 0.53125q0.6875 0.53125 0.6875 1.9375q0 1.390625 0.125 5.875q0.03125 1.078125 0.828125 1.078125q0.328125 0 0.703125 -0.171875l0.21875 0.578125q-0.859375 0.796875 -1.875 0.796875zm7.494507 -0.140625q-1.09375 -0.0625 -2.5 -0.0625q-1.390625 0 -2.484375 0.0625l0.0625 -0.65625q0.4375 -0.046875 0.921875 -0.1875q0.484375 -0.140625 0.515625 -0.3125q0.15625 -1.46875 0.15625 -5.65625q0 -6.828125 -0.140625 -7.96875l-0.046875 -0.390625l-1.4375 -0.4375l-0.046875 -0.578125q1.4375 0 2.984375 -0.40625l0.4375 0.203125q-0.046875 2.640625 -0.046875 7.21875q2.515625 -1.3125 4.53125 -1.3125q1.125 0 1.71875 0.453125q0.59375 0.453125 0.59375 1.703125l0 3.078125q0 2.921875 0.171875 3.8125l0.046875 0.28125q0.03125 0.171875 0.515625 0.3125q0.484375 0.140625 0.9375 0.1875l-0.0625 0.65625q-1.09375 -0.0625 -2.5 -0.0625q-1.40625 0 -2.484375 0.0625l0.0625 -0.65625q0.421875 -0.046875 0.90625 -0.1875q0.5 -0.140625 0.515625 -0.3125q0.1875 -0.78125 0.1875 -4.09375l0 -2.203125q0 -0.875 -0.53125 -1.21875q-0.515625 -0.34375 -1.25 -0.34375q-0.71875 0 -1.15625 0.0625q-0.4375 0.0625 -0.796875 0.140625q-0.90625 0.25 -1.1875 0.375l-0.21875 0.0625q0 6.734375 0.25 7.21875q0.015625 0.171875 0.5 0.3125q0.484375 0.140625 0.9375 0.1875l-0.0625 0.65625zm8.548401 -1.015625q0 -0.5 0.359375 -0.796875q0.375 -0.3125 0.96875 -0.3125q0.609375 0 1.078125 0.578125q0.484375 0.5625 0.484375 1.46875q0 0.90625 -0.8125 1.84375q-0.8125 0.953125 -2.484375 1.5l-0.21875 -0.5q2.453125 -1.109375 2.453125 -2.984375q-0.3125 0.34375 -0.765625 0.34375q-0.453125 0 -0.765625 -0.3125q-0.296875 -0.328125 -0.296875 -0.828125zm9.731262 -14.703125q1.859375 0.140625 6.75 0.140625q4.90625 0 6.765625 -0.140625l0 0.34375q0 1.78125 0.265625 3.328125l-0.609375 0.265625q-0.59375 -1.859375 -1.40625 -2.34375q-0.8125 -0.5 -3.078125 -0.5q-0.6875 0 -0.75 0.609375q-0.1875 1.328125 -0.1875 4.84375q0 5.6875 0.140625 7.078125l0.046875 0.46875q0.046875 0.40625 0.421875 0.578125q0.390625 0.171875 1.5 0.390625l-0.0625 0.65625q-1.4375 -0.0625 -3.109375 -0.0625q-1.671875 0 -3.109375 0.0625l-0.0625 -0.65625q1.15625 -0.21875 1.5625 -0.390625q0.40625 -0.1875 0.453125 -0.578125q0.1875 -1.34375 0.1875 -4.84375q0 -5.6875 -0.140625 -7.09375l-0.046875 -0.453125q-0.0625 -0.609375 -0.703125 -0.609375q-2.265625 0 -3.078125 0.5q-0.8125 0.484375 -1.40625 2.34375l-0.609375 -0.265625q0.265625 -1.546875 0.265625 -3.328125l0 -0.34375zm18.014038 2.5625q-0.34375 0.34375 -0.84375 0.34375q-0.484375 0 -0.828125 -0.34375q-0.34375 -0.359375 -0.34375 -0.875q0 -0.515625 0.34375 -0.84375q0.34375 -0.34375 0.828125 -0.34375q0.5 0 0.84375 0.34375q0.34375 0.328125 0.34375 0.84375q0 0.515625 -0.34375 0.875zm0.09375 2.90625l-0.046875 5.0q0 2.921875 0.1875 3.8125l0.046875 0.28125q0.015625 0.171875 0.5625 0.3125q0.5625 0.140625 1.046875 0.1875l-0.078125 0.65625q-1.078125 -0.0625 -2.65625 -0.0625q-1.5625 0 -2.640625 0.0625l0.0625 -0.65625q0.484375 -0.046875 1.015625 -0.1875q0.546875 -0.140625 0.578125 -0.3125q0.171875 -0.78125 0.171875 -3.171875q0 -3.84375 -0.171875 -4.703125l-1.453125 -0.4375l-0.046875 -0.578125q1.453125 0 2.984375 -0.421875l0.4375 0.21875zm12.558594 5.0q0 2.921875 0.15625 3.8125l0.0625 0.28125q0.015625 0.171875 0.5 0.3125q0.5 0.140625 0.953125 0.1875l-0.078125 0.65625q-1.078125 -0.0625 -2.484375 -0.0625q-1.40625 0 -2.5 0.0625l0.078125 -0.65625q0.421875 -0.046875 0.90625 -0.1875q0.5 -0.140625 0.515625 -0.3125q0.1875 -0.78125 0.1875 -4.09375l0 -2.203125q0 -0.875 -0.53125 -1.21875q-0.515625 -0.34375 -1.25 -0.34375q-0.71875 0 -1.125 0.0625q-0.40625 0.0625 -0.71875 0.140625q-0.4375 0.125 -1.1875 0.4375l0 3.125q0 2.8125 0.1875 3.8125l0.0625 0.28125q0.03125 0.171875 0.515625 0.3125q0.484375 0.140625 0.9375 0.1875l-0.0625 0.65625q-1.09375 -0.0625 -2.5 -0.0625q-1.40625 0 -2.484375 0.0625l0.0625 -0.65625q0.4375 -0.046875 0.921875 -0.1875q0.484375 -0.140625 0.5 -0.3125q0.171875 -0.78125 0.171875 -3.171875q0 -3.84375 -0.1875 -4.703125l-1.453125 -0.4375l-0.046875 -0.578125q1.453125 0 3.0 -0.421875l0.421875 0.21875q-0.015625 0.5625 -0.015625 1.078125q2.515625 -1.3125 4.28125 -1.3125q1.765625 0 2.109375 1.34375q2.375 -1.34375 4.296875 -1.34375q1.1405945 0 1.7187195 0.453125q0.59375 0.453125 0.59375 1.703125l0 3.078125q0 2.921875 0.15625 3.8125l0.078125 0.28125q0.015625 0.171875 0.5 0.3125q0.484375 0.140625 0.9375 0.1875l-0.0625 0.65625q-1.09375 -0.0625 -2.5 -0.0625q-1.3905945 0 -2.4843445 0.0625l0.0625 -0.65625q0.4375 -0.046875 0.921875 -0.1875q0.484375 -0.140625 0.515625 -0.3125q0.17184448 -0.78125 0.17184448 -4.09375l0 -2.203125q0 -0.875 -0.5155945 -1.21875q-0.515625 -0.34375 -1.84375 -0.34375q-1.328125 0 -2.453125 0.640625l0 3.125zm18.665558 -6.734375q-0.234375 5.671875 -0.234375 7.984375l0.078125 2.375q0.0625 0.546875 1.1875 0.796875q0.28125 0.046875 0.9375 0.171875l-0.0625 0.65625q-1.4375 -0.0625 -3.109375 -0.0625q-1.671875 0 -2.625 0.0625l-0.078125 -0.65625q1.09375 -0.21875 1.5 -0.390625q0.40625 -0.1875 0.453125 -0.578125q0.453125 -3.671875 0.453125 -9.375l-0.09375 -3.015625q-0.046875 -0.40625 -0.40625 -0.578125q-0.359375 -0.171875 -1.453125 -0.40625l0.078125 -0.65625q1.421875 0.078125 3.9375 0.078125l5.390625 13.359375l5.390625 -13.359375q2.578125 0 4.015625 -0.078125l0.0625 0.65625q-1.078125 0.234375 -1.453125 0.40625q-0.359375 0.171875 -0.4375 0.609375q-0.0625 0.421875 -0.0625 1.484375q0 1.0625 0.125 4.6875q0.21875 4.484375 0.359375 5.75l0.046875 0.4375q0.046875 0.40625 0.421875 0.578125q0.390625 0.171875 1.5 0.390625l-0.0625 0.65625q-1.4375 -0.0625 -3.109375 -0.0625q-1.671875 0 -3.109375 0.0625l-0.0625 -0.65625q1.171875 -0.21875 1.59375 -0.390625q0.421875 -0.1875 0.421875 -0.578125q0.03125 -0.75 0.03125 -3.21875q0 -2.46875 -0.296875 -7.140625l-0.140625 0l-4.84375 11.90625l-1.40625 0.234375l-4.84375 -12.140625l-0.09375 0zm24.865051 10.625q-1.875 1.5 -4.09375 1.5q-2.21875 0 -3.421875 -1.40625q-1.203125 -1.40625 -1.203125 -3.65625q0 -2.25 1.390625 -3.90625q1.40625 -1.65625 3.890625 -1.65625q1.015625 0 1.8125 0.328125q0.8125 0.328125 1.15625 0.671875q0.34375 0.34375 0.34375 0.546875q0 0.90625 -0.546875 1.640625l-0.546875 0q-0.265625 -0.734375 -0.921875 -1.34375q-0.640625 -0.625 -1.65625 -0.625q-1.40625 0 -2.171875 1.265625q-0.75 1.25 -0.75 3.078125q0 1.828125 0.875 2.78125q0.890625 0.953125 2.46875 0.953125q1.59375 0 3.109375 -0.90625l0.265625 0.734375zm9.724182 0.453125q2.125 0 3.484375 -0.859375q1.359375 -0.875 1.8125 -2.375l0.625 0.265625q-0.25 0.828125 -0.53125 3.046875q-2.78125 1.03125 -5.453125 1.03125q-3.71875 0 -5.890625 -2.015625q-2.171875 -2.03125 -2.171875 -5.625q0 -3.609375 2.140625 -5.96875q2.15625 -2.375 5.890625 -2.375q1.046875 0 2.328125 0.171875q1.296875 0.15625 1.765625 0.15625q0.484375 0 1.03125 -0.125l0 0.34375q0 1.640625 0.265625 3.1875l-0.609375 0.265625q-0.90625 -2.96875 -4.796875 -2.96875q-2.265625 0 -3.90625 1.609375q-0.8125 0.796875 -1.28125 2.109375q-0.453125 1.3125 -0.453125 2.828125q0 1.5 0.3125 2.734375q0.3125 1.21875 0.96875 2.265625q0.671875 1.03125 1.8125 1.671875q1.15625 0.625 2.65625 0.625zm13.234375 -3.90625q-1.859375 0.03125 -2.84375 0.703125q-0.96875 0.65625 -0.96875 1.421875q0 0.765625 0.390625 1.125q0.40625 0.34375 1.28125 0.34375q0.890625 0 2.140625 -0.75l0 -2.84375zm1.65625 4.953125q-1.359375 0 -1.59375 -1.46875q-1.984375 1.46875 -3.4375 1.46875q-0.96875 0 -1.65625 -0.59375q-0.671875 -0.609375 -0.671875 -1.875q0 -1.265625 1.34375 -2.28125q1.34375 -1.03125 4.359375 -1.234375l0 -2.109375q0 -0.625 -0.46875 -0.96875q-0.46875 -0.34375 -1.3125 -0.34375q-0.828125 0 -1.328125 0.46875q-0.5 0.46875 -0.5 1.1875q0 0.28125 0.078125 0.609375l-0.5 0.234375q-0.453125 -0.25 -0.859375 -0.671875q-0.390625 -0.4375 -0.390625 -0.625q0 -0.203125 0.296875 -0.578125q0.3125 -0.375 0.828125 -0.796875q0.53125 -0.4375 1.40625 -0.734375q0.875 -0.3125 1.953125 -0.3125q1.09375 0 1.765625 0.53125q0.6875 0.53125 0.6875 1.9375q0 1.390625 0.125 5.875q0.03125 1.078125 0.828125 1.078125q0.328125 0 0.703125 -0.171875l0.21875 0.578125q-0.859375 0.796875 -1.875 0.796875zm7.760071 -1.046875q1.640625 0 2.59375 -1.3125q0.953125 -1.328125 0.953125 -2.984375q0 -1.671875 -0.828125 -2.78125q-0.8125 -1.125 -2.28125 -1.125q-1.109314 0 -2.531189 0.734375q0 5.453125 0.203125 7.09375q0.984375 0.375 1.890564 0.375zm-2.093689 -8.265625q1.874939 -1.296875 3.624939 -1.296875q1.765625 0 2.890625 1.53125q1.140625 1.53125 1.140625 3.6875q0 2.15625 -1.484375 3.78125q-1.46875 1.625 -4.296875 1.625q-1.874939 0 -3.765564 -0.78125q0.1875 -2.0 0.1875 -6.1875q0 -6.828125 -0.140625 -7.96875l-0.046875 -0.390625l-1.453125 -0.4375l-0.03125 -0.578125q1.4375 0 2.984375 -0.40625l0.4375 0.203125q-0.046875 2.515625 -0.046875 7.21875zm16.237427 1.859375q0 -1.046875 -0.59375 -1.546875q-0.578125 -0.515625 -1.3125 -0.515625q-1.0625 0 -1.828125 0.84375q-0.765625 0.828125 -1.015625 2.0625l4.6875 -0.1875q0.0625 -0.34375 0.0625 -0.65625zm-1.96875 7.453125q-2.40625 0 -3.625 -1.359375q-1.21875 -1.375 -1.21875 -3.65625q0 -2.28125 1.34375 -3.9375q1.34375 -1.671875 4.0625 -1.671875q1.390625 0 2.421875 0.984375q1.03125 0.96875 1.03125 2.890625l-0.78125 0.921875q-0.125 -0.015625 -2.140625 -0.015625q-2.0 0 -4.015625 0.15625l0 0.203125q0 2.0625 0.859375 3.09375q0.859375 1.03125 2.34375 1.03125q1.5 0 3.15625 -0.71875l0.28125 0.671875q-1.75 1.40625 -3.71875 1.40625zm6.008606 -1.15625q0 -0.5 0.359375 -0.796875q0.375 -0.3125 0.96875 -0.3125q0.609375 0 1.078125 0.578125q0.484375 0.5625 0.484375 1.46875q0 0.90625 -0.8125 1.84375q-0.8125 0.953125 -2.484375 1.5l-0.21875 -0.5q2.453125 -1.109375 2.453125 -2.984375q-0.3125 0.34375 -0.765625 0.34375q-0.453125 0 -0.765625 -0.3125q-0.296875 -0.328125 -0.296875 -0.828125zm13.137451 -14.5625l4.03125 0q2.625 0 4.6875 1.015625q2.296875 1.171875 3.171875 3.4375q0.5 1.25 0.5 2.796875q0 3.640625 -2.25 5.953125q-2.234375 2.3125 -6.5 2.3125l-3.640625 0q-1.765625 0 -3.203125 0.0625l-0.0625 -0.65625q1.15625 -0.21875 1.5625 -0.390625q0.40625 -0.1875 0.453125 -0.578125q0.1875 -1.34375 0.1875 -4.84375q0 -5.6875 -0.140625 -7.09375l-0.046875 -0.453125q-0.046875 -0.40625 -0.40625 -0.578125q-0.359375 -0.171875 -1.453125 -0.40625l0.078125 -0.65625q1.421875 0.078125 3.03125 0.078125zm1.21875 14.15625q1.21875 0.265625 2.59375 0.265625q1.390625 0 2.640625 -0.546875q1.25 -0.5625 1.90625 -1.3125q0.65625 -0.765625 1.046875 -1.796875q0.609375 -1.546875 0.609375 -3.171875q0 -6.640625 -7.390625 -6.640625q-0.8125 0 -1.078125 0.09375q-0.265625 0.078125 -0.328125 0.375q-0.25 1.46875 -0.25 4.984375q0 5.46875 0.1875 7.234375l0.0625 0.515625zm19.516357 -9.203125q0.171875 0 0.59375 0.53125q0.421875 0.53125 0.546875 1.0625l-0.328125 0.421875q-0.8125 -0.3125 -1.703125 -0.3125q-0.890625 0 -1.609375 0.734375q-0.71875 0.734375 -0.71875 2.375q0.015625 3.984375 0.203125 4.640625q0.015625 0.1875 0.640625 0.328125q0.625 0.140625 1.296875 0.1875l-0.0625 0.65625q-1.09375 -0.0625 -2.765625 -0.0625q-1.65625 0 -2.734375 0.0625l0.0625 -0.65625q0.453125 -0.046875 0.953125 -0.1875q0.5 -0.140625 0.515625 -0.3125q0.1875 -0.78125 0.1875 -3.171875q0 -3.84375 -0.1875 -4.703125l-1.453125 -0.4375l-0.03125 -0.578125q1.4375 0 2.984375 -0.421875l0.4375 0.21875q-0.046875 0.328125 -0.046875 1.84375q0.65625 -1.078125 1.65625 -1.640625q1.015625 -0.578125 1.5625 -0.578125zm4.010132 10.421875q-0.34375 0.34375 -0.84375 0.34375q-0.5 0 -0.84375 -0.34375q-0.34375 -0.359375 -0.34375 -0.875q0 -0.53125 0.34375 -0.859375q0.34375 -0.34375 0.84375 -0.34375q0.5 0 0.84375 0.34375q0.359375 0.328125 0.359375 0.859375q0 0.515625 -0.359375 0.875zm12.355469 0.203125q-1.421875 -0.0625 -2.796875 -0.0625q-1.359375 0 -2.796875 0.0625l-0.0625 -0.65625q1.046875 -0.203125 1.46875 -0.4375q0.4375 -0.234375 0.5625 -0.671875l4.515625 -13.796875l1.96875 -0.21875l5.28125 14.15625q0.15625 0.390625 0.53125 0.578125q0.375 0.1875 1.390625 0.390625l-0.0625 0.65625q-1.421875 -0.0625 -3.109375 -0.0625q-1.671875 0 -3.09375 0.0625l-0.078125 -0.65625q1.609375 -0.3125 1.859375 -0.578125q0.140625 -0.125 0.140625 -0.25q0 -0.125 -1.25 -4.0625l-5.125 0l-1.21875 4.03125q0 0.296875 0.453125 0.484375q0.453125 0.171875 1.5 0.375l-0.078125 0.65625zm1.8125 -13.421875l-0.078125 0q-0.15625 0.53125 -0.40625 1.296875q-0.234375 0.75 -0.71875 2.359375q-0.46875 1.59375 -0.9375 3.171875l4.4375 0l-2.296875 -6.828125zm12.223389 -2.96875q-0.046875 2.828125 -0.046875 8.296875q0 5.453125 0.25 6.9375q0.015625 0.171875 0.578125 0.328125q0.578125 0.15625 1.0 0.171875l-0.0625 0.65625q-1.09375 -0.0625 -2.640625 -0.0625q-1.53125 0 -2.609375 0.0625l0.0625 -0.65625q0.46875 -0.046875 1.0 -0.1875q0.53125 -0.140625 0.5625 -0.3125q0.15625 -1.46875 0.15625 -5.65625q0 -6.828125 -0.140625 -7.96875l-0.046875 -0.390625l-1.4375 -0.4375l-0.046875 -0.578125q1.453125 0 2.984375 -0.40625l0.4375 0.203125zm6.1781006 3.234375q-0.34375 0.34375 -0.84375 0.34375q-0.484375 0 -0.828125 -0.34375q-0.34375 -0.359375 -0.34375 -0.875q0 -0.515625 0.34375 -0.84375q0.34375 -0.34375 0.828125 -0.34375q0.5 0 0.84375 0.34375q0.34375 0.328125 0.34375 0.84375q0 0.515625 -0.34375 0.875zm0.09375 2.90625l-0.046875 5.0q0 2.921875 0.1875 3.8125l0.046875 0.28125q0.015625 0.171875 0.5625 0.3125q0.5625 0.140625 1.046875 0.1875l-0.078125 0.65625q-1.078125 -0.0625 -2.65625 -0.0625q-1.5625 0 -2.640625 0.0625l0.0625 -0.65625q0.484375 -0.046875 1.015625 -0.1875q0.546875 -0.140625 0.578125 -0.3125q0.171875 -0.78125 0.171875 -3.171875q0 -3.84375 -0.171875 -4.703125l-1.453125 -0.4375l-0.046875 -0.578125q1.453125 0 2.984375 -0.421875l0.4375 0.21875zm12.238281 -1.734375q-0.234375 5.671875 -0.234375 7.984375l0.078125 2.375q0.0625 0.546875 1.1875 0.796875q0.28125 0.046875 0.9375 0.171875l-0.0625 0.65625q-1.4375 -0.0625 -3.109375 -0.0625q-1.671875 0 -2.625 0.0625l-0.078125 -0.65625q1.09375 -0.21875 1.5 -0.390625q0.40625 -0.1875 0.453125 -0.578125q0.453125 -3.671875 0.453125 -9.375l-0.09375 -3.015625q-0.046875 -0.40625 -0.40625 -0.578125q-0.359375 -0.171875 -1.453125 -0.40625l0.078125 -0.65625q1.421875 0.078125 3.9375 0.078125l5.390625 13.359375l5.390625 -13.359375q2.578125 0 4.015625 -0.078125l0.0625 0.65625q-1.078125 0.234375 -1.453125 0.40625q-0.359375 0.171875 -0.4375 0.609375q-0.0625 0.421875 -0.0625 1.484375q0 1.0625 0.125 4.6875q0.21875 4.484375 0.359375 5.75l0.046875 0.4375q0.046875 0.40625 0.421875 0.578125q0.390625 0.171875 1.5 0.390625l-0.0625 0.65625q-1.4375 -0.0625 -3.109375 -0.0625q-1.671875 0 -3.109375 0.0625l-0.0625 -0.65625q1.171875 -0.21875 1.59375 -0.390625q0.421875 -0.1875 0.421875 -0.578125q0.03125 -0.75 0.03125 -3.21875q0 -2.46875 -0.296875 -7.140625l-0.140625 0l-4.84375 11.90625l-1.40625 0.234375l-4.84375 -12.140625l-0.09375 0zm20.451538 -1.171875q-0.34375 0.34375 -0.84375 0.34375q-0.484375 0 -0.828125 -0.34375q-0.34375 -0.359375 -0.34375 -0.875q0 -0.515625 0.34375 -0.84375q0.34375 -0.34375 0.828125 -0.34375q0.5 0 0.84375 0.34375q0.34375 0.328125 0.34375 0.84375q0 0.515625 -0.34375 0.875zm0.09375 2.90625l-0.046875 5.0q0 2.921875 0.1875 3.8125l0.046875 0.28125q0.015625 0.171875 0.5625 0.3125q0.5625 0.140625 1.046875 0.1875l-0.078125 0.65625q-1.078125 -0.0625 -2.65625 -0.0625q-1.5625 0 -2.640625 0.0625l0.0625 -0.65625q0.484375 -0.046875 1.015625 -0.1875q0.546875 -0.140625 0.578125 -0.3125q0.171875 -0.78125 0.171875 -3.171875q0 -3.84375 -0.171875 -4.703125l-1.453125 -0.4375l-0.046875 -0.578125q1.453125 0 2.984375 -0.421875l0.4375 0.21875zm6.0742188 1.875l-0.03125 3.125q0 2.921875 0.1875 3.8125l0.046875 0.28125q0.015625 0.171875 0.5 0.3125q0.5 0.140625 0.953125 0.1875l-0.078125 0.65625q-1.078125 -0.0625 -2.484375 -0.0625q-1.40625 0 -2.5 0.0625l0.078125 -0.65625q0.421875 -0.046875 0.90625 -0.1875q0.5 -0.140625 0.515625 -0.3125q0.1875 -0.78125 0.1875 -3.171875q0 -3.84375 -0.1875 -4.703125l-1.453125 -0.4375l-0.046875 -0.578125q1.453125 0 3.0 -0.421875l0.421875 0.21875l0 1.078125q2.515625 -1.3125 4.375 -1.3125q1.140625 0 1.71875 0.453125q0.59375 0.453125 0.59375 1.703125l0 3.078125q0 2.921875 0.15625 3.8125l0.078125 0.28125q0.015625 0.171875 0.5 0.3125q0.484375 0.140625 0.9375 0.1875l-0.0625 0.65625q-1.09375 -0.0625 -2.5 -0.0625q-1.390625 0 -2.484375 0.0625l0.0625 -0.65625q0.4375 -0.046875 0.921875 -0.1875q0.484375 -0.140625 0.515625 -0.3125q0.171875 -0.78125 0.171875 -4.09375l0 -2.203125q0 -0.875 -0.515625 -1.21875q-0.515625 -0.34375 -1.765625 -0.34375q-1.25 0 -2.71875 0.640625zm15.359375 3.5625q-1.859375 0.03125 -2.84375 0.703125q-0.96875 0.65625 -0.96875 1.421875q0 0.765625 0.390625 1.125q0.40625 0.34375 1.28125 0.34375q0.890625 0 2.140625 -0.75l0 -2.84375zm1.65625 4.953125q-1.359375 0 -1.59375 -1.46875q-1.984375 1.46875 -3.4375 1.46875q-0.96875 0 -1.65625 -0.59375q-0.671875 -0.609375 -0.671875 -1.875q0 -1.265625 1.34375 -2.28125q1.34375 -1.03125 4.359375 -1.234375l0 -2.109375q0 -0.625 -0.46875 -0.96875q-0.46875 -0.34375 -1.3125 -0.34375q-0.828125 0 -1.328125 0.46875q-0.5 0.46875 -0.5 1.1875q0 0.28125 0.078125 0.609375l-0.5 0.234375q-0.453125 -0.25 -0.859375 -0.671875q-0.390625 -0.4375 -0.390625 -0.625q0 -0.203125 0.296875 -0.578125q0.3125 -0.375 0.828125 -0.796875q0.53125 -0.4375 1.40625 -0.734375q0.875 -0.3125 1.953125 -0.3125q1.09375 0 1.765625 0.53125q0.6875 0.53125 0.6875 1.9375q0 1.390625 0.125 5.875q0.03125 1.078125 0.828125 1.078125q0.328125 0 0.703125 -0.171875l0.21875 0.578125q-0.859375 0.796875 -1.875 0.796875zm6.088257 -13.296875q-0.34375 0.34375 -0.84375 0.34375q-0.484375 0 -0.828125 -0.34375q-0.34375 -0.359375 -0.34375 -0.875q0 -0.515625 0.34375 -0.84375q0.34375 -0.34375 0.828125 -0.34375q0.5 0 0.84375 0.34375q0.34375 0.328125 0.34375 0.84375q0 0.515625 -0.34375 0.875zm0.09375 2.90625l-0.046875 5.0q0 2.921875 0.1875 3.8125l0.046875 0.28125q0.015625 0.171875 0.5625 0.3125q0.5625 0.140625 1.046875 0.1875l-0.078125 0.65625q-1.078125 -0.0625 -2.65625 -0.0625q-1.5625 0 -2.640625 0.0625l0.0625 -0.65625q0.484375 -0.046875 1.015625 -0.1875q0.546875 -0.140625 0.578125 -0.3125q0.171875 -0.78125 0.171875 -3.171875q0 -3.84375 -0.171875 -4.703125l-1.453125 -0.4375l-0.046875 -0.578125q1.453125 0 2.984375 -0.421875l0.4375 0.21875z" fill-rule="nonzero"/></g></svg>