<svg version="1.1" viewBox="0.0 0.0 960.0 540.0" fill="none" stroke="none" stroke-linecap="square" stroke-miterlimit="10" xmlns:xlink="http://www.w3.org/1999/xlink" xmlns="http://www.w3.org/2000/svg"><clipPath id="p.0"><path d="m0 0l960.0 0l0 540.0l-960.0 0l0 -540.0z" clip-rule="nonzero"/></clipPath><g clip-path="url(#p.0)"><path fill="#e9edee" d="m0 0l960.0 0l0 540.0l-960.0 0z" fill-rule="evenodd"/><path fill="#ffffff" d="m0 0l960.0 0l0 51.212597l-960.0 0z" fill-rule="evenodd"/><path fill="#eb5600" d="m126.33025 129.87735l0 -4.8111496l39.145332 0l0 4.8111496z" fill-rule="evenodd"/><path fill="#1a9988" d="m87.18024 129.87735l0 -4.8111496l39.476326 0l0 4.8111496z" fill-rule="evenodd"/><path fill="#000000" fill-opacity="0.0" d="m76.58268 138.83989l807.1496 0l0 174.77165l-807.1496 0z" fill-rule="evenodd"/><path fill="#1a1a1a" d="m103.33268 161.95927l7.171875 0l4.53125 13.15625l4.59375 -13.15625l7.109375 0l-6.828125 18.078125l5.046875 12.65625l11.249992 -30.859375l8.40625 0l-15.90625 39.765625l-6.6718674 0l-7.0 -16.6875l-6.9375 16.6875l-6.671875 0l-15.84375 -39.765625l8.28125 0l11.3125 30.859375l4.9375 -12.65625l-6.78125 -18.078125zm39.37623 30.953125q0 -2.84375 1.59375 -5.0q1.59375 -2.15625 4.4375 -3.328125q2.859375 -1.1875 6.5625 -1.1875q1.84375 0 3.75 0.28125q1.90625 0.28125 3.3125 0.890625l0 -1.5625q0 -2.796875 -1.65625 -4.3125q-1.65625 -1.515625 -4.90625 -1.515625q-2.40625 0 -4.59375 0.84375q-2.171875 0.84375 -4.59375 2.46875l-2.40625 -4.9375q2.921875 -1.890625 5.96875 -2.84375q3.046875 -0.953125 6.40625 -0.953125q6.28125 0 9.78125 3.140625q3.5 3.125 3.5 8.953125l0 9.34375q0 1.1875 0.421875 1.6875q0.421875 0.5 1.375 0.609375l0 6.109375q-1.015625 0.171875 -1.828125 0.28125q-0.8125 0.109375 -1.375 0.109375q-2.234375 0 -3.390625 -1.0q-1.140625 -1.015625 -1.421875 -2.46875l-0.171875 -1.515625q-1.90625 2.46875 -4.765625 3.8125q-2.84375 1.34375 -5.8125 1.34375q-2.90625 0 -5.234375 -1.203125q-2.328125 -1.203125 -3.640625 -3.296875q-1.3125 -2.109375 -1.3125 -4.75zm18.25 1.515625q0.609375 -0.671875 1.0 -1.34375q0.40625 -0.671875 0.40625 -1.234375l0 -2.96875q-1.34375 -0.546875 -2.921875 -0.859375q-1.5625 -0.3125 -2.96875 -0.3125q-2.90625 0 -4.78125 1.265625q-1.875 1.25 -1.875 3.328125q0 1.125 0.609375 2.140625q0.625 1.0 1.796875 1.625q1.171875 0.609375 2.796875 0.609375q1.6875 0 3.296875 -0.640625q1.625 -0.65625 2.640625 -1.609375zm15.847122 -33.703125l7.5 0l0 31.46875q0 2.015625 0.671875 2.71875q0.671875 0.703125 1.859375 0.703125q0.890625 0 1.84375 -0.21875q0.953125 -0.234375 1.671875 -0.578125l1.015625 5.71875q-1.515625 0.71875 -3.53125 1.109375q-2.015625 0.40625 -3.640625 0.40625q-3.53125 0 -5.46875 -1.875q-1.921875 -1.875 -1.921875 -5.359375l0 -34.09375zm37.861374 40.875l-8.578125 -12.65625l-3.96875 3.921875l0 8.734375l-7.5 0l0 -40.875l7.5 0l0 24.75l11.8125 -13.15625l7.953125 0l-10.921875 12.421875l11.703125 16.859375l-8.0 0zm8.397247 -11.984375l0 -6.78125l16.96875 0l0 6.78125l-16.96875 0zm41.158005 10.46875q-0.953125 0.390625 -2.296875 0.90625q-1.34375 0.5 -2.890625 0.796875q-1.53125 0.3125 -3.09375 0.3125q-2.078125 0 -3.8125 -0.71875q-1.734375 -0.734375 -2.78125 -2.328125q-1.03125 -1.59375 -1.03125 -4.171875l0 -16.859375l-3.859375 0l0 -5.765625l3.859375 0l0 -9.515625l7.5 0l0 9.515625l6.171875 0l0 5.765625l-6.171875 0l0 14.34375q0.0625 1.5 0.84375 2.171875q0.78125 0.671875 1.96875 0.671875q1.171875 0 2.28125 -0.390625q1.125 -0.390625 1.796875 -0.671875l1.515625 5.9375zm31.191498 1.515625l-7.5 0l0 -16.46875q0 -3.40625 -1.328125 -5.078125q-1.3125 -1.6875 -3.609375 -1.6875q-1.34375 0 -2.859375 0.78125q-1.5 0.78125 -2.703125 2.15625q-1.203125 1.375 -1.765625 3.15625l0 17.140625l-7.5 0l0 -40.875l7.5 0l0 16.96875q1.625 -2.8125 4.421875 -4.375q2.796875 -1.5625 6.109375 -1.5625q2.84375 0 4.640625 0.984375q1.796875 0.96875 2.796875 2.625q1.015625 1.65625 1.40625 3.703125q0.390625 2.03125 0.390625 4.21875l0 18.3125zm24.02713 -22.84375q-3.421875 0 -6.109375 1.3125q-2.6875 1.3125 -3.859375 3.78125l0 17.75l-7.5 0l0 -29.34375l6.875 0l0 6.265625q1.578125 -3.015625 3.984375 -4.75q2.40625 -1.734375 5.09375 -1.90625q0.609375 0 0.9375 0q0.34375 0 0.578125 0.046875l0 6.84375zm17.358124 23.40625q-3.578125 0 -6.4375 -1.203125q-2.859375 -1.203125 -4.84375 -3.328125q-1.984375 -2.140625 -3.0625 -4.875q-1.0625 -2.75 -1.0625 -5.765625q0 -3.09375 1.0625 -5.828125q1.078125 -2.75 3.0625 -4.875q1.984375 -2.125 4.84375 -3.328125q2.859375 -1.203125 6.4375 -1.203125q3.578125 0 6.40625 1.203125q2.828125 1.203125 4.84375 3.328125q2.015625 2.125 3.046875 4.875q1.046875 2.734375 1.046875 5.828125q0 3.015625 -1.046875 5.765625q-1.03125 2.734375 -3.015625 4.875q-1.984375 2.125 -4.84375 3.328125q-2.859375 1.203125 -6.4375 1.203125zm-7.671875 -15.171875q0 2.5625 1.0 4.5625q1.015625 1.984375 2.75 3.109375q1.734375 1.109375 3.921875 1.109375q2.125 0 3.859375 -1.140625q1.734375 -1.15625 2.765625 -3.140625q1.046875 -1.984375 1.046875 -4.5625q0 -2.515625 -1.046875 -4.53125q-1.03125 -2.015625 -2.765625 -3.140625q-1.734375 -1.125 -3.859375 -1.125q-2.1875 0 -3.921875 1.15625q-1.734375 1.140625 -2.75 3.140625q-1.0 1.984375 -1.0 4.5625zm27.779724 3.640625l0 -18.375l7.5 0l0 16.75q0 3.359375 1.234375 5.0625q1.234375 1.703125 3.640625 1.703125q1.453125 0 2.875 -0.578125q1.4375 -0.59375 2.640625 -1.765625q1.203125 -1.1875 2.046875 -2.96875l0 -18.203125l7.5 0l0 20.9375q0 1.1875 0.421875 1.6875q0.421875 0.5 1.375 0.609375l0 6.109375q-1.125 0.171875 -1.890625 0.25q-0.75 0.09375 -1.359375 0.09375q-2.015625 0 -3.28125 -0.921875q-1.265625 -0.9375 -1.484375 -2.5625l-0.171875 -2.34375q-1.953125 2.96875 -5.03125 4.515625q-3.078125 1.53125 -6.78125 1.53125q-4.53125 0 -6.890625 -2.9375q-2.34375 -2.9375 -2.34375 -8.59375zm46.358 11.140625q-2.90625 0 -5.34375 -1.140625q-2.4375 -1.15625 -4.203125 -3.21875q-1.765625 -2.078125 -2.71875 -4.765625q-0.9375 -2.6875 -0.9375 -5.71875q0 -3.1875 1.0 -5.9375q1.015625 -2.75 2.828125 -4.84375q1.828125 -2.09375 4.3125 -3.234375q2.484375 -1.15625 5.515625 -1.15625q3.421875 0 5.984375 1.546875q2.578125 1.53125 4.265625 4.109375l0 -5.15625l6.546875 0l0 27.9375q0 4.3749847 -2.109375 7.4843597q-2.09375 3.109375 -5.796875 4.75q-3.6875 1.65625 -8.390625 1.65625q-4.75 0 -8.0625 -1.59375q-3.296875 -1.59375 -5.65625 -4.5l4.09375 -3.984375q1.671875 2.078125 4.21875 3.25q2.546875 1.171875 5.40625 1.171875q2.40625 0 4.390625 -0.875q2.0 -0.859375 3.203125 -2.6875q1.203125 -1.8125 1.203125 -4.6718597l0 -3.6875q-1.453125 2.515625 -4.125 3.890625q-2.65625 1.375 -5.625 1.375zm2.53125 -6.0q1.21875 0 2.34375 -0.390625q1.125 -0.390625 2.078125 -1.0625q0.953125 -0.671875 1.671875 -1.59375q0.734375 -0.921875 1.125 -1.875l0 -7.0q-0.671875 -1.734375 -1.875 -3.015625q-1.203125 -1.296875 -2.6875 -2.0q-1.484375 -0.703125 -3.109375 -0.703125q-1.734375 0 -3.140625 0.734375q-1.390625 0.71875 -2.40625 2.046875q-1.0 1.3125 -1.53125 2.90625q-0.53125 1.59375 -0.53125 3.328125q0 1.796875 0.609375 3.375q0.609375 1.5625 1.703125 2.734375q1.09375 1.171875 2.578125 1.84375q1.484375 0.671875 3.171875 0.671875zm48.769623 5.828125l-7.5 0l0 -16.46875q0 -3.40625 -1.328125 -5.078125q-1.3125 -1.6875 -3.609375 -1.6875q-1.34375 0 -2.859375 0.78125q-1.5 0.78125 -2.703125 2.15625q-1.203125 1.375 -1.765625 3.15625l0 17.140625l-7.5 0l0 -40.875l7.5 0l0 16.96875q1.625 -2.8125 4.421875 -4.375q2.796875 -1.5625 6.109375 -1.5625q2.84375 0 4.640625 0.984375q1.796875 0.96875 2.796875 2.625q1.015625 1.65625 1.40625 3.703125q0.390625 2.03125 0.390625 4.21875l0 18.3125zm33.545227 0.5625q-3.578125 0 -6.4375 -1.203125q-2.859375 -1.203125 -4.84375 -3.328125q-1.984375 -2.140625 -3.0625 -4.875q-1.0625 -2.75 -1.0625 -5.765625q0 -3.09375 1.0625 -5.828125q1.078125 -2.75 3.0625 -4.875q1.984375 -2.125 4.84375 -3.328125q2.859375 -1.203125 6.4375 -1.203125q3.578125 0 6.40625 1.203125q2.828125 1.203125 4.84375 3.328125q2.015625 2.125 3.046875 4.875q1.046875 2.734375 1.046875 5.828125q0 3.015625 -1.046875 5.765625q-1.03125 2.734375 -3.015625 4.875q-1.984375 2.125 -4.84375 3.328125q-2.859375 1.203125 -6.4375 1.203125zm-7.671875 -15.171875q0 2.5625 1.0 4.5625q1.015625 1.984375 2.75 3.109375q1.734375 1.109375 3.921875 1.109375q2.125 0 3.859375 -1.140625q1.734375 -1.15625 2.765625 -3.140625q1.046875 -1.984375 1.046875 -4.5625q0 -2.515625 -1.046875 -4.53125q-1.03125 -2.015625 -2.765625 -3.140625q-1.734375 -1.125 -3.859375 -1.125q-2.1875 0 -3.921875 1.15625q-1.734375 1.140625 -2.75 3.140625q-1.0 1.984375 -1.0 4.5625zm29.562256 14.609375l0 -22.0625l-3.859375 0l0 -5.71875l3.859375 0l0 -1.78125q0 -3.640625 1.203125 -6.296875q1.2031555 -2.671875 3.4219055 -4.125q2.21875 -1.453125 5.1875 -1.453125q1.78125 0 3.59375 0.453125q1.828125 0.4375 3.625 1.28125l-1.515625 5.65625q-0.84375 -0.453125 -1.96875 -0.75q-1.109375 -0.3125 -2.125 -0.3125q-1.890625 0 -2.90625 1.34375q-1.0 1.34375 -1.0 3.921875l0 2.0625l7.15625 0l0 5.71875l-7.15625 0l0 22.0625l-7.5156555 0zm48.780914 -1.515625q-0.953125 0.390625 -2.296875 0.90625q-1.34375 0.5 -2.890625 0.796875q-1.53125 0.3125 -3.09375 0.3125q-2.078125 0 -3.8125 -0.71875q-1.734375 -0.734375 -2.78125 -2.328125q-1.03125 -1.59375 -1.03125 -4.171875l0 -16.859375l-3.859375 0l0 -5.765625l3.859375 0l0 -9.515625l7.5 0l0 9.515625l6.171875 0l0 5.765625l-6.171875 0l0 14.34375q0.0625 1.5 0.84375 2.171875q0.78125 0.671875 1.96875 0.671875q1.171875 0 2.28125 -0.390625q1.125 -0.390625 1.796875 -0.671875l1.515625 5.9375zm31.191528 1.515625l-7.500061 0l0 -16.46875q0 -3.40625 -1.328125 -5.078125q-1.3125 -1.6875 -3.609375 -1.6875q-1.34375 0 -2.859375 0.78125q-1.5 0.78125 -2.703125 2.15625q-1.203125 1.375 -1.765625 3.15625l0 17.140625l-7.5 0l0 -40.875l7.5 0l0 16.96875q1.625 -2.8125 4.421875 -4.375q2.796875 -1.5625 6.109375 -1.5625q2.84375 0 4.640625 0.984375q1.796875 0.96875 2.796875 2.625q1.015686 1.65625 1.406311 3.703125q0.390625 2.03125 0.390625 4.21875l0 18.3125zm20.167725 0.5625q-3.53125 0 -6.390625 -1.203125q-2.859375 -1.203125 -4.875 -3.296875q-2.015625 -2.109375 -3.109375 -4.828125q-1.09375 -2.71875 -1.09375 -5.734375q0 -4.203125 1.875 -7.671875q1.875 -3.46875 5.375 -5.5625q3.5 -2.109375 8.265625 -2.109375q4.8125 0 8.234375 2.109375q3.421875 2.09375 5.234375 5.53125q1.828125 3.4375 1.828125 7.421875q0 0.671875 -0.0625 1.375q-0.0625 0.6875 -0.109375 1.140625l-22.6875 0q0.234375 2.234375 1.3125 3.921875q1.09375 1.6875 2.796875 2.5625q1.71875 0.859375 3.671875 0.859375q2.25 0 4.234375 -1.09375q1.984375 -1.09375 2.71875 -2.890625l6.4375 1.796875q-1.0625 2.234375 -3.0625 3.96875q-1.984375 1.734375 -4.671875 2.71875q-2.6875 0.984375 -5.921875 0.984375zm-7.671875 -17.59375l15.34375 0q-0.234375 -2.234375 -1.265625 -3.875q-1.03125 -1.65625 -2.71875 -2.578125q-1.671875 -0.9375 -3.75 -0.9375q-2.015625 0 -3.671875 0.9375q-1.65625 0.921875 -2.6875 2.578125q-1.03125 1.640625 -1.25 3.875z" fill-rule="nonzero"/><path fill="#1a1a1a" d="m113.410805 239.45613q-0.390625 -0.390625 -1.421875 -1.0625q-1.03125 -0.671875 -2.515625 -1.28125q-1.484375 -0.625 -3.234375 -1.09375q-1.734375 -0.484375 -3.515625 -0.484375q-3.140625 0 -4.734375 1.1875q-1.59375 1.171875 -1.59375 3.296875q0 1.625 1.0 2.578125q1.015625 0.953125 3.03125 1.625q2.015625 0.671875 5.03125 1.453125q3.921875 0.953125 6.796875 2.328125q2.890625 1.359375 4.421875 3.578125q1.546875 2.203125 1.546875 5.8437653q0 3.203125 -1.171875 5.46875q-1.171875 2.265625 -3.25 3.671875q-2.0625 1.390625 -4.703125 2.046875q-2.625 0.640625 -5.59375 0.640625q-2.96875 0 -5.9375 -0.609375q-2.96875 -0.625 -5.71875 -1.765625q-2.734375 -1.15625 -5.03125 -2.78125l3.40625 -6.671875q0.515625 0.515625 1.796875 1.328125q1.296875 0.8125 3.140625 1.625q1.84375 0.8125 4.03125 1.375q2.1875 0.546875 4.421875 0.546875q3.140625 0 4.765625 -1.0625q1.625 -1.0625 1.625 -3.015625q0 -1.796875 -1.296875 -2.7968903q-1.28125 -1.015625 -3.578125 -1.765625q-2.296875 -0.765625 -5.4375 -1.65625q-3.75 -1.0625 -6.28125 -2.375q-2.515625 -1.328125 -3.75 -3.34375q-1.21875 -2.015625 -1.21875 -5.03125q0 -4.09375 1.921875 -6.859375q1.9375 -2.78125 5.234375 -4.203125q3.3125 -1.4375 7.34375 -1.4375q2.796875 0 5.28125 0.625q2.5 0.609375 4.6875 1.625q2.1875 1.0 3.921875 2.1875l-3.421875 6.265625zm23.53112 29.906265q-3.53125 0 -6.390625 -1.203125q-2.8593674 -1.203125 -4.8749924 -3.296875q-2.015625 -2.109375 -3.109375 -4.828125q-1.09375 -2.71875 -1.09375 -5.7343903q0 -4.203125 1.875 -7.671875q1.875 -3.46875 5.3749924 -5.5625q3.5 -2.109375 8.265625 -2.109375q4.8125 0 8.234375 2.109375q3.421875 2.09375 5.234375 5.53125q1.828125 3.4375 1.828125 7.421875q0 0.671875 -0.0625 1.375q-0.0625 0.68751526 -0.109375 1.1406403l-22.6875 0q0.234375 2.234375 1.3125 3.921875q1.09375 1.6875 2.796875 2.5625q1.71875 0.859375 3.671875 0.859375q2.25 0 4.234375 -1.09375q1.984375 -1.09375 2.71875 -2.890625l6.4375 1.796875q-1.0625 2.234375 -3.0625 3.96875q-1.984375 1.734375 -4.671875 2.71875q-2.6875 0.984375 -5.921875 0.984375zm-7.671875 -17.593765l15.34375 0q-0.234375 -2.234375 -1.265625 -3.875q-1.03125 -1.65625 -2.71875 -2.578125q-1.671875 -0.9375 -3.75 -0.9375q-2.015625 0 -3.671875 0.9375q-1.65625 0.921875 -2.6875 2.578125q-1.03125 1.640625 -1.25 3.875zm54.872116 17.031265l-7.5 0l0 -16.468765q0 -3.515625 -1.234375 -5.140625q-1.234375 -1.625 -3.421875 -1.625q-1.5 0 -3.046875 0.78125q-1.546875 0.78125 -2.78125 2.15625q-1.21875 1.375 -1.78125 3.15625l0 17.14064l-7.5 0l0 -29.343765l6.765625 0l0 5.4375q1.125 -1.90625 2.859375 -3.21875q1.734375 -1.328125 4.0 -2.015625q2.265625 -0.703125 4.796875 -0.703125q2.734375 0 4.5 0.984375q1.765625 0.96875 2.6875 2.625q0.921875 1.65625 1.28125 3.734375q0.375 2.0625 0.375 4.1875l0 18.312515zm23.96849 -1.515625q-0.953125 0.390625 -2.296875 0.90625q-1.34375 0.5 -2.890625 0.796875q-1.53125 0.3125 -3.09375 0.3125q-2.078125 0 -3.8125 -0.71875q-1.734375 -0.734375 -2.78125 -2.328125q-1.03125 -1.59375 -1.03125 -4.171875l0 -16.85939l-3.859375 0l0 -5.765625l3.859375 0l0 -9.515625l7.5 0l0 9.515625l6.171875 0l0 5.765625l-6.171875 0l0 14.343765q0.0625 1.5 0.84375 2.171875q0.78125 0.671875 1.96875 0.671875q1.171875 0 2.28125 -0.390625q1.125 -0.390625 1.796875 -0.671875l1.515625 5.9375zm3.9258728 1.515625l0 -29.343765l7.5 0l0 29.343765l-7.5 0zm0 -33.437515l0 -7.4375l7.5 0l0 7.4375l-7.5 0zm59.858124 33.437515l-7.5 0l0 -16.468765q0 -3.46875 -1.203125 -5.109375q-1.203125 -1.65625 -3.34375 -1.65625q-2.171875 0 -4.171875 1.703125q-1.984375 1.703125 -2.828125 4.453125l0 17.07814l-7.5 0l0 -16.468765q0 -3.515625 -1.203125 -5.140625q-1.203125 -1.625 -3.328125 -1.625q-2.1875 0 -4.171875 1.6875q-1.984375 1.671875 -2.828125 4.40625l0 17.14064l-7.5 0l0 -29.343765l6.765625 0l0 5.4375q1.6875 -2.859375 4.484375 -4.390625q2.796875 -1.546875 6.4375 -1.546875q3.640625 0 5.6875 1.796875q2.046875 1.78125 2.609375 4.421875q1.78125 -3.03125 4.546875 -4.625q2.78125 -1.59375 6.25 -1.59375q2.75 0 4.453125 0.984375q1.71875 0.96875 2.65625 2.625q0.953125 1.65625 1.3125 3.734375q0.375 2.0625 0.375 4.1875l0 18.312515zm20.167267 0.5625q-3.53125 0 -6.390625 -1.203125q-2.859375 -1.203125 -4.875 -3.296875q-2.015625 -2.109375 -3.109375 -4.828125q-1.09375 -2.71875 -1.09375 -5.7343903q0 -4.203125 1.875 -7.671875q1.875 -3.46875 5.375 -5.5625q3.5 -2.109375 8.265625 -2.109375q4.8125 0 8.234375 2.109375q3.421875 2.09375 5.234375 5.53125q1.828125 3.4375 1.828125 7.421875q0 0.671875 -0.0625 1.375q-0.0625 0.68751526 -0.109375 1.1406403l-22.6875 0q0.234375 2.234375 1.3125 3.921875q1.09375 1.6875 2.796875 2.5625q1.71875 0.859375 3.671875 0.859375q2.25 0 4.234375 -1.09375q1.984375 -1.09375 2.71875 -2.890625l6.4375 1.796875q-1.0625 2.234375 -3.0625 3.96875q-1.984375 1.734375 -4.671875 2.71875q-2.6875 0.984375 -5.921875 0.984375zm-7.671875 -17.593765l15.34375 0q-0.234375 -2.234375 -1.265625 -3.875q-1.03125 -1.65625 -2.71875 -2.578125q-1.671875 -0.9375 -3.75 -0.9375q-2.015625 0 -3.671875 0.9375q-1.65625 0.921875 -2.6875 2.578125q-1.03125 1.640625 -1.25 3.875zm54.8721 17.031265l-7.5 0l0 -16.468765q0 -3.515625 -1.234375 -5.140625q-1.234375 -1.625 -3.421875 -1.625q-1.5 0 -3.046875 0.78125q-1.546875 0.78125 -2.78125 2.15625q-1.21875 1.375 -1.78125 3.15625l0 17.14064l-7.5 0l0 -29.343765l6.765625 0l0 5.4375q1.125 -1.90625 2.859375 -3.21875q1.734375 -1.328125 4.0 -2.015625q2.265625 -0.703125 4.796875 -0.703125q2.734375 0 4.5 0.984375q1.765625 0.96875 2.6875 2.625q0.921875 1.65625 1.28125 3.734375q0.375 2.0625 0.375 4.1875l0 18.312515zm23.968475 -1.515625q-0.953125 0.390625 -2.296875 0.90625q-1.34375 0.5 -2.890625 0.796875q-1.53125 0.3125 -3.09375 0.3125q-2.078125 0 -3.8125 -0.71875q-1.734375 -0.734375 -2.78125 -2.328125q-1.03125 -1.59375 -1.03125 -4.171875l0 -16.85939l-3.859375 0l0 -5.765625l3.859375 0l0 -9.515625l7.5 0l0 9.515625l6.171875 0l0 5.765625l-6.171875 0l0 14.343765q0.0625 1.5 0.84375 2.171875q0.78125 0.671875 1.96875 0.671875q1.171875 0 2.28125 -0.390625q1.125 -0.390625 1.796875 -0.671875l1.515625 5.9375zm27.161133 -38.250015l7.84375 0l14.609375 39.76564l-7.953125 0l-3.6875 -9.90625l-13.890625 0l-3.640625 9.90625l-7.953125 0l14.671875 -39.76564zm9.40625 24.421875l-5.484375 -16.40625l-5.71875 16.40625l11.203125 0zm43.960144 15.343765l-7.5 0l0 -16.468765q0 -3.515625 -1.234375 -5.140625q-1.234375 -1.625 -3.421875 -1.625q-1.5 0 -3.046875 0.78125q-1.546875 0.78125 -2.78125 2.15625q-1.21875 1.375 -1.78125 3.15625l0 17.14064l-7.5 0l0 -29.343765l6.765625 0l0 5.4375q1.125 -1.90625 2.859375 -3.21875q1.734375 -1.328125 4.0 -2.015625q2.265625 -0.703125 4.796875 -0.703125q2.734375 0 4.5 0.984375q1.765625 0.96875 2.6875 2.625q0.921875 1.65625 1.28125 3.734375q0.375 2.0625 0.375 4.1875l0 18.312515zm4.5427246 -8.6875q0 -2.84375 1.59375 -5.0000153q1.59375 -2.15625 4.4375 -3.328125q2.859375 -1.1875 6.5625 -1.1875q1.84375 0 3.75 0.28125q1.90625 0.28125 3.3125 0.890625l0 -1.5625q0 -2.796875 -1.65625 -4.3125q-1.65625 -1.515625 -4.90625 -1.515625q-2.40625 0 -4.59375 0.84375q-2.171875 0.84375 -4.59375 2.46875l-2.40625 -4.9375q2.921875 -1.890625 5.96875 -2.84375q3.046875 -0.953125 6.40625 -0.953125q6.28125 0 9.78125 3.140625q3.5 3.125 3.5 8.953125l0 9.343765q0 1.1875 0.421875 1.6875q0.421875 0.5 1.375 0.609375l0 6.109375q-1.015625 0.171875 -1.828125 0.28125q-0.8125 0.109375 -1.375 0.109375q-2.234375 0 -3.390625 -1.0q-1.140625 -1.015625 -1.421875 -2.46875l-0.171875 -1.515625q-1.90625 2.46875 -4.765625 3.8125q-2.84375 1.34375 -5.8125 1.34375q-2.90625 0 -5.234375 -1.203125q-2.328125 -1.203125 -3.640625 -3.296875q-1.3125 -2.109375 -1.3125 -4.75zm18.25 1.515625q0.609375 -0.671875 1.0 -1.34375q0.40625 -0.671875 0.40625 -1.234375l0 -2.96875q-1.34375 -0.54689026 -2.921875 -0.85939026q-1.5625 -0.3125 -2.96875 -0.3125q-2.90625 0 -4.78125 1.2656403q-1.875 1.25 -1.875 3.328125q0 1.125 0.609375 2.140625q0.625 1.0 1.796875 1.625q1.171875 0.609375 2.796875 0.609375q1.6875 0 3.296875 -0.640625q1.625 -0.65625 2.640625 -1.609375zm15.847107 -33.70314l7.5 0l0 31.468765q0 2.015625 0.671875 2.71875q0.671875 0.703125 1.859375 0.703125q0.890625 0 1.84375 -0.21875q0.953125 -0.234375 1.671875 -0.578125l1.015625 5.71875q-1.515625 0.71875 -3.53125 1.109375q-2.015625 0.40625 -3.640625 0.40625q-3.53125 0 -5.46875 -1.875q-1.921875 -1.875 -1.921875 -5.359375l0 -34.093765zm16.967896 46.593765q1.015625 0.21875 1.875 0.375q0.875 0.171875 1.484375 0.171875q1.0625 0 1.765625 -0.53125q0.703125 -0.53125 1.375 -1.90625q0.671875 -1.359375 1.390625 -3.828125l-11.578125 -29.343765l7.78125 0l7.890625 21.67189l6.9375305 -21.67189l7.171875 0l-12.3125 35.17189q-0.671875 1.953125 -2.0469055 3.546875q-1.375 1.59375 -3.421875 2.515625q-2.046875 0.9375 -4.5625 0.9375q-0.890625 0 -1.796875 -0.140625q-0.890625 -0.140625 -1.953125 -0.484375l0 -6.484375zm40.259552 -5.15625q-3.75 0 -7.171875 -1.234375q-3.40625 -1.234375 -5.875 -3.640625l2.6875 -4.875q2.640625 2.125 5.1875 3.140625q2.546875 1.0 4.890625 1.0q2.1875 0 3.5 -0.78125q1.328125 -0.78125 1.328125 -2.34375q0 -1.0625 -0.734375 -1.65625q-0.734375 -0.59375 -2.109375 -1.03125q-1.359375 -0.453125 -3.328125 -1.015625q-3.234375 -1.0625153 -5.421875 -2.0625153q-2.1875 -1.015625 -3.28125 -2.546875q-1.09375 -1.546875 -1.09375 -3.953125q0 -2.921875 1.484375 -5.015625q1.484375 -2.09375 4.140625 -3.265625q2.671875 -1.1875 6.25 -1.1875q3.140625 0 5.9375 0.984375q2.796875 0.984375 5.09375 3.15625l-3.015625 4.765625q-2.25 -1.734375 -4.265625 -2.546875q-2.015625 -0.8125 -4.078125 -0.8125q-1.1875 0 -2.21875 0.28125q-1.03125 0.28125 -1.6875 0.921875q-0.640625 0.640625 -0.640625 1.8125q0 1.078125 0.578125 1.671875q0.59375 0.578125 1.796875 1.03125q1.21875 0.4375 2.953125 1.0q3.515625 1.015625 5.953125 2.078125q2.4375 1.0625 3.671875 2.609375q1.234375 1.5312653 1.234375 4.2187653q0 4.359375 -3.203125 6.828125q-3.1875 2.46875 -8.5625 2.46875zm16.867126 -0.5625l0 -29.343765l7.5 0l0 29.343765l-7.5 0zm0 -33.437515l0 -7.4375l7.5 0l0 7.4375l-7.5 0zm25.076843 34.000015q-3.75 0 -7.171875 -1.234375q-3.40625 -1.234375 -5.875 -3.640625l2.6875 -4.875q2.640625 2.125 5.1875 3.140625q2.546875 1.0 4.890625 1.0q2.1875 0 3.5 -0.78125q1.328125 -0.78125 1.328125 -2.34375q0 -1.0625 -0.734375 -1.65625q-0.734375 -0.59375 -2.109375 -1.03125q-1.359375 -0.453125 -3.328125 -1.015625q-3.234375 -1.0625153 -5.421875 -2.0625153q-2.1875 -1.015625 -3.28125 -2.546875q-1.09375 -1.546875 -1.09375 -3.953125q0 -2.921875 1.484375 -5.015625q1.484375 -2.09375 4.140625 -3.265625q2.671875 -1.1875 6.25 -1.1875q3.140625 0 5.9375 0.984375q2.796875 0.984375 5.09375 3.15625l-3.015625 4.765625q-2.25 -1.734375 -4.265625 -2.546875q-2.015625 -0.8125 -4.078125 -0.8125q-1.1875 0 -2.21875 0.28125q-1.03125 0.28125 -1.6875 0.921875q-0.640625 0.640625 -0.640625 1.8125q0 1.078125 0.578125 1.671875q0.59375 0.578125 1.796875 1.03125q1.21875 0.4375 2.953125 1.0q3.515625 1.015625 5.953125 2.078125q2.4375 1.0625 3.671875 2.609375q1.234375 1.5312653 1.234375 4.2187653q0 4.359375 -3.203125 6.828125q-3.1875 2.46875 -8.5625 2.46875zm59.13629 -33.54689l-12.703125 0l0 32.98439l-7.671875 0l0 -32.98439l-12.71875 0l0 -6.78125l33.09375 0l0 6.78125zm12.213745 33.54689q-3.578125 0 -6.4375 -1.203125q-2.859375 -1.203125 -4.84375 -3.328125q-1.984375 -2.140625 -3.0625 -4.875q-1.0625 -2.75 -1.0625 -5.7656403q0 -3.09375 1.0625 -5.828125q1.078125 -2.75 3.0625 -4.875q1.984375 -2.125 4.84375 -3.328125q2.859375 -1.203125 6.4375 -1.203125q3.578125 0 6.40625 1.203125q2.828125 1.203125 4.84375 3.328125q2.015625 2.125 3.046875 4.875q1.046875 2.734375 1.046875 5.828125q0 3.0156403 -1.046875 5.7656403q-1.03125 2.734375 -3.015625 4.875q-1.984375 2.125 -4.84375 3.328125q-2.859375 1.203125 -6.4375 1.203125zm-7.671875 -15.17189q0 2.5625153 1.0 4.5625153q1.015625 1.984375 2.75 3.109375q1.734375 1.109375 3.921875 1.109375q2.125 0 3.859375 -1.140625q1.734375 -1.15625 2.765625 -3.140625q1.046875 -1.984375 1.046875 -4.5625153q0 -2.515625 -1.046875 -4.53125q-1.03125 -2.015625 -2.765625 -3.140625q-1.734375 -1.125 -3.859375 -1.125q-2.1875 0 -3.921875 1.15625q-1.734375 1.140625 -2.75 3.140625q-1.0 1.984375 -1.0 4.5625zm41.60785 15.17189q-3.578125 0 -6.4375 -1.203125q-2.859375 -1.203125 -4.84375 -3.328125q-1.984375 -2.140625 -3.0625 -4.875q-1.0625 -2.75 -1.0625 -5.7656403q0 -3.09375 1.0625 -5.828125q1.078125 -2.75 3.0625 -4.875q1.984375 -2.125 4.84375 -3.328125q2.859375 -1.203125 6.4375 -1.203125q3.578125 0 6.40625 1.203125q2.828125 1.203125 4.84375 3.328125q2.015625 2.125 3.046875 4.875q1.046875 2.734375 1.046875 5.828125q0 3.0156403 -1.046875 5.7656403q-1.03125 2.734375 -3.015625 4.875q-1.984375 2.125 -4.84375 3.328125q-2.859375 1.203125 -6.4375 1.203125zm-7.671875 -15.17189q0 2.5625153 1.0 4.5625153q1.015625 1.984375 2.75 3.109375q1.734375 1.109375 3.921875 1.109375q2.125 0 3.859375 -1.140625q1.734375 -1.15625 2.765625 -3.140625q1.046875 -1.984375 1.046875 -4.5625153q0 -2.515625 -1.046875 -4.53125q-1.03125 -2.015625 -2.765625 -3.140625q-1.734375 -1.125 -3.859375 -1.125q-2.1875 0 -3.921875 1.15625q-1.734375 1.140625 -2.75 3.140625q-1.0 1.984375 -1.0 4.5625zm27.998474 -26.265625l7.5 0l0 31.468765q0 2.015625 0.671875 2.71875q0.671875 0.703125 1.859375 0.703125q0.890625 0 1.84375 -0.21875q0.953125 -0.234375 1.671875 -0.578125l1.015625 5.71875q-1.515625 0.71875 -3.53125 1.109375q-2.015625 0.40625 -3.640625 0.40625q-3.53125 0 -5.46875 -1.875q-1.921875 -1.875 -1.921875 -5.359375l0 -34.093765z" fill-rule="nonzero"/><path fill="#000000" fill-opacity="0.0" d="m76.6013 333.11285l807.1496 0l0 56.81891l-807.1496 0z" fill-rule="evenodd"/><path fill="#595959" d="m93.21068 357.3116q0 1.28125 -0.328125 2.296875q-0.3125 1.015625 -0.921875 1.71875q-0.609375 0.6875 -1.515625 1.0625q-0.890625 0.375 -2.046875 0.375q-1.03125 0 -2.15625 -0.296875q0.015625 -0.3125 0.046875 -0.609375q0.03125 -0.3125 0.0625 -0.609375q0.03125 -0.1875 0.140625 -0.296875q0.109375 -0.109375 0.328125 -0.109375q0.203125 0 0.515625 0.09375q0.328125 0.09375 0.859375 0.09375q0.703125 0 1.25 -0.203125q0.546875 -0.21875 0.921875 -0.65625q0.390625 -0.453125 0.578125 -1.15625q0.203125 -0.703125 0.203125 -1.65625l0 -10.046875l2.0625 0l0 10.0zm7.6883698 -5.6875q0.96875 0 1.796875 0.328125q0.828125 0.3125 1.421875 0.9375q0.59375 0.609375 0.921875 1.515625q0.34375 0.890625 0.34375 2.046875q0 0.453125 -0.09375 0.609375q-0.09375 0.140625 -0.359375 0.140625l-7.1875 0q0.015625 1.015625 0.265625 1.78125q0.265625 0.75 0.703125 1.265625q0.453125 0.5 1.0625 0.75q0.625 0.25 1.390625 0.25q0.71875 0 1.234375 -0.15625q0.515625 -0.171875 0.890625 -0.359375q0.375 -0.203125 0.625 -0.359375q0.25 -0.171875 0.4375 -0.171875q0.234375 0 0.359375 0.1875l0.53125 0.6875q-0.34375 0.421875 -0.84375 0.75q-0.484375 0.3125 -1.046875 0.515625q-0.5625 0.203125 -1.15625 0.296875q-0.59375 0.109375 -1.1875 0.109375q-1.125 0 -2.0625 -0.375q-0.9375 -0.390625 -1.625 -1.109375q-0.6875 -0.734375 -1.078125 -1.8125q-0.375 -1.078125 -0.375 -2.484375q0 -1.125 0.34375 -2.109375q0.34375 -0.984375 0.984375 -1.703125q0.65625 -0.71875 1.59375 -1.125q0.9375 -0.40625 2.109375 -0.40625zm0.046875 1.390625q-1.375 0 -2.171875 0.796875q-0.78125 0.796875 -0.96875 2.203125l5.875 0q0 -0.65625 -0.1875 -1.203125q-0.171875 -0.5625 -0.53125 -0.953125q-0.34375 -0.40625 -0.859375 -0.625q-0.5 -0.21875 -1.15625 -0.21875zm11.128983 -1.390625q0.96875 0 1.796875 0.328125q0.828125 0.3125 1.421875 0.9375q0.59375 0.609375 0.921875 1.515625q0.34375 0.890625 0.34375 2.046875q0 0.453125 -0.09375 0.609375q-0.09375 0.140625 -0.359375 0.140625l-7.1875 0q0.015625 1.015625 0.265625 1.78125q0.265625 0.75 0.703125 1.265625q0.453125 0.5 1.0625 0.75q0.625 0.25 1.390625 0.25q0.71875 0 1.234375 -0.15625q0.515625 -0.171875 0.890625 -0.359375q0.375 -0.203125 0.625 -0.359375q0.25 -0.171875 0.4375 -0.171875q0.234375 0 0.359375 0.1875l0.53125 0.6875q-0.34375 0.421875 -0.84375 0.75q-0.484375 0.3125 -1.046875 0.515625q-0.5625 0.203125 -1.15625 0.296875q-0.59375 0.109375 -1.1875 0.109375q-1.125 0 -2.0625 -0.375q-0.9375 -0.390625 -1.625 -1.109375q-0.6875 -0.734375 -1.078125 -1.8125q-0.375 -1.078125 -0.375 -2.484375q0 -1.125 0.34375 -2.109375q0.34375 -0.984375 0.984375 -1.703125q0.65625 -0.71875 1.59375 -1.125q0.9375 -0.40625 2.109375 -0.40625zm0.046875 1.390625q-1.375 0 -2.171875 0.796875q-0.78125 0.796875 -0.96875 2.203125l5.875 0q0 -0.65625 -0.1875 -1.203125q-0.171875 -0.5625 -0.53125 -0.953125q-0.34375 -0.40625 -0.859375 -0.625q-0.5 -0.21875 -1.15625 -0.21875zm10.128983 9.75q-1.28125 0 -1.96875 -0.71875q-0.6875 -0.71875 -0.6875 -2.0625l0 -6.609375l-1.296875 0q-0.171875 0 -0.296875 -0.09375q-0.109375 -0.109375 -0.109375 -0.3125l0 -0.765625l1.765625 -0.21875l0.4375 -3.34375q0.03125 -0.15625 0.140625 -0.25q0.125 -0.109375 0.296875 -0.109375l0.96875 0l0 3.71875l3.09375 0l0 1.375l-3.09375 0l0 6.484375q0 0.6875 0.328125 1.015625q0.328125 0.328125 0.84375 0.328125q0.3125 0 0.53125 -0.078125q0.21875 -0.078125 0.375 -0.171875q0.15625 -0.09375 0.265625 -0.171875q0.109375 -0.078125 0.203125 -0.078125q0.140625 0 0.265625 0.171875l0.546875 0.90625q-0.484375 0.453125 -1.1875 0.71875q-0.6875 0.265625 -1.421875 0.265625zm16.931015 -13.0625q-0.09375 0.15625 -0.203125 0.234375q-0.109375 0.078125 -0.28125 0.078125q-0.1875 0 -0.421875 -0.171875q-0.234375 -0.1875 -0.609375 -0.40625q-0.359375 -0.21875 -0.890625 -0.390625q-0.515625 -0.1875 -1.25 -0.1875q-0.6875 0 -1.21875 0.1875q-0.53125 0.1875 -0.890625 0.515625q-0.359375 0.3125 -0.546875 0.75q-0.171875 0.421875 -0.171875 0.921875q0 0.640625 0.3125 1.0625q0.3125 0.421875 0.828125 0.71875q0.515625 0.296875 1.171875 0.515625q0.65625 0.21875 1.34375 0.453125q0.6875 0.234375 1.34375 0.53125q0.65625 0.296875 1.171875 0.75q0.515625 0.4375 0.828125 1.09375q0.328125 0.640625 0.328125 1.59375q0 1.0 -0.34375 1.890625q-0.34375 0.875 -1.0 1.53125q-0.65625 0.640625 -1.609375 1.015625q-0.953125 0.375 -2.171875 0.375q-1.484375 0 -2.703125 -0.53125q-1.21875 -0.546875 -2.078125 -1.46875l0.59375 -0.96875q0.078125 -0.125 0.203125 -0.203125q0.125 -0.078125 0.28125 -0.078125q0.21875 0 0.5 0.234375q0.296875 0.234375 0.71875 0.53125q0.4375 0.28125 1.046875 0.53125q0.609375 0.234375 1.5 0.234375q0.734375 0 1.3125 -0.203125q0.578125 -0.203125 0.96875 -0.5625q0.40625 -0.375 0.609375 -0.890625q0.21875 -0.515625 0.21875 -1.140625q0 -0.6875 -0.3125 -1.125q-0.3125 -0.453125 -0.828125 -0.75q-0.5 -0.296875 -1.15625 -0.5q-0.65625 -0.21875 -1.34375 -0.4375q-0.6875 -0.21875 -1.34375 -0.5q-0.65625 -0.28125 -1.171875 -0.734375q-0.515625 -0.46875 -0.828125 -1.15625q-0.3125 -0.6875 -0.3125 -1.703125q0 -0.8125 0.3125 -1.5625q0.3125 -0.765625 0.90625 -1.34375q0.609375 -0.59375 1.484375 -0.9375q0.875 -0.359375 2.015625 -0.359375q1.28125 0 2.328125 0.40625q1.0625 0.40625 1.859375 1.171875l-0.5 0.984375zm3.178833 12.890625l0 -15.703125l1.890625 0l0 6.34375q0.6875 -0.734375 1.53125 -1.171875q0.84375 -0.4375 1.953125 -0.4375q0.875 0 1.546875 0.296875q0.6875 0.28125 1.140625 0.828125q0.453125 0.53125 0.6875 1.296875q0.234375 0.75 0.234375 1.671875l0 6.875l-1.890625 0l0 -6.875q0 -1.234375 -0.5625 -1.90625q-0.5625 -0.671875 -1.71875 -0.671875q-0.84375 0 -1.578125 0.40625q-0.71875 0.390625 -1.34375 1.09375l0 7.953125l-1.890625 0zm19.780228 0l-0.828125 0q-0.28125 0 -0.453125 -0.078125q-0.171875 -0.09375 -0.21875 -0.375l-0.21875 -1.0q-0.421875 0.390625 -0.828125 0.703125q-0.40625 0.296875 -0.859375 0.5q-0.453125 0.203125 -0.953125 0.3125q-0.5 0.109375 -1.125 0.109375q-0.625 0 -1.1875 -0.171875q-0.546875 -0.1875 -0.953125 -0.53125q-0.390625 -0.359375 -0.640625 -0.890625q-0.234375 -0.546875 -0.234375 -1.28125q0 -0.640625 0.34375 -1.21875q0.359375 -0.59375 1.140625 -1.046875q0.78125 -0.46875 2.046875 -0.765625q1.28125 -0.296875 3.109375 -0.328125l0 -0.84375q0 -1.265625 -0.546875 -1.90625q-0.53125 -0.640625 -1.59375 -0.640625q-0.6875 0 -1.171875 0.171875q-0.46875 0.171875 -0.8125 0.390625q-0.34375 0.21875 -0.59375 0.40625q-0.25 0.171875 -0.5 0.171875q-0.1875 0 -0.328125 -0.09375q-0.140625 -0.109375 -0.234375 -0.265625l-0.34375 -0.609375q0.90625 -0.859375 1.9375 -1.28125q1.03125 -0.4375 2.28125 -0.4375q0.921875 0 1.625 0.3125q0.703125 0.296875 1.171875 0.828125q0.484375 0.53125 0.71875 1.296875q0.25 0.75 0.25 1.65625l0 6.90625zm-4.921875 -1.15625q0.5 0 0.90625 -0.09375q0.421875 -0.109375 0.796875 -0.296875q0.375 -0.1875 0.703125 -0.453125q0.34375 -0.265625 0.65625 -0.609375l0 -2.25q-1.3125 0.046875 -2.234375 0.21875q-0.90625 0.15625 -1.484375 0.421875q-0.578125 0.265625 -0.84375 0.625q-0.265625 0.359375 -0.265625 0.8125q0 0.421875 0.140625 0.734375q0.140625 0.3125 0.375 0.515625q0.234375 0.1875 0.546875 0.28125q0.328125 0.09375 0.703125 0.09375zm7.813278 1.15625l0 -15.703125l1.890625 0l0 6.34375q0.6875 -0.734375 1.53125 -1.171875q0.84375 -0.4375 1.953125 -0.4375q0.875 0 1.546875 0.296875q0.6875 0.28125 1.140625 0.828125q0.453125 0.53125 0.6875 1.296875q0.234375 0.75 0.234375 1.671875l0 6.875l-1.890625 0l0 -6.875q0 -1.234375 -0.5625 -1.90625q-0.5625 -0.671875 -1.71875 -0.671875q-0.84375 0 -1.578125 0.40625q-0.71875 0.390625 -1.34375 1.09375l0 7.953125l-1.890625 0zm11.295853 -1.3125q0 -0.25 0.09375 -0.46875q0.09375 -0.21875 0.25 -0.375q0.171875 -0.171875 0.40625 -0.265625q0.234375 -0.09375 0.515625 -0.09375q0.3125 0 0.5625 0.125q0.25 0.109375 0.40625 0.328125q0.171875 0.203125 0.25 0.46875q0.09375 0.265625 0.09375 0.59375q0 0.484375 -0.140625 1.0q-0.125 0.515625 -0.390625 1.015625q-0.25 0.515625 -0.640625 0.984375q-0.375 0.484375 -0.84375 0.890625l-0.328125 -0.3125q-0.140625 -0.125 -0.140625 -0.296875q0 -0.140625 0.15625 -0.28125q0.109375 -0.125 0.265625 -0.328125q0.171875 -0.1875 0.34375 -0.453125q0.171875 -0.25 0.3125 -0.5625q0.140625 -0.296875 0.203125 -0.65625l-0.140625 0q-0.265625 0 -0.5 -0.09375q-0.21875 -0.09375 -0.390625 -0.265625q-0.15625 -0.1875 -0.25 -0.421875q-0.09375 -0.25 -0.09375 -0.53125zm20.262833 -1.84375q0.171875 0 0.3125 0.140625l0.8125 0.890625q-0.9375 1.078125 -2.28125 1.6875q-1.34375 0.609375 -3.21875 0.609375q-1.65625 0 -3.0 -0.5625q-1.34375 -0.578125 -2.296875 -1.609375q-0.953125 -1.03125 -1.484375 -2.46875q-0.515625 -1.4375 -0.515625 -3.171875q0 -1.71875 0.5625 -3.15625q0.5625 -1.453125 1.578125 -2.484375q1.015625 -1.03125 2.421875 -1.59375q1.421875 -0.578125 3.125 -0.578125q1.6875 0 2.90625 0.53125q1.21875 0.515625 2.171875 1.40625l-0.671875 0.953125q-0.078125 0.109375 -0.171875 0.1875q-0.09375 0.0625 -0.28125 0.0625q-0.140625 0 -0.296875 -0.09375q-0.15625 -0.109375 -0.375 -0.25q-0.203125 -0.15625 -0.5 -0.328125q-0.28125 -0.171875 -0.671875 -0.3125q-0.390625 -0.15625 -0.921875 -0.25q-0.515625 -0.109375 -1.203125 -0.109375q-1.21875 0 -2.25 0.421875q-1.015625 0.421875 -1.75 1.203125q-0.734375 0.765625 -1.140625 1.890625q-0.40625 1.125 -0.40625 2.5q0 1.4375 0.40625 2.5625q0.40625 1.109375 1.109375 1.890625q0.71875 0.765625 1.6875 1.171875q0.96875 0.40625 2.09375 0.40625q0.671875 0 1.21875 -0.078125q0.546875 -0.078125 1.0 -0.25q0.46875 -0.171875 0.875 -0.4375q0.40625 -0.265625 0.8125 -0.625q0.171875 -0.15625 0.34375 -0.15625zm7.90654 -7.8125q1.1875 0 2.140625 0.390625q0.953125 0.390625 1.625 1.125q0.671875 0.71875 1.015625 1.75q0.359375 1.03125 0.359375 2.296875q0 1.28125 -0.359375 2.3125q-0.34375 1.015625 -1.015625 1.75q-0.671875 0.71875 -1.625 1.109375q-0.953125 0.390625 -2.140625 0.390625q-1.171875 0 -2.125 -0.390625q-0.953125 -0.390625 -1.625 -1.109375q-0.671875 -0.734375 -1.046875 -1.75q-0.359375 -1.03125 -0.359375 -2.3125q0 -1.265625 0.359375 -2.296875q0.375 -1.03125 1.046875 -1.75q0.671875 -0.734375 1.625 -1.125q0.953125 -0.390625 2.125 -0.390625zm0 9.640625q1.609375 0 2.390625 -1.0625q0.796875 -1.078125 0.796875 -3.0q0 -1.9375 -0.796875 -3.015625q-0.78125 -1.078125 -2.390625 -1.078125q-0.796875 0 -1.40625 0.28125q-0.59375 0.28125 -1.0 0.8125q-0.390625 0.515625 -0.59375 1.28125q-0.1875 0.75 -0.1875 1.71875q0 0.953125 0.1875 1.71875q0.203125 0.75 0.59375 1.265625q0.40625 0.515625 1.0 0.796875q0.609375 0.28125 1.40625 0.28125zm9.608353 -14.375l0 15.703125l-1.90625 0l0 -15.703125l1.90625 0zm7.616211 4.734375q0.96875 0 1.796875 0.328125q0.828125 0.3125 1.421875 0.9375q0.59375 0.609375 0.921875 1.515625q0.34375 0.890625 0.34375 2.046875q0 0.453125 -0.09375 0.609375q-0.09375 0.140625 -0.359375 0.140625l-7.1875 0q0.015625 1.015625 0.265625 1.78125q0.265625 0.75 0.703125 1.265625q0.453125 0.5 1.0625 0.75q0.625 0.25 1.390625 0.25q0.71875 0 1.234375 -0.15625q0.515625 -0.171875 0.890625 -0.359375q0.375 -0.203125 0.625 -0.359375q0.25 -0.171875 0.4375 -0.171875q0.234375 0 0.359375 0.1875l0.53125 0.6875q-0.34375 0.421875 -0.84375 0.75q-0.484375 0.3125 -1.046875 0.515625q-0.5625 0.203125 -1.15625 0.296875q-0.59375 0.109375 -1.1875 0.109375q-1.125 0 -2.0625 -0.375q-0.9375 -0.390625 -1.625 -1.109375q-0.6875 -0.734375 -1.078125 -1.8125q-0.375 -1.078125 -0.375 -2.484375q0 -1.125 0.34375 -2.109375q0.34375 -0.984375 0.984375 -1.703125q0.65625 -0.71875 1.59375 -1.125q0.9375 -0.40625 2.109375 -0.40625zm0.046875 1.390625q-1.375 0 -2.171875 0.796875q-0.78125 0.796875 -0.96875 2.203125l5.875 0q0 -0.65625 -0.1875 -1.203125q-0.171875 -0.5625 -0.53125 -0.953125q-0.34375 -0.40625 -0.859375 -0.625q-0.5 -0.21875 -1.15625 -0.21875zm6.8633575 9.578125l0 -10.796875l1.125 0q0.40625 0 0.515625 0.390625l0.140625 1.109375q0.59375 -0.734375 1.328125 -1.203125q0.75 -0.46875 1.71875 -0.46875q1.109375 0 1.78125 0.609375q0.671875 0.609375 0.984375 1.640625q0.21875 -0.59375 0.578125 -1.015625q0.375 -0.421875 0.828125 -0.703125q0.46875 -0.28125 0.984375 -0.40625q0.515625 -0.125 1.046875 -0.125q0.859375 0 1.515625 0.28125q0.671875 0.265625 1.125 0.78125q0.46875 0.515625 0.71875 1.28125q0.25 0.765625 0.25 1.75l0 6.875l-1.90625 0l0 -6.875q0 -1.265625 -0.5625 -1.921875q-0.546875 -0.65625 -1.59375 -0.65625q-0.46875 0 -0.890625 0.171875q-0.421875 0.15625 -0.75 0.484375q-0.3125 0.3125 -0.5 0.796875q-0.1875 0.484375 -0.1875 1.125l0 6.875l-1.90625 0l0 -6.875q0 -1.296875 -0.515625 -1.9375q-0.515625 -0.640625 -1.53125 -0.640625q-0.703125 0 -1.3125 0.375q-0.59375 0.375 -1.09375 1.03125l0 8.046875l-1.890625 0zm25.432144 0l-0.828125 0q-0.28125 0 -0.453125 -0.078125q-0.171875 -0.09375 -0.21875 -0.375l-0.21875 -1.0q-0.421875 0.390625 -0.828125 0.703125q-0.40625 0.296875 -0.859375 0.5q-0.453125 0.203125 -0.953125 0.3125q-0.5 0.109375 -1.125 0.109375q-0.625 0 -1.1875 -0.171875q-0.546875 -0.1875 -0.953125 -0.53125q-0.390625 -0.359375 -0.640625 -0.890625q-0.234375 -0.546875 -0.234375 -1.28125q0 -0.640625 0.34375 -1.21875q0.359375 -0.59375 1.140625 -1.046875q0.78125 -0.46875 2.046875 -0.765625q1.28125 -0.296875 3.109375 -0.328125l0 -0.84375q0 -1.265625 -0.546875 -1.90625q-0.53125 -0.640625 -1.59375 -0.640625q-0.6875 0 -1.171875 0.171875q-0.46875 0.171875 -0.8125 0.390625q-0.34375 0.21875 -0.59375 0.40625q-0.25 0.171875 -0.5 0.171875q-0.1875 0 -0.328125 -0.09375q-0.140625 -0.109375 -0.234375 -0.265625l-0.34375 -0.609375q0.90625 -0.859375 1.9375 -1.28125q1.03125 -0.4375 2.28125 -0.4375q0.921875 0 1.625 0.3125q0.703125 0.296875 1.171875 0.828125q0.484375 0.53125 0.71875 1.296875q0.25 0.75 0.25 1.65625l0 6.90625zm-4.921875 -1.15625q0.5 0 0.90625 -0.09375q0.421875 -0.109375 0.796875 -0.296875q0.375 -0.1875 0.703125 -0.453125q0.34375 -0.265625 0.65625 -0.609375l0 -2.25q-1.3125 0.046875 -2.234375 0.21875q-0.90625 0.15625 -1.484375 0.421875q-0.578125 0.265625 -0.84375 0.625q-0.265625 0.359375 -0.265625 0.8125q0 0.421875 0.140625 0.734375q0.140625 0.3125 0.375 0.515625q0.234375 0.1875 0.546875 0.28125q0.328125 0.09375 0.703125 0.09375zm7.813278 1.15625l0 -10.796875l1.125 0q0.40625 0 0.515625 0.390625l0.140625 1.171875q0.703125 -0.78125 1.578125 -1.25q0.875 -0.484375 2.015625 -0.484375q0.875 0 1.546875 0.296875q0.6875 0.28125 1.140625 0.828125q0.453125 0.53125 0.6875 1.296875q0.234375 0.75 0.234375 1.671875l0 6.875l-1.890625 0l0 -6.875q0 -1.234375 -0.5625 -1.90625q-0.5625 -0.671875 -1.71875 -0.671875q-0.84375 0 -1.578125 0.40625q-0.71875 0.390625 -1.34375 1.09375l0 7.953125l-1.890625 0zm18.334045 -1.734375l6.609375 0l0 1.734375l-8.671875 0l0 -15.28125l2.0625 0l0 13.546875zm10.607452 4.921875q-0.09375 0.21875 -0.234375 0.34375q-0.140625 0.125 -0.4375 0.125l-1.40625 0l1.96875 -4.28125l-4.453125 -10.171875l1.640625 0q0.234375 0 0.375 0.125q0.140625 0.109375 0.203125 0.265625l2.890625 6.796875q0.09375 0.234375 0.15625 0.46875q0.078125 0.234375 0.140625 0.484375q0.0625 -0.25 0.140625 -0.484375q0.078125 -0.234375 0.171875 -0.46875l2.8125 -6.796875q0.0625 -0.171875 0.203125 -0.28125q0.15625 -0.109375 0.34375 -0.109375l1.515625 0l-6.03125 13.984375zm13.935547 -12.203125q-0.125 0.234375 -0.390625 0.234375q-0.15625 0 -0.359375 -0.109375q-0.203125 -0.125 -0.5 -0.265625q-0.28125 -0.15625 -0.6875 -0.28125q-0.40625 -0.125 -0.96875 -0.125q-0.484375 0 -0.875 0.125q-0.375 0.125 -0.640625 0.34375q-0.265625 0.203125 -0.421875 0.5q-0.140625 0.28125 -0.140625 0.609375q0 0.40625 0.234375 0.6875q0.25 0.28125 0.640625 0.484375q0.390625 0.203125 0.890625 0.359375q0.5 0.15625 1.03125 0.328125q0.53125 0.171875 1.03125 0.390625q0.5 0.203125 0.890625 0.53125q0.40625 0.3125 0.640625 0.78125q0.234375 0.46875 0.234375 1.109375q0 0.75 -0.265625 1.390625q-0.265625 0.625 -0.796875 1.09375q-0.515625 0.46875 -1.28125 0.734375q-0.75 0.265625 -1.734375 0.265625q-1.125 0 -2.046875 -0.359375q-0.921875 -0.375 -1.5625 -0.953125l0.453125 -0.71875q0.078125 -0.140625 0.1875 -0.21875q0.125 -0.078125 0.328125 -0.078125q0.1875 0 0.390625 0.15625q0.21875 0.140625 0.515625 0.328125q0.3125 0.171875 0.75 0.328125q0.4375 0.15625 1.078125 0.15625q0.5625 0 0.96875 -0.140625q0.421875 -0.15625 0.6875 -0.390625q0.28125 -0.25 0.40625 -0.5625q0.140625 -0.328125 0.140625 -0.6875q0 -0.453125 -0.234375 -0.75q-0.234375 -0.296875 -0.640625 -0.5q-0.390625 -0.203125 -0.90625 -0.359375q-0.5 -0.15625 -1.03125 -0.328125q-0.515625 -0.171875 -1.03125 -0.390625q-0.5 -0.21875 -0.90625 -0.546875q-0.390625 -0.328125 -0.625 -0.8125q-0.234375 -0.484375 -0.234375 -1.1875q0 -0.609375 0.25 -1.171875q0.265625 -0.578125 0.75 -1.015625q0.484375 -0.4375 1.203125 -0.6875q0.71875 -0.25 1.625 -0.25q1.078125 0 1.921875 0.34375q0.84375 0.328125 1.46875 0.90625l-0.4375 0.703125zm5.0532227 -6.6875l0 9.234375l0.484375 0q0.21875 0 0.359375 -0.046875q0.140625 -0.0625 0.3125 -0.25l3.40625 -3.65625q0.15625 -0.171875 0.3125 -0.265625q0.171875 -0.109375 0.4375 -0.109375l1.71875 0l-3.96875 4.234375q-0.15625 0.171875 -0.296875 0.3125q-0.140625 0.140625 -0.328125 0.25q0.1875 0.125 0.34375 0.296875q0.15625 0.15625 0.296875 0.375l4.21875 5.328125l-1.703125 0q-0.234375 0 -0.40625 -0.09375q-0.15625 -0.09375 -0.3125 -0.28125l-3.546875 -4.421875q-0.15625 -0.21875 -0.3125 -0.28125q-0.15625 -0.078125 -0.484375 -0.078125l-0.53125 0l0 5.15625l-1.90625 0l0 -15.703125l1.90625 0zm11.316498 4.90625l0 10.796875l-1.90625 0l0 -10.796875l1.90625 0zm0.421875 -3.390625q0 0.265625 -0.109375 0.515625q-0.109375 0.234375 -0.296875 0.421875q-0.1875 0.1875 -0.4375 0.296875q-0.25 0.109375 -0.515625 0.109375q-0.28125 0 -0.53125 -0.109375q-0.234375 -0.109375 -0.421875 -0.296875q-0.1875 -0.1875 -0.296875 -0.421875q-0.09375 -0.25 -0.09375 -0.515625q0 -0.28125 0.09375 -0.53125q0.109375 -0.25 0.296875 -0.4375q0.1875 -0.1875 0.421875 -0.296875q0.25 -0.109375 0.53125 -0.109375q0.265625 0 0.515625 0.109375q0.25 0.109375 0.4375 0.296875q0.1875 0.1875 0.296875 0.4375q0.109375 0.25 0.109375 0.53125zm2.366211 12.875q0 -0.25 0.09375 -0.46875q0.09375 -0.21875 0.25 -0.375q0.171875 -0.171875 0.40625 -0.265625q0.234375 -0.09375 0.515625 -0.09375q0.3125 0 0.5625 0.125q0.25 0.109375 0.40625 0.328125q0.171875 0.203125 0.25 0.46875q0.09375 0.265625 0.09375 0.59375q0 0.484375 -0.140625 1.0q-0.125 0.515625 -0.390625 1.015625q-0.25 0.515625 -0.640625 0.984375q-0.375 0.484375 -0.84375 0.890625l-0.328125 -0.3125q-0.140625 -0.125 -0.140625 -0.296875q0 -0.140625 0.15625 -0.28125q0.109375 -0.125 0.265625 -0.328125q0.171875 -0.1875 0.34375 -0.453125q0.171875 -0.25 0.3125 -0.5625q0.140625 -0.296875 0.203125 -0.65625l-0.140625 0q-0.265625 0 -0.5 -0.09375q-0.21875 -0.09375 -0.390625 -0.265625q-0.15625 -0.1875 -0.25 -0.421875q-0.09375 -0.25 -0.09375 -0.53125zm19.903442 -13.96875l0 1.734375l-4.9375 0l0 13.546875l-2.078125 0l0 -13.546875l-4.953125 0l0 -1.734375l11.96875 0zm3.9897766 4.484375l0 10.796875l-1.90625 0l0 -10.796875l1.90625 0zm0.421875 -3.390625q0 0.265625 -0.109375 0.515625q-0.109375 0.234375 -0.296875 0.421875q-0.1875 0.1875 -0.4375 0.296875q-0.25 0.109375 -0.515625 0.109375q-0.28125 0 -0.53125 -0.109375q-0.234375 -0.109375 -0.421875 -0.296875q-0.1875 -0.1875 -0.296875 -0.421875q-0.09375 -0.25 -0.09375 -0.515625q0 -0.28125 0.09375 -0.53125q0.109375 -0.25 0.296875 -0.4375q0.1875 -0.1875 0.421875 -0.296875q0.25 -0.109375 0.53125 -0.109375q0.265625 0 0.515625 0.109375q0.25 0.109375 0.4375 0.296875q0.1875 0.1875 0.296875 0.4375q0.109375 0.25 0.109375 0.53125zm2.928711 14.1875l0 -10.796875l1.125 0q0.40625 0 0.515625 0.390625l0.140625 1.109375q0.59375 -0.734375 1.328125 -1.203125q0.75 -0.46875 1.71875 -0.46875q1.109375 0 1.78125 0.609375q0.671875 0.609375 0.984375 1.640625q0.21875 -0.59375 0.578125 -1.015625q0.375 -0.421875 0.828125 -0.703125q0.46875 -0.28125 0.984375 -0.40625q0.515625 -0.125 1.046875 -0.125q0.859375 0 1.515625 0.28125q0.671875 0.265625 1.125 0.78125q0.46875 0.515625 0.71875 1.28125q0.25 0.765625 0.25 1.75l0 6.875l-1.90625 0l0 -6.875q0 -1.265625 -0.5625 -1.921875q-0.546875 -0.65625 -1.59375 -0.65625q-0.46875 0 -0.890625 0.171875q-0.421875 0.15625 -0.75 0.484375q-0.3125 0.3125 -0.5 0.796875q-0.1875 0.484375 -0.1875 1.125l0 6.875l-1.90625 0l0 -6.875q0 -1.296875 -0.515625 -1.9375q-0.515625 -0.640625 -1.53125 -0.640625q-0.703125 0 -1.3125 0.375q-0.59375 0.375 -1.09375 1.03125l0 8.046875l-1.890625 0zm29.439087 -5.53125q0.140625 0.265625 0.25 0.546875q0.125 0.28125 0.234375 0.5625q0.09375 -0.296875 0.203125 -0.5625q0.125 -0.265625 0.28125 -0.546875l5.171875 -9.390625q0.140625 -0.25 0.28125 -0.296875q0.15625 -0.0625 0.4375 -0.0625l1.515625 0l0 15.28125l-1.8125 0l0 -11.234375q0 -0.21875 0.015625 -0.46875q0.015625 -0.265625 0.03125 -0.53125l-5.234375 9.5625q-0.265625 0.46875 -0.75 0.46875l-0.296875 0q-0.484375 0 -0.75 -0.46875l-5.34375 -9.59375q0.03125 0.28125 0.046875 0.546875q0.015625 0.265625 0.015625 0.484375l0 11.234375l-1.8125 0l0 -15.28125l1.515625 0q0.28125 0 0.421875 0.0625q0.15625 0.046875 0.296875 0.296875l5.28125 9.390625l0 0zm19.16861 -3.359375q-0.078125 0.125 -0.171875 0.1875q-0.078125 0.0625 -0.234375 0.0625q-0.171875 0 -0.359375 -0.125q-0.171875 -0.140625 -0.46875 -0.296875q-0.28125 -0.15625 -0.703125 -0.28125q-0.40625 -0.140625 -1.0 -0.140625q-0.796875 0 -1.40625 0.28125q-0.59375 0.28125 -1.015625 0.8125q-0.40625 0.53125 -0.625 1.296875q-0.203125 0.75 -0.203125 1.6875q0 0.984375 0.21875 1.75q0.234375 0.75 0.640625 1.28125q0.40625 0.515625 0.984375 0.78125q0.578125 0.265625 1.3125 0.265625q0.6875 0 1.125 -0.15625q0.453125 -0.171875 0.75 -0.375q0.3125 -0.203125 0.5 -0.359375q0.1875 -0.171875 0.390625 -0.171875q0.234375 0 0.359375 0.1875l0.53125 0.6875q-0.703125 0.859375 -1.765625 1.265625q-1.046875 0.40625 -2.21875 0.40625q-1.015625 0 -1.890625 -0.375q-0.875 -0.375 -1.515625 -1.078125q-0.625 -0.71875 -1.0 -1.75q-0.359375 -1.03125 -0.359375 -2.359375q0 -1.203125 0.328125 -2.21875q0.34375 -1.03125 0.984375 -1.765625q0.640625 -0.75 1.59375 -1.15625q0.953125 -0.421875 2.171875 -0.421875q1.125 0 2.0 0.375q0.875 0.359375 1.546875 1.03125l-0.5 0.671875zm13.663269 5.734375q0.171875 0 0.3125 0.140625l0.8125 0.890625q-0.9375 1.078125 -2.28125 1.6875q-1.34375 0.609375 -3.21875 0.609375q-1.65625 0 -3.0 -0.5625q-1.34375 -0.578125 -2.296875 -1.609375q-0.953125 -1.03125 -1.484375 -2.46875q-0.515625 -1.4375 -0.515625 -3.171875q0 -1.71875 0.5625 -3.15625q0.5625 -1.453125 1.578125 -2.484375q1.015625 -1.03125 2.421875 -1.59375q1.421875 -0.578125 3.125 -0.578125q1.6875 0 2.90625 0.53125q1.21875 0.515625 2.171875 1.40625l-0.671875 0.953125q-0.078125 0.109375 -0.171875 0.1875q-0.09375 0.0625 -0.28125 0.0625q-0.140625 0 -0.296875 -0.09375q-0.15625 -0.109375 -0.375 -0.25q-0.203125 -0.15625 -0.5 -0.328125q-0.28125 -0.171875 -0.671875 -0.3125q-0.390625 -0.15625 -0.921875 -0.25q-0.515625 -0.109375 -1.203125 -0.109375q-1.21875 0 -2.25 0.421875q-1.015625 0.421875 -1.75 1.203125q-0.734375 0.765625 -1.140625 1.890625q-0.40625 1.125 -0.40625 2.5q0 1.4375 0.40625 2.5625q0.40625 1.109375 1.109375 1.890625q0.71875 0.765625 1.6875 1.171875q0.96875 0.40625 2.09375 0.40625q0.671875 0 1.21875 -0.078125q0.546875 -0.078125 1.0 -0.25q0.46875 -0.171875 0.875 -0.4375q0.40625 -0.265625 0.8125 -0.625q0.171875 -0.15625 0.34375 -0.15625zm11.469055 3.15625l-0.828125 0q-0.28125 0 -0.453125 -0.078125q-0.171875 -0.09375 -0.21875 -0.375l-0.21875 -1.0q-0.421875 0.390625 -0.828125 0.703125q-0.40625 0.296875 -0.859375 0.5q-0.453125 0.203125 -0.953125 0.3125q-0.5 0.109375 -1.125 0.109375q-0.625 0 -1.1875 -0.171875q-0.546875 -0.1875 -0.953125 -0.53125q-0.390625 -0.359375 -0.640625 -0.890625q-0.234375 -0.546875 -0.234375 -1.28125q0 -0.640625 0.34375 -1.21875q0.359375 -0.59375 1.140625 -1.046875q0.78125 -0.46875 2.046875 -0.765625q1.28125 -0.296875 3.109375 -0.328125l0 -0.84375q0 -1.265625 -0.546875 -1.90625q-0.53125 -0.640625 -1.59375 -0.640625q-0.6875 0 -1.171875 0.171875q-0.46875 0.171875 -0.8125 0.390625q-0.34375 0.21875 -0.59375 0.40625q-0.25 0.171875 -0.5 0.171875q-0.1875 0 -0.328125 -0.09375q-0.140625 -0.109375 -0.234375 -0.265625l-0.34375 -0.609375q0.90625 -0.859375 1.9375 -1.28125q1.03125 -0.4375 2.28125 -0.4375q0.921875 0 1.625 0.3125q0.703125 0.296875 1.171875 0.828125q0.484375 0.53125 0.71875 1.296875q0.25 0.75 0.25 1.65625l0 6.90625zm-4.921875 -1.15625q0.5 0 0.90625 -0.09375q0.421875 -0.109375 0.796875 -0.296875q0.375 -0.1875 0.703125 -0.453125q0.34375 -0.265625 0.65625 -0.609375l0 -2.25q-1.3125 0.046875 -2.234375 0.21875q-0.90625 0.15625 -1.484375 0.421875q-0.578125 0.265625 -0.84375 0.625q-0.265625 0.359375 -0.265625 0.8125q0 0.421875 0.140625 0.734375q0.140625 0.3125 0.375 0.515625q0.234375 0.1875 0.546875 0.28125q0.328125 0.09375 0.703125 0.09375zm7.8757935 1.15625l0 -15.703125l1.90625 0l0 6.453125q0.671875 -0.78125 1.53125 -1.25q0.875 -0.46875 2.0 -0.46875q0.9375 0 1.6875 0.359375q0.765625 0.34375 1.296875 1.046875q0.53125 0.6875 0.8125 1.71875q0.296875 1.03125 0.296875 2.375q0 1.1875 -0.328125 2.21875q-0.3125 1.03125 -0.921875 1.78125q-0.59375 0.75 -1.46875 1.1875q-0.859375 0.4375 -1.953125 0.4375q-1.046875 0 -1.78125 -0.40625q-0.71875 -0.40625 -1.265625 -1.140625l-0.09375 0.984375q-0.09375 0.40625 -0.5 0.40625l-1.21875 0zm4.8125 -9.453125q-0.921875 0 -1.625 0.421875q-0.703125 0.421875 -1.28125 1.203125l0 5.21875q0.515625 0.71875 1.140625 1.0q0.625 0.28125 1.390625 0.28125q1.515625 0 2.3125 -1.0625q0.8125 -1.078125 0.8125 -3.078125q0 -1.0625 -0.1875 -1.8125q-0.1875 -0.765625 -0.546875 -1.25q-0.34375 -0.484375 -0.859375 -0.703125q-0.5 -0.21875 -1.15625 -0.21875zm11.312958 -1.515625q0.96875 0 1.796875 0.328125q0.828125 0.3125 1.421875 0.9375q0.59375 0.609375 0.921875 1.515625q0.34375 0.890625 0.34375 2.046875q0 0.453125 -0.09375 0.609375q-0.09375 0.140625 -0.359375 0.140625l-7.1875 0q0.015625 1.015625 0.265625 1.78125q0.265625 0.75 0.703125 1.265625q0.453125 0.5 1.0625 0.75q0.625 0.25 1.390625 0.25q0.71875 0 1.234375 -0.15625q0.515625 -0.171875 0.890625 -0.359375q0.375 -0.203125 0.625 -0.359375q0.25 -0.171875 0.4375 -0.171875q0.234375 0 0.359375 0.1875l0.53125 0.6875q-0.34375 0.421875 -0.84375 0.75q-0.484375 0.3125 -1.046875 0.515625q-0.5625 0.203125 -1.15625 0.296875q-0.59375 0.109375 -1.1875 0.109375q-1.125 0 -2.0625 -0.375q-0.9375 -0.390625 -1.625 -1.109375q-0.6875 -0.734375 -1.078125 -1.8125q-0.375 -1.078125 -0.375 -2.484375q0 -1.125 0.34375 -2.109375q0.34375 -0.984375 0.984375 -1.703125q0.65625 -0.71875 1.59375 -1.125q0.9375 -0.40625 2.109375 -0.40625zm0.046875 1.390625q-1.375 0 -2.171875 0.796875q-0.78125 0.796875 -0.96875 2.203125l5.875 0q0 -0.65625 -0.1875 -1.203125q-0.171875 -0.5625 -0.53125 -0.953125q-0.34375 -0.40625 -0.859375 -0.625q-0.5 -0.21875 -1.15625 -0.21875z" fill-rule="nonzero"/></g></svg>