<?xml version="1.0" encoding="UTF-8" standalone="no"?>
<svg
   xmlns:dc="http://purl.org/dc/elements/1.1/"
   xmlns:cc="http://creativecommons.org/ns#"
   xmlns:rdf="http://www.w3.org/1999/02/22-rdf-syntax-ns#"
   xmlns:svg="http://www.w3.org/2000/svg"
   xmlns="http://www.w3.org/2000/svg"
   version="1.1"
   id="svg2"
   xml:space="preserve"
   width="867.3349"
   height="808.35309"
   viewBox="0 0 867.3349 808.35309"><metadata
     id="metadata8"><rdf:RDF><cc:Work
         rdf:about=""><dc:format>image/svg+xml</dc:format><dc:type
           rdf:resource="http://purl.org/dc/dcmitype/StillImage" /><dc:title></dc:title></cc:Work></rdf:RDF></metadata><defs
     id="defs6"><clipPath
       clipPathUnits="userSpaceOnUse"
       id="clipPath18"><path
         d="M 0,0 H 3600 V 6000 H 0 Z"
         clip-rule="evenodd"
         id="path16" /></clipPath><clipPath
       clipPathUnits="userSpaceOnUse"
       id="clipPath36"><path
         d="m 0,193.75 h 3600 v 150 H 0 Z"
         clip-rule="evenodd"
         id="path34" /></clipPath><clipPath
       clipPathUnits="userSpaceOnUse"
       id="clipPath48"><path
         d="M 0,0 H 3600 V 6000 H 0 Z"
         clip-rule="evenodd"
         id="path46" /></clipPath><clipPath
       clipPathUnits="userSpaceOnUse"
       id="clipPath62"><path
         d="m 75,71.875 h 50 v 50 H 75 Z"
         clip-rule="evenodd"
         id="path60" /></clipPath><clipPath
       clipPathUnits="userSpaceOnUse"
       id="clipPath74"><path
         d="M 0,0 H 3600 V 6000 H 0 Z"
         clip-rule="evenodd"
         id="path72" /></clipPath><clipPath
       clipPathUnits="userSpaceOnUse"
       id="clipPath96"><path
         d="m 125,240.625 h 50 v 50 h -50 z"
         clip-rule="evenodd"
         id="path94" /></clipPath><clipPath
       clipPathUnits="userSpaceOnUse"
       id="clipPath108"><path
         d="m 0,193.75 h 3600 v 150 H 0 Z"
         clip-rule="evenodd"
         id="path106" /></clipPath><clipPath
       clipPathUnits="userSpaceOnUse"
       id="clipPath122"><path
         d="m 396.875,240.625 h 50 v 50 h -50 z"
         clip-rule="evenodd"
         id="path120" /></clipPath><clipPath
       clipPathUnits="userSpaceOnUse"
       id="clipPath134"><path
         d="m 0,193.75 h 3600 v 150 H 0 Z"
         clip-rule="evenodd"
         id="path132" /></clipPath><clipPath
       clipPathUnits="userSpaceOnUse"
       id="clipPath148"><path
         d="m 684.375,240.625 h 50 v 50 h -50 z"
         clip-rule="evenodd"
         id="path146" /></clipPath><clipPath
       clipPathUnits="userSpaceOnUse"
       id="clipPath160"><path
         d="m 0,193.75 h 3600 v 150 H 0 Z"
         clip-rule="evenodd"
         id="path158" /></clipPath><clipPath
       clipPathUnits="userSpaceOnUse"
       id="clipPath174"><path
         d="m 1106.25,240.625 h 50 v 50 h -50 z"
         clip-rule="evenodd"
         id="path172" /></clipPath><clipPath
       clipPathUnits="userSpaceOnUse"
       id="clipPath186"><path
         d="m 0,193.75 h 3600 v 150 H 0 Z"
         clip-rule="evenodd"
         id="path184" /></clipPath><clipPath
       clipPathUnits="userSpaceOnUse"
       id="clipPath200"><path
         d="m 1421.875,240.625 h 50 v 50 h -50 z"
         clip-rule="evenodd"
         id="path198" /></clipPath><clipPath
       clipPathUnits="userSpaceOnUse"
       id="clipPath212"><path
         d="m 0,193.75 h 3600 v 150 H 0 Z"
         clip-rule="evenodd"
         id="path210" /></clipPath><clipPath
       clipPathUnits="userSpaceOnUse"
       id="clipPath228"><path
         d="m 1750,240.625 h 50 v 50 h -50 z"
         clip-rule="evenodd"
         id="path226" /></clipPath><clipPath
       clipPathUnits="userSpaceOnUse"
       id="clipPath240"><path
         d="m 0,193.75 h 3600 v 150 H 0 Z"
         clip-rule="evenodd"
         id="path238" /></clipPath><clipPath
       clipPathUnits="userSpaceOnUse"
       id="clipPath254"><path
         d="m 2006.25,240.625 h 50 v 50 h -50 z"
         clip-rule="evenodd"
         id="path252" /></clipPath><clipPath
       clipPathUnits="userSpaceOnUse"
       id="clipPath266"><path
         d="m 0,193.75 h 3600 v 150 H 0 Z"
         clip-rule="evenodd"
         id="path264" /></clipPath><clipPath
       clipPathUnits="userSpaceOnUse"
       id="clipPath280"><path
         d="m 2334.375,240.625 h 50 v 50 h -50 z"
         clip-rule="evenodd"
         id="path278" /></clipPath><clipPath
       clipPathUnits="userSpaceOnUse"
       id="clipPath292"><path
         d="m 0,193.75 h 3600 v 150 H 0 Z"
         clip-rule="evenodd"
         id="path290" /></clipPath><clipPath
       clipPathUnits="userSpaceOnUse"
       id="clipPath306"><path
         d="M 0,0 H 3600 V 6000 H 0 Z"
         clip-rule="evenodd"
         id="path304" /></clipPath><clipPath
       clipPathUnits="userSpaceOnUse"
       id="clipPath468"><path
         d="M 0,0 H 3600 V 6000 H 0 Z"
         id="path466" /></clipPath><clipPath
       clipPathUnits="userSpaceOnUse"
       id="clipPath474"><path
         d="M 3600,0 H 0 v 6000 h 3600 z m -896.875,783.41345 v 80.0481 c -2e-4,2.35882 0.4512,4.62793 1.3538,6.80719 0.9025,2.17932 2.1877,4.10303 3.8559,5.77112 1.668,1.66796 3.5918,2.9533 5.7713,3.85595 2.1792,0.90277 4.4484,1.35413 6.8076,1.35419 h 783.1728 c 2.3587,-6e-5 4.6275,-0.45142 6.8069,-1.35419 2.1792,-0.90265 4.103,-2.18799 5.7713,-3.85595 1.6677,-1.66809 2.9531,-3.5918 3.8557,-5.77106 0.9028,-2.17932 1.3545,-4.44843 1.3547,-6.80725 v -80.0481 c -2e-4,-2.35895 -0.4519,-4.62811 -1.3547,-6.80749 -0.9026,-2.17926 -2.188,-4.10291 -3.8557,-5.77088 -1.6683,-1.66803 -3.5921,-2.95337 -5.7713,-3.85608 -2.1794,-0.90265 -4.4482,-1.354 -6.8069,-1.354 h -783.1728 c -2.3592,0 -4.6284,0.45129 -6.8076,1.35394 -2.1795,0.90277 -4.1033,2.18811 -5.7713,3.85614 -1.6682,1.66797 -2.9534,3.59162 -3.8559,5.77088 -0.9026,2.17938 -1.354,4.44854 -1.3538,6.80749 z"
         clip-rule="evenodd"
         id="path472" /></clipPath><clipPath
       clipPathUnits="userSpaceOnUse"
       id="clipPath486"><path
         d="M 0,0 H 3600 V 6000 H 0 Z"
         clip-rule="evenodd"
         id="path484" /></clipPath><clipPath
       clipPathUnits="userSpaceOnUse"
       id="clipPath508"><path
         d="M 0,0 H 3600 V 6000 H 0 Z"
         id="path506" /></clipPath><clipPath
       clipPathUnits="userSpaceOnUse"
       id="clipPath514"><path
         d="M 2703.125,2496.875 V 962.5 h 818.75 v 1534.375 c -2e-4,2.4863 -0.4763,4.8779 -1.4277,7.175 -0.9517,2.2972 -2.3064,4.3248 -4.0642,6.0831 -1.7583,1.758 -3.7859,3.1127 -6.0831,4.0642 -2.2971,0.9516 -4.6889,1.4275 -7.175,1.4277 h -781.25 c -2.4866,-2e-4 -4.8784,-0.4761 -7.1758,-1.4277 -2.2971,-0.9515 -4.3247,-2.3062 -6.0827,-4.0642 -1.7581,-1.7583 -3.1131,-3.7859 -4.0647,-6.0831 -0.9515,-2.2971 -1.427,-4.6887 -1.4268,-7.175 z"
         id="path512" /></clipPath><clipPath
       clipPathUnits="userSpaceOnUse"
       id="clipPath520"><path
         d="m 3521.875,2515.625 v -18.75 c -2e-4,2.0718 -0.4763,4.0647 -1.4277,5.979 -0.9517,1.9141 -2.3064,3.6038 -4.0642,5.0691 -1.7583,1.4651 -3.7859,2.594 -6.0831,3.387 -2.2971,0.7932 -4.6889,1.1897 -7.175,1.1899 h -781.25 c -2.4866,-2e-4 -4.8784,-0.3967 -7.1758,-1.1899 -2.2971,-0.793 -4.3247,-1.9219 -6.0827,-3.387 -1.7581,-1.4653 -3.1131,-3.155 -4.0647,-5.0691 -0.9515,-1.9143 -1.427,-3.9072 -1.4268,-5.979 v 18.75 z"
         clip-rule="evenodd"
         id="path518" /></clipPath><clipPath
       clipPathUnits="userSpaceOnUse"
       id="clipPath526"><path
         d="m 2703.125,2496.875 h 818.75 v 18.75 h -818.75 z"
         id="path524" /></clipPath><clipPath
       clipPathUnits="userSpaceOnUse"
       id="clipPath538"><path
         d="M 0,0 H 3600 V 6000 H 0 Z"
         clip-rule="evenodd"
         id="path536" /></clipPath><clipPath
       clipPathUnits="userSpaceOnUse"
       id="clipPath550"><path
         d="m 2753.125,800 h 50 v 50 h -50 z"
         clip-rule="evenodd"
         id="path548" /></clipPath><clipPath
       clipPathUnits="userSpaceOnUse"
       id="clipPath562"><path
         d="M 0,0 H 3600 V 6000 H 0 Z"
         clip-rule="evenodd"
         id="path560" /></clipPath><clipPath
       clipPathUnits="userSpaceOnUse"
       id="clipPath576"><path
         d="M 0,0 H 3600 V 6000 H 0 Z"
         id="path574" /></clipPath><clipPath
       clipPathUnits="userSpaceOnUse"
       id="clipPath582"><path
         d="m 2943.75,821.875 c -2e-4,-4.14404 0.7927,-8.13037 2.3787,-11.95898 1.5857,-3.82856 3.8437,-7.20795 6.7741,-10.13819 2.9302,-2.93023 6.3096,-5.18829 10.138,-6.77417 3.8288,-1.58575 7.8152,-2.37866 11.9592,-2.37866 4.1438,0 8.1301,0.79291 11.9585,2.37866 3.8286,1.58588 7.208,3.84394 10.1384,6.77417 2.9302,2.93024 5.1883,6.30963 6.7739,10.13819 1.5857,3.82861 2.379,7.81494 2.3792,11.95898 -2e-4,4.14398 -0.7935,8.13019 -2.3792,11.95874 -1.5856,3.82855 -3.8437,7.20801 -6.7739,10.13831 -2.9304,2.93023 -6.3098,5.18823 -10.1384,6.77404 -3.8284,1.58588 -7.8147,2.37885 -11.9585,2.37891 -4.144,-6e-5 -8.1304,-0.79303 -11.9592,-2.37891 -3.8284,-1.58581 -7.2078,-3.84381 -10.138,-6.77404 -2.9304,-2.9303 -5.1884,-6.30976 -6.7741,-10.13831 -1.586,-3.82855 -2.3789,-7.81476 -2.3787,-11.95874 z"
         id="path580" /></clipPath><clipPath
       clipPathUnits="userSpaceOnUse"
       id="clipPath594"><path
         d="M 0,0 H 3600 V 6000 H 0 Z"
         clip-rule="evenodd"
         id="path592" /></clipPath><clipPath
       clipPathUnits="userSpaceOnUse"
       id="clipPath738"><path
         d="M 0,0 H 3600 V 6000 H 0 Z"
         id="path736" /></clipPath><clipPath
       clipPathUnits="userSpaceOnUse"
       id="clipPath744"><path
         d="m 2703.125,2750 v -50 c -2e-4,-4.3149 1.5251,-7.9978 4.5762,-11.0488 3.051,-3.0508 6.7339,-4.5762 11.0488,-4.5762 h 675 v 81.25 h -675 c -4.3149,0 -7.9978,-1.5256 -11.0488,-4.5767 -3.0511,-3.051 -4.5764,-6.7336 -4.5762,-11.0483 z"
         id="path742" /></clipPath><clipPath
       clipPathUnits="userSpaceOnUse"
       id="clipPath756"><path
         d="M 0,0 H 3600 V 6000 H 0 Z"
         clip-rule="evenodd"
         id="path754" /></clipPath><clipPath
       clipPathUnits="userSpaceOnUse"
       id="clipPath768"><path
         d="M 0,0 H 3600 V 6000 H 0 Z"
         id="path766" /></clipPath><clipPath
       clipPathUnits="userSpaceOnUse"
       id="clipPath774"><path
         d="m 2703.125,2750 v -50 c -2e-4,-4.3149 1.5251,-7.9978 4.5762,-11.0488 3.051,-3.0508 6.7339,-4.5762 11.0488,-4.5762 h 675 v 81.25 h -675 c -4.3149,0 -7.9978,-1.5256 -11.0488,-4.5767 -3.0511,-3.051 -4.5764,-6.7336 -4.5762,-11.0483 z"
         id="path772" /></clipPath><clipPath
       clipPathUnits="userSpaceOnUse"
       id="clipPath780"><path
         d="m 2740.625,2693.75 h 615.625 v 62.5 h -615.625 z"
         id="path778" /></clipPath><clipPath
       clipPathUnits="userSpaceOnUse"
       id="clipPath794"><path
         d="M 0,0 H 3600 V 6000 H 0 Z"
         id="path792" /></clipPath><clipPath
       clipPathUnits="userSpaceOnUse"
       id="clipPath800"><path
         d="M 3600,0 H 0 v 6000 h 3600 z m -206.25,2681.25 v 87.5 h 112.5 c 2.4861,-2e-4 4.8774,-0.4763 7.1746,-1.4277 2.2971,-0.9517 4.3249,-2.3064 6.0835,-4.0642 1.758,-1.7583 3.1127,-3.7859 4.0642,-6.0831 0.9516,-2.2971 1.4275,-4.6889 1.4277,-7.175 v -50 c -2e-4,-2.4866 -0.4761,-4.8787 -1.4277,-7.1758 -0.9515,-2.2971 -2.3062,-4.3244 -4.0642,-6.0825 -1.7586,-1.7583 -3.7862,-3.1133 -6.0833,-4.0647 -2.2971,-0.9514 -4.6887,-1.427 -7.1748,-1.427 z"
         clip-rule="evenodd"
         id="path798" /></clipPath><clipPath
       clipPathUnits="userSpaceOnUse"
       id="clipPath812"><path
         d="M 0,0 H 3600 V 6000 H 0 Z"
         id="path810" /></clipPath><clipPath
       clipPathUnits="userSpaceOnUse"
       id="clipPath818"><path
         d="m 3396.875,2765.625 v -81.25 h 109.375 c 4.3147,0 7.9973,1.5254 11.0483,4.5762 3.0511,3.051 4.5765,6.7339 4.5767,11.0488 v 50 c -2e-4,4.3147 -1.5256,7.9973 -4.5767,11.0483 -3.051,3.0511 -6.7336,4.5767 -11.0483,4.5767 z"
         id="path816" /></clipPath><clipPath
       clipPathUnits="userSpaceOnUse"
       id="clipPath830"><path
         d="M 0,0 H 3600 V 6000 H 0 Z"
         clip-rule="evenodd"
         id="path828" /></clipPath><clipPath
       clipPathUnits="userSpaceOnUse"
       id="clipPath842"><path
         d="m 3434.375,2700 h 50 v 50 h -50 z"
         clip-rule="evenodd"
         id="path840" /></clipPath></defs><g
     id="g10"
     transform="matrix(0.31999998,0,0,0.31999998,0,-226.80134)"><g
       id="g20"
       transform="matrix(2.3527966,0,0,1.3156789,0,708.75423)"><path
         d="M 0,0 H 1152 V 1920 H 0 Z"
         style="fill:#ffffff;fill-opacity:1;fill-rule:nonzero;stroke:none"
         id="path22" /><path
         d="M 0,127.20352 H 1152 V 1013 H 0 Z"
         style="fill:#ffffff;fill-opacity:1;fill-rule:nonzero;stroke:none;stroke-width:0.935109"
         id="path24" /></g><path
       d="m 75,918.75 h 2575 v 3.125 H 75 Z"
       style="fill:#eaecef;fill-opacity:1;fill-rule:nonzero;stroke:none;stroke-width:3.125"
       id="path330" /><path
       d="m 75,1112.5 h 2575 v 3.125 H 75 Z"
       style="fill:#eaecef;fill-opacity:1;fill-rule:nonzero;stroke:none;stroke-width:3.125"
       id="path332" /><path
       d="m 75,1818.75 h 2575 v 3.125 H 75 Z"
       style="fill:#eaecef;fill-opacity:1;fill-rule:nonzero;stroke:none;stroke-width:3.125"
       id="path334" /><path
       d="m 75,2662.5 h 2575 v 3.125 H 75 Z"
       style="fill:#eaecef;fill-opacity:1;fill-rule:nonzero;stroke:none;stroke-width:3.125"
       id="path336" /><text
       style="font-variant:normal;font-weight:600;font-size:100px;font-family:'Segoe UI';-inkscape-font-specification:SegoeUI-Semibold;writing-mode:lr-tb;fill:#24292e;fill-opacity:1;fill-rule:nonzero;stroke:none;stroke-width:3.125"
       id="text340"
       x="75"
       y="865.625"><tspan
         x="75 169.04297 222.16797 248.29102 295.3125 355.0293 443.60349 496.72852 524.21875 559.76562 619.48242 646.97266 683.10547 741.30859 794.43359 821.92383 876.36719 929.49219 987.8418 1023.9746 1050.0977 1138.6719 1191.7969 1250.1465 1286.2793 1313.7695 1380.9082 1439.2578 1491.4551 1517.5781 1568.4082 1611.5234 1637.6465 1680.7617 1708.252 1753.7109 1813.4277 1873.1445 1899.2676 1926.7578 2002.3926 2028.5156 2081.0059 2107.1289"
         y="865.625"
         id="tspan338"
         style="stroke-width:3.125">Welcome to the Sentiment Analysis Tool wiki!</tspan></text><text
       style="font-variant:normal;font-weight:600;font-size:75px;font-family:'Segoe UI';-inkscape-font-specification:SegoeUI-Semibold;writing-mode:lr-tb;fill:#24292e;fill-opacity:1;fill-rule:nonzero;stroke:none;stroke-width:3.125"
       id="text344"
       x="75"
       y="1075"><tspan
         x="75 109.09424 148.93799 188.08594 254.5166 275.13428 344.45801 384.30176 450.73245 495.92285 535.7666 564.00146"
         y="1075"
         id="tspan342"
         style="stroke-width:3.125">Team Members</tspan></text><path
       d="m 137.5,1206.25 c -1e-5,1.2431 -0.23791,2.439 -0.71365,3.5876 -0.47575,1.1485 -1.15316,2.1623 -2.03223,3.0415 -0.87907,0.8791 -1.8929,1.5565 -3.04147,2.0322 -1.14857,0.4758 -2.34445,0.7136 -3.58765,0.7137 -1.24322,-10e-5 -2.43911,-0.2378 -3.58767,-0.7137 -1.14857,-0.4757 -2.1624,-1.1531 -3.04146,-2.0322 -0.87909,-0.8792 -1.55651,-1.893 -2.03227,-3.0415 -0.47574,-1.1486 -0.71361,-2.3445 -0.7136,-3.5876 -1e-5,-1.2433 0.23788,-2.4392 0.7136,-3.5878 0.47576,-1.1486 1.15318,-2.1624 2.03227,-3.0414 0.87906,-0.8791 1.89289,-1.5565 3.04146,-2.0323 1.14856,-0.4757 2.34445,-0.7135 3.58767,-0.7135 1.2432,0 2.43908,0.2378 3.58765,0.7135 1.14857,0.4758 2.1624,1.1532 3.04147,2.0323 0.87907,0.879 1.55648,1.8928 2.03223,3.0414 0.47576,1.1486 0.71364,2.3445 0.71365,3.5878 z"
       style="fill:#24292e;fill-opacity:1;fill-rule:nonzero;stroke:none;stroke-width:3.125"
       id="path346" /><text
       style="font-variant:normal;font-weight:normal;font-size:50px;font-family:'Segoe UI';-inkscape-font-specification:SegoeUI;writing-mode:lr-tb;fill:#24292e;fill-opacity:1;fill-rule:nonzero;stroke:none;stroke-width:3.125"
       id="text350"
       x="175"
       y="1221.875"><tspan
         x="175 205.95703 235.25391 247.36328 273.51074 316.57715 342.0166 370.3125 384.00879 405.10254 429.29688 450.5127 475.36621 487.47559 501.17188 513.13477 526.83105 561.18164 589.47754 601.58691 625.53711 651.68457 669.06738 690.2832 702.39258 719.33594 743.53027 757.22656 786.52344 802.17285 815.86914 846.82617 858.93555 887.23145 910.32715 922.43652 950.73242 979.02832 1004.4678 1021.4111 1033.5205 1047.2168 1078.1738 1107.4707 1150.5371 1179.9316 1208.2275 1225.1709 1251.3184 1268.7012 1282.3975 1308.96 1332.0557 1344.165 1370.3125 1398.6084 1421.7041 1447.8516 1461.5479 1473.5107"
         y="1221.875"
         id="tspan348"
         style="stroke-width:3.125">Coleman Lyski | University of Cincinnati Computer Science | </tspan></text><text
       style="font-variant:normal;font-weight:normal;font-size:50px;font-family:'Segoe UI';-inkscape-font-specification:SegoeUI;writing-mode:lr-tb;fill:#0366d6;fill-opacity:1;fill-rule:nonzero;stroke:none;stroke-width:3.125"
       id="text354"
       x="1487.207"
       y="1221.875"><tspan
         x="1487.207 1499.3164 1523.5107 1544.7266 1569.5801 1581.6895 1604.7852 1616.8945 1664.6484 1707.7148 1733.1543 1745.2637 1757.373 1768.2129 1796.5088 1819.6045 1830.4443 1856.5918 1886.0352"
         y="1221.875"
         id="tspan352"
         style="stroke-width:3.125">lyskicj@mail.uc.edu</tspan></text><path
       d="m 137.5,1293.75 c -1e-5,1.2431 -0.23791,2.4389 -0.71365,3.5875 -0.47575,1.1485 -1.15316,2.1624 -2.03223,3.0416 -0.87907,0.879 -1.8929,1.5564 -3.04147,2.0322 -1.14857,0.4758 -2.34445,0.7136 -3.58765,0.7137 -1.24322,-10e-5 -2.43911,-0.2378 -3.58767,-0.7137 -1.14857,-0.4758 -2.1624,-1.1532 -3.04146,-2.0322 -0.87909,-0.8792 -1.55651,-1.8931 -2.03227,-3.0416 -0.47574,-1.1486 -0.71361,-2.3444 -0.7136,-3.5875 -1e-5,-1.2433 0.23788,-2.4393 0.7136,-3.5879 0.47576,-1.1485 1.15318,-2.1624 2.03227,-3.0414 0.87906,-0.8791 1.89289,-1.5565 3.04146,-2.0323 1.14856,-0.4756 2.34445,-0.7134 3.58767,-0.7134 1.2432,0 2.43908,0.2378 3.58765,0.7134 1.14857,0.4758 2.1624,1.1532 3.04147,2.0323 0.87907,0.879 1.55648,1.8929 2.03223,3.0414 0.47576,1.1486 0.71364,2.3446 0.71365,3.5879 z"
       style="fill:#24292e;fill-opacity:1;fill-rule:nonzero;stroke:none;stroke-width:3.125"
       id="path356" /><text
       style="font-variant:normal;font-weight:normal;font-size:50px;font-family:'Segoe UI';-inkscape-font-specification:SegoeUI;writing-mode:lr-tb;fill:#24292e;fill-opacity:1;fill-rule:nonzero;stroke:none;stroke-width:3.125"
       id="text360"
       x="175"
       y="1309.375"><tspan
         x="175 192.84668 218.99414 245.1416 262.08496 275.78125 302.34375 330.63965 356.0791 384.375 398.07129 410.03418 423.73047 458.08105 486.37695 498.4863 522.43652 548.58398 565.9668 587.18262 599.29199 616.23535 640.42969 654.12598 683.42285 699.07227 712.76855 743.72559 755.83496 784.13086 807.22656 819.33594 847.63184 875.92773 901.36719 918.31055 930.41992 944.11621 975.07324 1004.3701 1047.4365 1076.8311 1105.127 1122.0703 1148.2178 1165.6006 1179.2969 1205.8594 1228.9551 1241.0645 1267.2119 1295.5078 1318.6035 1344.751 1358.4473 1370.4102"
         y="1309.375"
         id="tspan358"
         style="stroke-width:3.125">Jeet Shah | University of Cincinnati Computer Science | </tspan></text><text
       style="font-variant:normal;font-weight:normal;font-size:50px;font-family:'Segoe UI';-inkscape-font-specification:SegoeUI;writing-mode:lr-tb;fill:#0366d6;fill-opacity:1;fill-rule:nonzero;stroke:none;stroke-width:3.125"
       id="text364"
       x="1384.082"
       y="1309.375"><tspan
         x="1384.082 1405.2979 1433.5938 1459.0332 1487.3291 1499.4385 1516.3818 1564.1357 1607.2021 1632.6416 1644.751 1656.8604 1667.7002 1695.9961 1719.0918 1729.9316 1756.0791 1785.5225"
         y="1309.375"
         id="tspan362"
         style="stroke-width:3.125">shahjt@mail.uc.edu</tspan></text><path
       d="m 137.5,1381.25 c -1e-5,1.2431 -0.23791,2.439 -0.71365,3.5875 -0.47575,1.1485 -1.15316,2.1623 -2.03223,3.0415 -0.87907,0.879 -1.8929,1.5564 -3.04147,2.0322 -1.14857,0.4758 -2.34445,0.7137 -3.58765,0.7138 -1.24322,-10e-5 -2.43911,-0.2381 -3.58767,-0.7138 -1.14857,-0.4758 -2.1624,-1.1532 -3.04146,-2.0322 -0.87909,-0.8792 -1.55651,-1.8931 -2.03227,-3.0416 -0.47574,-1.1485 -0.71361,-2.3443 -0.7136,-3.5874 -1e-5,-1.2433 0.23788,-2.4393 0.7136,-3.5878 0.47576,-1.1486 1.15318,-2.1625 2.03227,-3.0415 0.87906,-0.879 1.89289,-1.5564 3.04146,-2.0322 1.14856,-0.4757 2.34445,-0.7135 3.58767,-0.7135 1.2432,0 2.43908,0.2378 3.58765,0.7135 1.14857,0.4758 2.1624,1.1532 3.04147,2.0322 0.87907,0.879 1.55648,1.8929 2.03223,3.0415 0.47576,1.1485 0.71364,2.3445 0.71365,3.5878 z"
       style="fill:#24292e;fill-opacity:1;fill-rule:nonzero;stroke:none;stroke-width:3.125"
       id="path366" /><text
       style="font-variant:normal;font-weight:normal;font-size:50px;font-family:'Segoe UI';-inkscape-font-specification:SegoeUI;writing-mode:lr-tb;fill:#24292e;fill-opacity:1;fill-rule:nonzero;stroke:none;stroke-width:3.125"
       id="text370"
       x="175"
       y="1396.875"><tspan
         x="175 201.19629 213.30566 256.37207 270.06836 314.96582 338.06152 369.01855 394.45801 423.85254 450 463.69629 475.65918 489.35547 523.70605 552.00195 564.11133 588.06152 614.20898 631.5918 652.80762 664.91699 681.86035 706.05469 719.75098 749.04785 764.69727 778.39355 809.35059 821.45996 849.75586 872.85156 884.96094 913.25684 941.55273 966.99219 983.93555 996.04492 1009.7412 1040.6982 1069.9951 1113.0615 1142.4561 1170.752 1187.6953 1213.8428 1231.2256 1244.9219 1271.4844 1294.5801 1306.6895 1332.8369 1361.1328 1384.2285 1410.376 1424.0723 1436.0352"
         y="1396.875"
         id="tspan368"
         style="stroke-width:3.125">Tim McCabe | University of Cincinnati Computer Science | </tspan></text><text
       style="font-variant:normal;font-weight:normal;font-size:50px;font-family:'Segoe UI';-inkscape-font-specification:SegoeUI;writing-mode:lr-tb;fill:#0366d6;fill-opacity:1;fill-rule:nonzero;stroke:none;stroke-width:3.125"
       id="text374"
       x="1449.707"
       y="1396.875"><tspan
         x="1449.707 1492.7734 1515.8691 1538.9648 1564.4043 1593.7988 1619.9463 1636.8896 1666.2842 1714.0381 1757.1045 1782.5439 1794.6533 1806.7627 1817.6025 1845.8984 1868.9941 1879.834 1905.9814 1935.4248"
         y="1396.875"
         id="tspan372"
         style="stroke-width:3.125">mccabetp@mail.uc.edu</tspan></text><path
       d="m 137.5,1468.75 c -1e-5,1.2431 -0.23791,2.439 -0.71365,3.5876 -0.47575,1.1484 -1.15316,2.1622 -2.03223,3.0414 -0.87907,0.879 -1.8929,1.5564 -3.04147,2.0322 -1.14857,0.4758 -2.34445,0.7137 -3.58765,0.7138 -1.24322,-10e-5 -2.43911,-0.2381 -3.58767,-0.7138 -1.14857,-0.4758 -2.1624,-1.1532 -3.04146,-2.0322 -0.87909,-0.8792 -1.55651,-1.893 -2.03227,-3.0415 -0.47574,-1.1485 -0.71361,-2.3444 -0.7136,-3.5875 -1e-5,-1.2433 0.23788,-2.4392 0.7136,-3.5878 0.47576,-1.1486 1.15318,-2.1624 2.03227,-3.0414 0.87906,-0.8791 1.89289,-1.5565 3.04146,-2.0323 1.14856,-0.4757 2.34445,-0.7135 3.58767,-0.7135 1.2432,0 2.43908,0.2378 3.58765,0.7135 1.14857,0.4758 2.1624,1.1532 3.04147,2.0323 0.87907,0.879 1.55648,1.8928 2.03223,3.0414 0.47576,1.1486 0.71364,2.3445 0.71365,3.5878 z"
       style="fill:#24292e;fill-opacity:1;fill-rule:nonzero;stroke:none;stroke-width:3.125"
       id="path376" /><text
       style="font-variant:normal;font-weight:normal;font-size:50px;font-family:'Segoe UI';-inkscape-font-specification:SegoeUI;writing-mode:lr-tb;fill:#24292e;fill-opacity:1;fill-rule:nonzero;stroke:none;stroke-width:3.125"
       id="text380"
       x="175"
       y="1484.375"><tspan
         x="175 210.05859 227.44141 238.28125 251.97754 284.22852 296.33789 308.44727 322.14355 367.04102 379.15039 407.44629 432.88574 444.99512 458.69141 470.6543 484.35059 518.70117 546.99707 559.10645 583.05664 609.2041 626.58691 647.80273 659.91211 676.85547 701.0498 714.74609 744.04297 759.69238 773.38867 804.3457 816.45508 844.75098 867.84668 879.95605 908.25195 936.54785 961.9873 978.93066 991.04004 1004.7363 1036.9873 1066.4307 1090.3809 1102.4902 1123.7061 1153.0029 1170.3857 1184.082 1196.0449"
         y="1484.375"
         id="tspan378"
         style="stroke-width:3.125">Dr. Ali Minai | University of Cincinnati Advisor | </tspan></text><text
       style="font-variant:normal;font-weight:normal;font-size:50px;font-family:'Segoe UI';-inkscape-font-specification:SegoeUI;writing-mode:lr-tb;fill:#0366d6;fill-opacity:1;fill-rule:nonzero;stroke:none;stroke-width:3.125"
       id="text384"
       x="1209.7168"
       y="1484.375"><tspan
         x="1209.7168 1235.1562 1247.2656 1259.375 1270.2148 1313.2812 1325.3906 1353.6865 1379.126 1391.2354 1438.9893 1467.2852 1490.3809 1501.2207 1527.3682 1556.8115"
         y="1484.375"
         id="tspan382"
         style="stroke-width:3.125">ali.minai@uc.edu</tspan></text><text
       style="font-variant:normal;font-weight:normal;font-size:50px;font-family:'Segoe UI';-inkscape-font-specification:SegoeUI;writing-mode:lr-tb;fill:#24292e;fill-opacity:1;fill-rule:nonzero;stroke:none;stroke-width:3.125"
       id="text388"
       x="75"
       y="1609.375"><tspan
         x="75 98.535156 124.68262 150.12207 167.50488 195.80078 209.49707 252.56348 281.86035 299.24316 325.39062 339.08691 364.52637 393.9209 423.21777 451.5137 468.45703 482.15332 510.44922 531.66504 545.36133 574.6582 602.9541 616.65039 633.59375 661.88965 688.03711"
         y="1609.375"
         id="tspan386"
         style="stroke-width:3.125">Learn more about us on the </tspan></text><text
       style="font-variant:normal;font-weight:normal;font-size:50px;font-family:'Segoe UI';-inkscape-font-specification:SegoeUI;writing-mode:lr-tb;fill:#0366d6;fill-opacity:1;fill-rule:nonzero;stroke:none;stroke-width:3.125"
       id="text392"
       x="701.70898"
       y="1609.375"><tspan
         x="701.70898 729.71191 747.09473 776.3916 792.04102 818.18848 839.4043 860.62012 872.72949 902.02637 930.32227 955.76172 967.87109 981.56738 1010.2295 1022.3389 1051.6357 1081.0791 1098.4619 1123.9014 1153.2959 1181.5918 1193.7012 1219.8486"
         y="1609.375"
         id="tspan390"
         style="stroke-width:3.125">Professional Biographies</tspan></text><text
       style="font-variant:normal;font-weight:normal;font-size:50px;font-family:'Segoe UI';-inkscape-font-specification:SegoeUI;writing-mode:lr-tb;fill:#24292e;fill-opacity:1;fill-rule:nonzero;stroke:none;stroke-width:3.125"
       id="text396"
       x="1254.7607"
       y="1609.375"><tspan
         x="1254.7607 1301.4648 1313.5742 1338.4277 1350.5371 1364.2334 1393.6279 1419.0674 1448.5107 1474.6582"
         y="1609.375"
         id="tspan394"
         style="stroke-width:3.125">Wiki page.</tspan></text><text
       style="font-variant:normal;font-weight:600;font-size:75px;font-family:'Segoe UI';-inkscape-font-specification:SegoeUI-Semibold;writing-mode:lr-tb;fill:#24292e;fill-opacity:1;fill-rule:nonzero;stroke:none;stroke-width:3.125"
       id="text400"
       x="75"
       y="1781.25"><tspan
         x="75 118.83545 145.93506 190.72266 210.31494 250.15869 285.4248 312.52441 333.14209 383.49609 428.68652 461.02295 488.12256 515.88135 555.0293 590.29541"
         y="1781.25"
         id="tspan398"
         style="stroke-width:3.125">Project Abstract</tspan></text><text
       style="font-variant:normal;font-weight:normal;font-size:50px;font-family:'Segoe UI';-inkscape-font-specification:SegoeUI;writing-mode:lr-tb;fill:#24292e;fill-opacity:1;fill-rule:nonzero;stroke:none;stroke-width:3.125"
       id="text404"
       x="75"
       y="1928.125"><tspan
         x="75 101.19629 129.49219 141.60156 162.81738 176.51367 205.9082 223.29102 252.58789 264.69727 290.84473 313.94043 330.88379 344.58008 356.68945 377.90527 391.60156 417.04099 430.7373 451.95312 478.10059 506.39648 523.33984 535.44922 578.51562 604.66309 632.95898 649.90234 663.59863 689.03809 717.33398 742.77344 754.88281 779.07715 800.29297 812.40234 833.61816 847.31445 872.75391 901.0498 930.49316 944.18945 969.62891 999.07227 1028.5156 1045.8984 1072.0459 1101.4893 1126.9287 1143.8721 1155.9814 1185.2783 1213.5742 1227.2705 1263.4033 1289.5508 1318.9453 1332.6416 1358.0811 1387.4756 1416.8701 1428.9795 1441.0889 1464.1846 1489.624 1506.5674 1518.6768 1547.9736 1576.2695 1587.1094 1600.8057 1635.1562 1656.3721 1682.5195 1699.9023 1721.1182 1734.8145 1757.9102 1783.3496 1811.6455 1825.3418 1846.5576 1872.7051 1898.1445 1915.5273 1938.623 1966.9189 1980.6152 1996.2646 2025.5615 2042.9443 2056.6406 2082.0801 2110.376 2134.5703 2148.2666 2169.4824 2195.6299 2212.5732 2226.2695 2255.5664 2271.2158 2284.9121 2309.7656 2335.9131 2360.1074 2396.2402 2425.5371 2442.9199 2472.3633 2493.5791 2507.2754 2522.3633 2548.5107 2559.3506 2588.7939 2599.6338 2613.3301"
         y="1928.125"
         id="tspan402"
         style="stroke-width:3.125">This project is a sentiment analysis and aggregation web application. Users can search for any set of keywords (e.g. a</tspan></text><text
       style="font-variant:normal;font-weight:normal;font-size:50px;font-family:'Segoe UI';-inkscape-font-specification:SegoeUI;writing-mode:lr-tb;fill:#24292e;fill-opacity:1;fill-rule:nonzero;stroke:none;stroke-width:3.125"
       id="text408"
       x="75"
       y="2003.125"><tspan
         x="75 104.39453 121.77734 147.2168 175.5127 204.95605 218.65234 246.94824 272.3877 315.4541 341.60156 355.29785 384.59473 401.97754 415.6738 432.61719 461.91406 491.30859 503.41797 526.51367 541.60156 555.29785 580.7373 609.0332 638.47656 652.17285 669.11621 697.41211 723.55957 747.75391 761.4502 797.58301 809.69238 821.80176 833.91113 847.60742 868.82324 894.9707 921.11816 934.81445 964.20898 993.50586 1010.4492 1038.7451 1052.4414 1077.8809 1091.5771 1121.0205 1138.4033 1163.8428 1193.2373 1221.5332 1233.6426 1256.7383 1282.1777 1294.2871 1307.9834 1333.4229 1361.7188 1391.1621 1404.8584 1421.8018 1447.2412 1476.6357 1504.9316 1517.041 1542.4805 1559.8633 1573.5596 1602.9541 1620.3369 1646.4844 1667.7002 1693.8477 1722.1436 1739.0869 1764.5264 1781.4697 1793.5791 1822.876 1851.1719 1864.8682 1894.165 1909.8145 1923.5107 1952.9053 1981.2012 2010.5957 2022.7051 2034.8145 2057.9102 2071.6064 2100.9033 2130.2979 2142.4072 2170.7031 2182.8125 2212.1094 2240.4053 2254.1016 2271.4844 2297.6318 2327.0752 2352.5146 2369.8975 2399.3408 2411.4502 2439.7461 2469.1895 2482.8857 2499.8291 2528.125 2554.2725 2566.3818"
         y="2003.125"
         id="tspan406"
         style="stroke-width:3.125">brand name or topic) and they will see both a graphical and tabular presentation of public opinion regarding their</tspan></text><text
       style="font-variant:normal;font-weight:normal;font-size:50px;font-family:'Segoe UI';-inkscape-font-specification:SegoeUI;writing-mode:lr-tb;fill:#24292e;fill-opacity:1;fill-rule:nonzero;stroke:none;stroke-width:3.125"
       id="text412"
       x="75"
       y="2078.125"><tspan
         x="75 96.21582 122.36328 147.80273 165.18555 188.28125 216.57715 227.41699 241.11328 267.30957 295.60547 321.75293 335.44922 352.83203 378.97949 400.19531 428.49121 440.60059 457.54395 471.24026 500.68359 526.12305 543.06641 568.50586 582.20215 611.59668 628.97949 655.12695 676.34277 702.49023 730.78613 747.72949 773.87695 803.32031 817.0166 833.95996 863.25684 876.95312 893.89648 922.19238 948.33984 962.03613 990.33203 1011.5479 1037.6953 1055.0781 1068.7744 1104.9072 1117.0166 1129.126 1141.2354 1154.9316 1184.3262 1210.4736 1224.1699 1247.2656 1276.5625 1304.8584 1326.0742 1343.0176 1360.4004 1388.6963 1411.792 1428.7354 1454.8828 1484.3262 1498.0225 1513.6719 1531.0547 1560.3516 1603.418 1617.1143 1638.3301 1667.627 1690.7227 1702.832 1728.2715 1740.3809 1754.0771 1797.1436 1823.291 1852.7344 1864.8438 1890.2832 1903.9795 1933.374 1962.6709 1983.8867 2000.8301 2022.0459 2035.7422 2052.6855 2080.9814 2106.4209 2123.3643 2137.0605 2162.5 2179.8828 2206.0303 2219.7266 2249.1211 2266.5039 2295.8008 2318.8965 2345.0439 2366.2598 2387.4756 2413.623 2443.0664 2456.7627 2473.7061 2502.002 2519.3848 2548.6816 2576.9775 2606.4209"
         y="2078.125"
         id="tspan410"
         style="stroke-width:3.125">search. The result data presented to the user will be constructed from social media posts that are processed through</tspan></text><text
       style="font-variant:normal;font-weight:normal;font-size:50px;font-family:'Segoe UI';-inkscape-font-specification:SegoeUI;writing-mode:lr-tb;fill:#24292e;fill-opacity:1;fill-rule:nonzero;stroke:none;stroke-width:3.125"
       id="text416"
       x="75"
       y="2153.125"><tspan
         x="75 100.43945 114.13574 142.43164 167.87109 184.81445 213.11035 230.49316 255.93262 268.04199 281.73828 293.84766 319.28711 347.58301 377.02637 405.32224 430.76172 460.20505 486.35254 500.04883 529.44336 546.82617 576.12305 599.21875 625.36621 646.58203 667.79785 679.90723 708.20312 737.64648 751.34277 777.49023 805.78613 835.22949 847.33887 875.63477 901.78223 912.62207 926.31836 960.66895 981.88477 1008.0322 1025.415 1046.6309 1060.3271 1096.46 1108.5693 1120.6787 1132.7881 1146.4844 1167.7002 1193.8477 1219.9951 1233.6914 1263.0859 1291.3818 1320.7764 1332.8857 1344.9951 1368.0908 1381.7871 1403.0029 1429.1504 1457.4463 1474.3896 1486.499 1529.5654 1555.7129 1584.0088 1600.9521 1614.6484 1637.7441 1666.04 1691.4795 1719.7754 1749.2188 1775.3662 1796.582 1810.2783 1839.5752 1863.5254 1889.6729 1907.0557 1920.752 1937.6953 1949.8047 1992.8711 2019.0186 2032.7148 2058.1543 2086.4502 2115.8936 2129.5898 2152.6855 2178.125 2206.4209 2220.1172 2249.5117 2266.8945 2293.042 2318.4814 2343.335 2357.0312 2386.4746 2415.7715 2451.9043 2480.2002 2493.8965 2511.2793 2537.4268 2558.6426 2586.9385 2599.0479 2615.9912"
         y="2153.125"
         id="tspan414"
         style="stroke-width:3.125">a natural language processing engine. Users will see public sentiment changes over time and can break down results</tspan></text><text
       style="font-variant:normal;font-weight:normal;font-size:50px;font-family:'Segoe UI';-inkscape-font-specification:SegoeUI;writing-mode:lr-tb;fill:#24292e;fill-opacity:1;fill-rule:nonzero;stroke:none;stroke-width:3.125"
       id="text420"
       x="75"
       y="2228.125"><tspan
         x="75 104.39453 128.58887 142.28516 163.50098 192.79785 215.89355 228.00293 253.44238 265.55176 279.24805 322.31445 348.46191 377.90527 390.01465 415.4541 429.15036 458.54495 470.65433 496.09375 513.03711 528.68652 557.9834 575.36621 618.43262 632.12891 657.56836 685.86426 715.30762 729.00391 758.44727 784.59473 827.66113 856.95801 886.40137 903.78418 929.22363 958.61816 986.91406 999.02344 1022.1191 1043.335 1054.1748 1067.8711 1094.0674 1122.3633 1134.4727 1155.6885 1169.3848 1194.8242 1224.2188 1253.6133 1265.7227 1277.832 1300.9277 1326.3672 1343.3105 1355.4199 1384.7168 1413.0127 1426.709 1438.8184 1460.0342 1473.7305 1490.6738 1516.1133 1533.4961 1562.9395 1589.0869 1606.0303 1632.1777 1661.6211 1675.3174 1692.2607 1721.5576 1757.6904 1783.1299 1800.5127 1829.9561 1843.6523 1866.748 1896.0449 1924.3408 1945.5566 1973.8525 2016.9189 2043.0664 2060.4492 2081.665 2092.5049 2106.2012 2142.334 2170.6299 2199.9268 2213.623 2236.7188 2262.1582 2290.4541 2304.1504 2321.5332 2347.6807 2368.8965 2395.0439 2420.4834 2437.8662 2460.9619"
         y="2228.125"
         id="tspan418"
         style="stroke-width:3.125">by social media platform and demographics. This application is targeted toward consumers, who can research</tspan></text><text
       style="font-variant:normal;font-weight:normal;font-size:50px;font-family:'Segoe UI';-inkscape-font-specification:SegoeUI;writing-mode:lr-tb;fill:#24292e;fill-opacity:1;fill-rule:nonzero;stroke:none;stroke-width:3.125"
       id="text424"
       x="75"
       y="2303.125"><tspan
         x="75 96.21582 122.36328 150.65918 167.60254 179.71191 222.77832 248.92578 277.22168 294.16504 307.86133 325.24414 351.3916 380.83496 406.27441 423.65723 453.10059 465.20996 493.50586 522.94922 536.64551 566.04004 595.33691 612.28027 638.42773 666.72363 683.66699 695.77637 721.21582 733.3252 747.02148 776.41602 804.71191 822.09473 845.19043 873.48633 898.92578 920.1416 946.28906 967.50488 978.34473 992.04102 1021.4355 1038.8184 1064.2578 1092.5537 1121.9971 1135.6934 1178.7598 1204.1992 1232.4951 1257.9346 1287.3779 1313.5254 1330.9082 1352.124 1362.9639 1376.6602 1412.793 1441.0889 1470.3857 1484.082 1507.1777 1532.6172 1560.9131 1574.6094 1600.0488 1621.2646 1642.4805 1668.6279 1689.8438 1711.0596 1724.7559 1741.6992 1769.9951 1796.1426 1809.8389 1835.9863 1851.6357 1867.2852 1893.4326 1916.5283 1933.4717 1945.5811 1969.5312 1995.6787 2023.9746 2050.1221 2071.3379 2092.5537 2106.25 2135.5469 2151.1963 2164.8926 2181.8359 2210.1318 2236.2793 2248.3887 2265.7715 2279.4678 2322.5342 2347.9736 2365.3564 2390.21 2416.3574 2433.3008 2445.4102 2473.7061"
         y="2303.125"
         id="tspan422"
         style="stroke-width:3.125">sentiment regarding potential purchases; brand managers, who can assess the effectiveness of their marketing</tspan></text><text
       style="font-variant:normal;font-weight:normal;font-size:50px;font-family:'Segoe UI';-inkscape-font-specification:SegoeUI;writing-mode:lr-tb;fill:#24292e;fill-opacity:1;fill-rule:nonzero;stroke:none;stroke-width:3.125"
       id="text428"
       x="75"
       y="2378.125"><tspan
         x="75 98.095703 123.53516 166.60156 195.99609 221.43555 233.54492 262.98828 291.28418 312.5 326.19629 351.63574 374.73145 392.11426 421.41113 442.62692 463.84277 477.53906 506.98242 533.12988 576.19629 605.49316 634.93652 652.31934 677.75879 707.15332 735.44922 747.55859 770.6543 784.35059 813.79395 831.17676 860.47363 888.76953 918.16406 939.37988 950.21973 963.91602 989.35547 1017.6514 1047.0947 1060.791 1072.9004 1101.1963 1125.1465 1151.2939 1172.5098 1189.4531 1218.75 1236.1328 1257.3486 1268.1885 1281.8848 1318.0176 1346.3135 1375.6104 1389.3066 1412.4023 1437.8418 1466.1377 1479.834 1491.9434 1520.2393 1537.1826 1563.3301 1580.7129 1610.1074 1627.4902 1653.6377 1670.5811 1684.2773 1713.6719 1741.9678 1771.3623 1783.4717 1795.5811 1818.6768 1832.373 1853.5889 1879.7363 1908.0322 1924.9756 1937.085 1980.1514 2006.2988 2034.5947 2051.5381 2065.2344 2082.1777 2111.4746 2125.1709 2154.5654 2171.9482 2198.0957 2227.5391 2239.6484 2262.7441 2279.6875 2293.3838 2336.4502 2361.8896 2379.2725 2404.126 2430.2734"
         y="2378.125"
         id="tspan426"
         style="stroke-width:3.125">campaigns across demographic groups; and investors, who can interpret public sentiment to predict market</tspan></text><text
       style="font-variant:normal;font-weight:normal;font-size:50px;font-family:'Segoe UI';-inkscape-font-specification:SegoeUI;writing-mode:lr-tb;fill:#24292e;fill-opacity:1;fill-rule:nonzero;stroke:none;stroke-width:3.125"
       id="text432"
       x="75"
       y="2453.125"><tspan
         x="75 90.649414 102.75879 131.05469 154.15039 171.09375 199.38965 224.8291 241.77246 253.88184 283.17871 311.47461"
         y="2453.125"
         id="tspan430"
         style="stroke-width:3.125">fluctuation.</tspan></text><text
       style="font-variant:normal;font-weight:600;font-size:75px;font-family:'Segoe UI';-inkscape-font-specification:SegoeUI-Semibold;writing-mode:lr-tb;fill:#24292e;fill-opacity:1;fill-rule:nonzero;stroke:none;stroke-width:3.125"
       id="text436"
       x="75"
       y="2625"><tspan
         x="75 118.83545 145.93506 190.72266 210.31494 250.15869 285.4248 312.52441 333.14209 386.93848 426.78223 459.11865 494.38477 522.14355 541.73584 586.92627 614.02588 633.61816 678.40576"
         y="2625"
         id="tspan434"
         style="stroke-width:3.125">Project Description</tspan></text><text
       style="font-variant:normal;font-weight:normal;font-size:50px;font-family:'Segoe UI';-inkscape-font-specification:SegoeUI;writing-mode:lr-tb;fill:#24292e;fill-opacity:1;fill-rule:nonzero;stroke:none;stroke-width:3.125"
       id="text440"
       x="75"
       y="2771.875"><tspan
         x="75 112.40234 141.69922 177.83203 203.27148 232.71484 258.1543 282.34863 303.56445 314.4043 328.10059 345.04395 373.33984 399.4873 416.87012 443.01755 456.71387 468.82324 490.03906 503.73535 546.80176 576.09863 593.48145 619.62891 633.3252 662.76855 688.20801 705.15137 730.59082 744.28711 761.23047 789.52637 814.96582 843.26172 856.95801 883.10547 907.05566 933.20312 950.58594 961.42578 975.12207 1001.6846 1030.9814 1054.0771 1066.1865 1091.626 1103.7354 1117.4316 1160.498 1186.6455 1216.0889 1228.1982 1253.6377 1267.334 1295.6299 1321.0693 1342.2852 1355.9814 1385.376 1402.7588 1432.0557 1461.499 1489.7949 1512.8906 1539.0381 1568.4814 1582.1777 1607.6172 1621.3135 1633.4229 1658.8623 1676.2451 1705.6885 1731.8359 1745.5322 1770.9717 1814.0381 1843.335 1871.6309 1899.9268 1916.8701 1930.5664 1959.8633 1975.5127 1989.209 2006.1523 2032.2998 2055.249 2072.1924 2100.4883 2125.9277 2138.0371 2151.7334 2181.1768 2206.6162 2223.5596 2248.999 2262.6953 2279.6387 2307.9346 2333.374 2350.3174 2364.0137 2387.1094 2412.5488 2440.8447 2454.541 2483.9355"
         y="2771.875"
         id="tspan438"
         style="stroke-width:3.125">Nowadays, there is more data than ever. Social media has produced a large amount of textual data that can be</tspan></text><text
       style="font-variant:normal;font-weight:normal;font-size:50px;font-family:'Segoe UI';-inkscape-font-specification:SegoeUI;writing-mode:lr-tb;fill:#24292e;fill-opacity:1;fill-rule:nonzero;stroke:none;stroke-width:3.125"
       id="text444"
       x="75"
       y="2846.875"><tspan
         x="75 96.21582 108.3252 151.3916 180.78613 192.89551 205.00488 220.6543 232.76367 258.91113 288.35449 302.05078 330.34668 351.5625 363.67188 391.96777 421.41113 435.10745 456.32324 482.4707 510.7666 527.70996 539.81934 582.88574 609.0332 637.3291 654.27246 667.96875 693.4082 721.7041 747.14355 759.25293 783.44727 804.66309 816.77246 837.98828 848.82812 862.52441 888.7207 917.0166 934.39941 963.69629 991.99219 1021.4355 1049.7314 1063.4277 1080.3711 1108.667 1120.7764 1141.9922 1155.6885 1185.083 1202.4658 1231.7627 1243.8721 1270.0195 1293.1152 1310.0586 1320.8984 1334.5947 1370.7275 1396.875 1410.5713 1438.8672 1468.1641 1497.5586 1523.7061 1537.4023 1554.3457 1583.6426 1597.3389 1622.7783 1651.0742 1672.29 1708.4229 1734.5703 1751.9531 1765.6494 1793.9453 1815.1611 1841.3086 1858.6914 1879.9072 1891.4062 1905.1025 1934.5459 1962.8418 1988.9893 2010.2051 2027.1484 2039.2578 2068.5547 2096.8506 2118.0664 2131.7627 2149.1455 2175.293 2204.7363 2230.1758 2247.5586 2277.002 2289.1113 2317.4072 2346.8506 2360.5469 2385.4004 2411.5479 2435.7422 2449.4385 2466.3818 2483.7646 2509.9121 2538.208 2567.6514 2588.8672 2602.5635 2614.6729"
         y="2846.875"
         id="tspan442"
         style="stroke-width:3.125">simplified using sentiment analysis. Through this project, we hope to answer users' questions regarding key trends in</tspan></text><text
       style="font-variant:normal;font-weight:normal;font-size:50px;font-family:'Segoe UI';-inkscape-font-specification:SegoeUI;writing-mode:lr-tb;fill:#24292e;fill-opacity:1;fill-rule:nonzero;stroke:none;stroke-width:3.125"
       id="text448"
       x="75"
       y="2921.875"><tspan
         x="75 104.44336 116.55273 132.20215 147.85156 173.99902 191.38184 217.5293 245.8252 262.76855 276.46484 288.57422 316.87012 346.31348 374.60938 395.8252 412.76855 430.15137 442.26074 468.40817 489.62402 503.32031 520.26367 548.55957 565.94238 595.23926 623.53516 652.97852 681.27441 694.9707 720.41016 748.70605 762.40234 774.51172 802.80762 816.50391 845.94727 872.09473 901.48926 918.43262 946.72852 960.4248 985.86426 1014.1602 1039.5996 1051.709 1075.9033 1097.1191 1109.2285 1130.4443 1144.1406 1173.4375 1189.0869 1202.7832 1223.999 1253.2959 1276.3916 1288.501 1313.9404 1326.0498 1339.7461 1382.8125 1408.96 1438.4033 1450.5127 1475.9521 1489.6484 1517.9443 1539.1602 1564.5996 1594.043 1620.1904 1631.0303 1644.7266 1670.9229 1699.2188 1711.3281 1732.5439 1746.2402 1782.373 1794.4824 1806.5918 1818.7012 1832.3975 1861.792 1887.9395 1901.6357 1927.0752 1940.7715 1956.4209 1984.7168 1996.8262 2008.9355 2028.9307 2050.1465 2067.0898 2092.5293 2115.625 2140.4785 2154.1748 2190.3076 2216.4551 2245.8496 2259.5459 2284.9854 2314.3799 2343.7744 2355.8838 2367.9932 2391.0889 2416.5283 2433.4717 2445.5811 2474.8779 2503.1738 2516.8701 2553.0029 2565.1123 2582.0557"
         y="2921.875"
         id="tspan446"
         style="stroke-width:3.125">different industries through an in depth analysis of social media usage. This will be a full-stack web application with</tspan></text><text
       style="font-variant:normal;font-weight:normal;font-size:50px;font-family:'Segoe UI';-inkscape-font-specification:SegoeUI;writing-mode:lr-tb;fill:#24292e;fill-opacity:1;fill-rule:nonzero;stroke:none;stroke-width:3.125"
       id="text452"
       x="75"
       y="2996.875"><tspan
         x="75 100.43945 128.73535 142.43164 154.54102 182.83691 199.78027 225.92773 243.31055 268.75 291.8457 308.78906 320.89844 344.84863 370.99609 384.69238 412.98828 434.2041 460.35156 477.73438 497.72949 509.83887 538.13477 555.07812 581.22559 598.6084 614.25781 639.69727 662.79297 688.94043 702.63672 728.07617 749.29199 762.98828 799.12109 825.26855 837.37793 849.4873 863.18359 888.62305 909.83887 923.53516 950.09766 976.24512 1004.541 1021.4844 1033.5938 1076.6602 1102.8076 1131.1035 1148.0469 1161.7432 1193.9941 1222.29 1247.7295 1259.8389 1284.0332 1305.249 1317.3584 1338.5742 1352.2705 1364.3799 1393.6768 1423.1201 1435.2295 1458.3252 1472.0215 1501.416 1530.7129 1566.8457 1592.9932 1610.376 1622.4854 1650.7812 1680.2246 1693.9209 1706.0303 1722.9736 1736.6699 1752.3193 1769.7021 1798.999 1842.0654 1855.7617 1872.7051 1901.001 1927.1484 1940.8447 1970.2393 1995.6787 2018.7744 2043.6279 2063.623 2089.7705 2118.0664 2147.5098 2158.3496 2172.0459 2198.2422 2226.5381 2252.6855 2270.0684 2296.2158 2309.9121 2322.0215 2343.2373 2356.9336 2382.373 2394.4824 2415.6982 2444.9951 2458.6914 2484.1309"
         y="2996.875"
         id="tspan450"
         style="stroke-width:3.125">an interactive user-interface as well as Sentiment Analysis logic powering it from the back-end. There is also an</tspan></text><text
       style="font-variant:normal;font-weight:normal;font-size:50px;font-family:'Segoe UI';-inkscape-font-specification:SegoeUI;writing-mode:lr-tb;fill:#24292e;fill-opacity:1;fill-rule:nonzero;stroke:none;stroke-width:3.125"
       id="text456"
       x="75"
       y="3071.875"><tspan
         x="75 101.14746 122.36328 139.30664 164.74609 194.14062 206.25 218.35938 239.5752 267.87109 294.01855 323.46191 337.1582 360.25391 389.55078 417.84668 446.14255 472.29004 495.38574 512.3291 524.43848 553.73535 582.03125 595.72754 631.86035 643.96973 660.91309 689.20898 702.90527 745.97168 774.26758 786.37695 803.32031 815.42969 844.82422 856.93359 883.08105 896.77734 917.99316 947.29004 970.38574 982.49512 1007.9346 1020.0439 1033.7402 1076.8066 1102.9541 1132.3975 1144.5068 1169.9463 1183.6426 1204.8584 1216.9678 1233.9111 1260.0586 1281.2744 1294.9707 1311.9141 1340.21 1357.5928 1386.8896 1415.1855 1444.6289 1472.9248 1486.6211 1512.0605 1525.7568 1548.8525 1577.1484 1598.3643 1615.3076 1644.6045 1687.6709 1701.3672 1733.6182 1761.6211 1774.9268 1785.7666 1799.4629 1825.6592 1853.9551 1880.1025 1893.7988 1905.9082 1934.2041 1951.1475 1977.2949 1994.6777 2010.3271 2035.7666 2058.8623 2085.0098 2098.7061 2121.8018 2151.0986 2194.165 2220.3125 2241.5283 2255.2246 2291.3574 2303.4668 2320.4102 2348.7061 2362.4023 2387.8418 2401.5381 2430.9814 2456.4209 2477.6367 2505.9326 2535.3271 2564.624 2590.0635 2607.4463"
         y="3071.875"
         id="tspan454"
         style="stroke-width:3.125">established connection with multiple social media sites through a custom API. The interface comes with a dashboard</tspan></text><text
       style="font-variant:normal;font-weight:normal;font-size:50px;font-family:'Segoe UI';-inkscape-font-specification:SegoeUI;writing-mode:lr-tb;fill:#24292e;fill-opacity:1;fill-rule:nonzero;stroke:none;stroke-width:3.125"
       id="text460"
       x="75"
       y="3146.875"><tspan
         x="75 91.943359 120.23926 145.67871 162.62207 176.31836 212.45117 224.56055 236.66992 248.7793 262.47559 283.69141 311.9873 341.28418 377.41699 391.11328 427.24609 455.54199 481.68945 499.07227 525.21973 538.91602 555.85938 585.15625 614.55078 628.24707 645.19043 662.57324 688.7207 717.0166 746.45996 767.67578 781.37207 793.48145 805.59082 831.73828 845.43457 870.87402 899.16992 928.61328 942.30957 971.75293 989.13574 1018.4326 1054.5654 1071.5088 1099.8047 1113.501 1136.5967 1162.0361 1190.332 1204.0283 1233.4229 1259.5703 1273.2666 1285.376 1328.4424 1357.8369 1375.2197 1404.5166 1428.4668 1454.6143 1484.0576 1497.7539 1523.1934 1544.4092 1558.1055 1594.2383 1620.3857 1632.4951 1644.6045"
         y="3146.875"
         id="tspan458"
         style="stroke-width:3.125">that will show where top trends lie and growth can be improved as well.</tspan></text></g></svg>
